Georama-Thin.ufo
<glyph name="exclam" format="2">
  <advance width="202.8"/>
  <unicode hex="0021"/>
  <outline>
    <contour>
      <point x="91.4" y="264.0" type="line"/>
      <point x="111.4" y="264.0" type="line"/>
      <point x="111.4" y="740.0" type="line"/>
      <point x="91.4" y="740.0" type="line"/>
    </contour>
    <contour>
      <point x="86.2" y="17.0" type="curve" smooth="yes"/>
      <point x="86.2" y="1.0"/>
      <point x="87.6" y="0.0"/>
      <point x="101.4" y="0.0" type="curve" smooth="yes"/>
      <point x="116.2" y="0.0"/>
      <point x="116.6" y="1.0"/>
      <point x="116.6" y="17.0" type="curve" smooth="yes"/>
      <point x="116.6" y="33.0"/>
      <point x="116.2" y="34.0"/>
      <point x="101.4" y="34.0" type="curve" smooth="yes"/>
      <point x="86.6" y="34.0"/>
      <point x="86.2" y="33.0"/>
    </contour>
  </outline>
</glyph>
<glyph name="numbersign" format="2">
  <advance width="563.6"/>
  <unicode hex="0023"/>
  <outline>
    <contour>
      <point x="90.80000000000001" y="479.8" type="line"/>
      <point x="199.0" y="479.8" type="line"/>
      <point x="150.2" y="214.0" type="line"/>
      <point x="50.6" y="214.0" type="line"/>
      <point x="50.6" y="194.8" type="line"/>
      <point x="146.60000000000002" y="194.8" type="line"/>
      <point x="111.4" y="0.0" type="line"/>
      <point x="131.4" y="0.0" type="line"/>
      <point x="166.60000000000002" y="194.8" type="line"/>
      <point x="342.6" y="194.8" type="line"/>
      <point x="307.4" y="0.0" type="line"/>
      <point x="327.4" y="0.0" type="line"/>
      <point x="362.6" y="194.8" type="line"/>
      <point x="472.8" y="194.8" type="line"/>
      <point x="472.8" y="214.0" type="line"/>
      <point x="366.20000000000005" y="214.0" type="line"/>
      <point x="415.0" y="479.8" type="line"/>
      <point x="513.0" y="479.8" type="line"/>
      <point x="513.0" y="499.0" type="line"/>
      <point x="418.8" y="499.0" type="line"/>
      <point x="456.4" y="700.0" type="line"/>
      <point x="436.4" y="700.0" type="line"/>
      <point x="398.8" y="499.0" type="line"/>
      <point x="222.8" y="499.0" type="line"/>
      <point x="260.4" y="700.0" type="line"/>
      <point x="240.4" y="700.0" type="line"/>
      <point x="202.8" y="499.0" type="line"/>
      <point x="90.80000000000001" y="499.0" type="line"/>
    </contour>
    <contour>
      <point x="219.0" y="479.8" type="line"/>
      <point x="395.0" y="479.8" type="line"/>
      <point x="346.20000000000005" y="214.0" type="line"/>
      <point x="170.2" y="214.0" type="line"/>
    </contour>
  </outline>
</glyph>
<glyph name="dollar" format="2">
  <advance width="563.6"/>
  <unicode hex="0024"/>
  <outline>
    <contour>
      <point x="277.0" y="-10.0" type="curve" smooth="yes"/>
      <point x="422.6" y="-10.0"/>
      <point x="494.40000000000003" y="45.2"/>
      <point x="494.40000000000003" y="146.0" type="curve" smooth="yes"/>
      <point x="494.40000000000003" y="245.4"/>
      <point x="436.6" y="303.8"/>
      <point x="302.8" y="356.0" type="curve" smooth="yes"/>
      <point x="176.0" y="406.6"/>
      <point x="116.0" y="465.4"/>
      <point x="116.0" y="556.6" type="curve" smooth="yes"/>
      <point x="116.0" y="640.6"/>
      <point x="183.2" y="691.2"/>
      <point x="300.20000000000005" y="691.2" type="curve" smooth="yes"/>
      <point x="348.20000000000005" y="691.2"/>
      <point x="411.6" y="679.8"/>
      <point x="459.2" y="664.4" type="curve"/>
      <point x="466.40000000000003" y="682.0" type="line"/>
      <point x="418.20000000000005" y="699.0"/>
      <point x="350.0" y="710.0"/>
      <point x="296.20000000000005" y="710.0" type="curve" smooth="yes"/>
      <point x="167.60000000000002" y="709.2"/>
      <point x="95.6" y="652.4"/>
      <point x="95.6" y="556.6" type="curve" smooth="yes"/>
      <point x="95.6" y="456.4"/>
      <point x="157.60000000000002" y="394.2"/>
      <point x="291.8" y="341.4" type="curve" smooth="yes"/>
      <point x="418.2" y="290.2"/>
      <point x="474.40000000000003" y="233.6"/>
      <point x="474.40000000000003" y="144.2" type="curve" smooth="yes"/>
      <point x="474.40000000000003" y="57.4"/>
      <point x="410.40000000000003" y="9.4"/>
      <point x="279.20000000000005" y="9.4" type="curve" smooth="yes"/>
      <point x="219.4" y="9.4"/>
      <point x="134.2" y="23.8"/>
      <point x="75.8" y="44.400000000000006" type="curve"/>
      <point x="69.2" y="25.6" type="line"/>
      <point x="128.4" y="4.600000000000001"/>
      <point x="215.8" y="-10.0"/>
    </contour>
    <contour>
      <point x="284.0" y="-105.0" type="line"/>
      <point x="304.0" y="-105.0" type="line"/>
      <point x="304.0" y="-1.4000000000000004" type="line"/>
      <point x="284.0" y="-4.4" type="line"/>
    </contour>
    <contour>
      <point x="284.0" y="703.8" type="line"/>
      <point x="304.0" y="705.0" type="line"/>
      <point x="304.0" y="805.0" type="line"/>
      <point x="284.0" y="805.0" type="line"/>
    </contour>
  </outline>
</glyph>
<glyph name="ampersand" format="2">
  <advance width="605.2"/>
  <unicode hex="0026"/>
  <outline>
    <contour>
      <point x="586.8" y="-13.2" type="line"/>
      <point x="601.6" y="0.6000000000000005" type="line"/>
      <point x="186.60000000000002" y="403.2" type="line" smooth="yes"/>
      <point x="139.8" y="454.4"/>
      <point x="119.2" y="503.4"/>
      <point x="119.2" y="554.2" type="curve" smooth="yes"/>
      <point x="119.2" y="641.8"/>
      <point x="171.60000000000002" y="690.0"/>
      <point x="275.8" y="690.0" type="curve" smooth="yes"/>
      <point x="372.4" y="690.0"/>
      <point x="422.0" y="642.4"/>
      <point x="422.0" y="559.6" type="curve" smooth="yes"/>
      <point x="422.0" y="497.4"/>
      <point x="400.4" y="453.0"/>
      <point x="342.6" y="426.2" type="curve"/>
      <point x="353.8" y="412.6" type="line"/>
      <point x="416.6" y="444.6"/>
      <point x="442.0" y="493.8"/>
      <point x="442.0" y="561.6" type="curve" smooth="yes"/>
      <point x="442.0" y="656.8"/>
      <point x="384.8" y="710.0"/>
      <point x="275.8" y="710.0" type="curve" smooth="yes"/>
      <point x="158.0" y="710.0"/>
      <point x="99.2" y="655.4"/>
      <point x="99.2" y="554.2" type="curve" smooth="yes"/>
      <point x="99.2" y="499.8"/>
      <point x="122.6" y="443.0"/>
      <point x="170.4" y="388.2" type="curve" smooth="yes"/>
    </contour>
    <contour>
      <point x="266.2" y="-10.0" type="curve" smooth="yes"/>
      <point x="360.4" y="-10.0"/>
      <point x="434.20000000000005" y="27.6"/>
      <point x="480.8" y="94.8" type="curve"/>
      <point x="468.0" y="110.4" type="line"/>
      <point x="421.6" y="46.0"/>
      <point x="357.4" y="10.0"/>
      <point x="266.2" y="10.0" type="curve" smooth="yes"/>
      <point x="137.0" y="10.0"/>
      <point x="62.0" y="79.4"/>
      <point x="62.0" y="183.6" type="curve" smooth="yes"/>
      <point x="62.0" y="276.2"/>
      <point x="102.80000000000001" y="333.6"/>
      <point x="188.60000000000002" y="384.6" type="curve"/>
      <point x="176.4" y="398.0" type="line"/>
      <point x="85.4" y="349.0"/>
      <point x="42.0" y="283.2"/>
      <point x="42.0" y="183.6" type="curve" smooth="yes"/>
      <point x="42.0" y="66.4"/>
      <point x="123.4" y="-10.0"/>
    </contour>
    <contour>
      <point x="488.4" y="103.6" type="line"/>
      <point x="524.2" y="161.2"/>
      <point x="543.2" y="235.4"/>
      <point x="543.2" y="317.8" type="curve" smooth="yes"/>
      <point x="543.2" y="341.0"/>
      <point x="541.0" y="358.8"/>
      <point x="536.0" y="378.4" type="curve"/>
      <point x="517.0" y="373.8" type="line"/>
      <point x="522.0" y="354.2"/>
      <point x="523.8" y="337.8"/>
      <point x="523.8" y="317.8" type="curve" smooth="yes"/>
      <point x="523.8" y="239.4"/>
      <point x="506.6" y="170.8"/>
      <point x="475.0" y="121.4" type="curve"/>
    </contour>
  </outline>
</glyph>
<glyph name="quotesingle" format="2">
  <advance width="142.4"/>
  <unicode hex="0027"/>
  <outline>
    <contour>
      <point x="65.2" y="427.0" type="line"/>
      <point x="77.2" y="427.0" type="line"/>
      <point x="82.2" y="700.0" type="line"/>
      <point x="60.2" y="700.0" type="line"/>
    </contour>
  </outline>
</glyph>
<glyph name="parenleft" format="2">
  <advance width="289.0"/>
  <unicode hex="0028"/>
  <outline>
    <contour>
      <point x="93.6" y="265.0" type="curve" smooth="yes"/>
      <point x="93.6" y="5.600000000000001"/>
      <point x="154.6" y="-189.0"/>
      <point x="272.4" y="-220.6" type="curve"/>
      <point x="272.4" y="-197.6" type="line"/>
      <point x="169.8" y="-163.2"/>
      <point x="114.80000000000001" y="17.0"/>
      <point x="114.80000000000001" y="265.0" type="curve" smooth="yes"/>
      <point x="114.80000000000001" y="513.0"/>
      <point x="169.8" y="693.2"/>
      <point x="272.4" y="727.6" type="curve"/>
      <point x="272.4" y="750.6" type="line"/>
      <point x="154.6" y="719.0"/>
      <point x="93.6" y="524.4"/>
    </contour>
  </outline>
</glyph>
<glyph name="parenright" format="2">
  <advance width="289.0"/>
  <unicode hex="0029"/>
  <outline>
    <contour>
      <point x="16.6" y="-197.6" type="curve"/>
      <point x="16.6" y="-220.6" type="line"/>
      <point x="134.4" y="-189.0"/>
      <point x="195.4" y="5.600000000000001"/>
      <point x="195.4" y="265.0" type="curve" smooth="yes"/>
      <point x="195.4" y="524.4"/>
      <point x="134.4" y="719.0"/>
      <point x="16.6" y="750.6" type="curve"/>
      <point x="16.6" y="727.6" type="line"/>
      <point x="119.2" y="693.2"/>
      <point x="174.2" y="513.0"/>
      <point x="174.2" y="265.0" type="curve" smooth="yes"/>
      <point x="174.2" y="17.0"/>
      <point x="119.2" y="-163.2"/>
    </contour>
  </outline>
</glyph>
<glyph name="asterisk" format="2">
  <advance width="295.6"/>
  <unicode hex="002A"/>
  <outline>
    <contour>
      <point x="67.0" y="363.2" type="line"/>
      <point x="148.2" y="485.8" type="line"/>
      <point x="227.8" y="362.8" type="line"/>
      <point x="242.0" y="372.4" type="line"/>
      <point x="161.6" y="499.0" type="line"/>
      <point x="290.4" y="550.4" type="line"/>
      <point x="284.2" y="566.0" type="line"/>
      <point x="157.6" y="516.6" type="line"/>
      <point x="157.6" y="669.4" type="line"/>
      <point x="138.8" y="669.4" type="line"/>
      <point x="138.8" y="516.6" type="line"/>
      <point x="11.4" y="566.0" type="line"/>
      <point x="5.2" y="550.4" type="line"/>
      <point x="134.8" y="499.0" type="line"/>
      <point x="52.400000000000006" y="373.2" type="line"/>
    </contour>
  </outline>
</glyph>
<glyph name="plus" format="2">
  <advance width="446.0"/>
  <unicode hex="002B"/>
  <outline>
    <contour>
      <point x="213.0" y="72.0" type="line"/>
      <point x="233.0" y="72.0" type="line"/>
      <point x="233.0" y="279.0" type="line"/>
      <point x="397.4" y="279.0" type="line"/>
      <point x="397.4" y="299.0" type="line"/>
      <point x="233.0" y="299.0" type="line"/>
      <point x="233.0" y="506.0" type="line"/>
      <point x="213.0" y="506.0" type="line"/>
      <point x="213.0" y="299.0" type="line"/>
      <point x="48.6" y="299.0" type="line"/>
      <point x="48.6" y="279.0" type="line"/>
      <point x="213.0" y="279.0" type="line"/>
    </contour>
  </outline>
</glyph>
<glyph name="comma" format="2">
  <advance width="142.4"/>
  <unicode hex="002C"/>
  <outline>
    <contour>
      <point x="61.6" y="31.6" type="line"/>
      <point x="69.8" y="11.6"/>
      <point x="74.6" y="-11.0"/>
      <point x="74.6" y="-30.4" type="curve" smooth="yes"/>
      <point x="74.6" y="-90.8"/>
      <point x="50.8" y="-157.6"/>
      <point x="0.40000000000000213" y="-186.0" type="curve"/>
      <point x="10.2" y="-202.4" type="line"/>
      <point x="70.6" y="-169.4"/>
      <point x="94.6" y="-89.2"/>
      <point x="94.6" y="-29.6" type="curve" smooth="yes"/>
      <point x="94.6" y="-6.2"/>
      <point x="90.4" y="17.6"/>
      <point x="81.8" y="39.4" type="curve"/>
    </contour>
  </outline>
</glyph>
<glyph name="hyphen" format="2">
  <advance width="286.4"/>
  <unicode hex="002D"/>
  <outline>
    <contour>
      <point x="33.6" y="255.0" type="line"/>
      <point x="252.8" y="255.0" type="line"/>
      <point x="252.8" y="275.0" type="line"/>
      <point x="33.6" y="275.0" type="line"/>
    </contour>
  </outline>
</glyph>
<glyph name="period" format="2">
  <advance width="142.4"/>
  <unicode hex="002E"/>
  <outline>
    <contour>
      <point x="56.2" y="17.0" type="curve" smooth="yes"/>
      <point x="56.2" y="1.0"/>
      <point x="57.6" y="0.0"/>
      <point x="71.4" y="0.0" type="curve" smooth="yes"/>
      <point x="86.2" y="0.0"/>
      <point x="86.6" y="1.0"/>
      <point x="86.6" y="17.0" type="curve" smooth="yes"/>
      <point x="86.6" y="33.0"/>
      <point x="86.2" y="34.0"/>
      <point x="71.4" y="34.0" type="curve" smooth="yes"/>
      <point x="56.6" y="34.0"/>
      <point x="56.2" y="33.0"/>
    </contour>
  </outline>
</glyph>
<glyph name="slash" format="2">
  <advance width="290.8"/>
  <unicode hex="002F"/>
  <outline>
    <contour>
      <point x="5.2" y="-210.0" type="line"/>
      <point x="25.4" y="-210.0" type="line"/>
      <point x="285.6" y="740.0" type="line"/>
      <point x="265.4" y="740.0" type="line"/>
    </contour>
  </outline>
</glyph>
<glyph name="zero" format="2">
  <advance width="563.6"/>
  <unicode hex="0030"/>
  <outline>
    <contour>
      <point x="30.200000000000003" y="350.0" type="curve" smooth="yes"/>
      <point x="30.200000000000003" y="69.6"/>
      <point x="138.0" y="-10.0"/>
      <point x="281.8" y="-10.0" type="curve" smooth="yes"/>
      <point x="425.6" y="-10.0"/>
      <point x="533.4000000000001" y="69.6"/>
      <point x="533.4000000000001" y="350.0" type="curve" smooth="yes"/>
      <point x="533.4000000000001" y="631.0"/>
      <point x="425.6" y="710.0"/>
      <point x="281.8" y="710.0" type="curve" smooth="yes"/>
      <point x="138.0" y="710.0"/>
      <point x="30.200000000000003" y="631.0"/>
    </contour>
    <contour>
      <point x="50.2" y="350.0" type="curve" smooth="yes"/>
      <point x="50.2" y="615.0"/>
      <point x="150.4" y="690.0"/>
      <point x="281.8" y="690.0" type="curve" smooth="yes"/>
      <point x="413.20000000000005" y="690.0"/>
      <point x="513.4000000000001" y="615.0"/>
      <point x="513.4000000000001" y="350.0" type="curve" smooth="yes"/>
      <point x="513.4000000000001" y="85.6"/>
      <point x="413.20000000000005" y="10.0"/>
      <point x="281.8" y="10.0" type="curve" smooth="yes"/>
      <point x="150.4" y="10.0"/>
      <point x="50.2" y="85.6"/>
    </contour>
  </outline>
</glyph>
<glyph name="one" format="2">
  <advance width="563.6"/>
  <unicode hex="0031"/>
  <outline>
    <contour>
      <point x="46.0" y="0.0" type="line"/>
      <point x="545.2" y="0.0" type="line"/>
      <point x="545.2" y="20.0" type="line"/>
      <point x="327.20000000000005" y="20.0" type="line"/>
      <point x="327.20000000000005" y="704.0" type="line"/>
      <point x="315.20000000000005" y="704.0" type="line"/>
      <point x="35.2" y="547.6" type="line"/>
      <point x="45.6" y="532.0" type="line"/>
      <point x="307.20000000000005" y="673.0" type="line"/>
      <point x="307.20000000000005" y="20.0" type="line"/>
      <point x="46.0" y="20.0" type="line"/>
    </contour>
  </outline>
</glyph>
<glyph name="four" format="2">
  <advance width="564"/>
  <unicode hex="0034"/>
  <outline>
    <contour>
      <point x="31" y="200" type="line"/>
      <point x="398" y="200" type="line"/>
      <point x="398" y="0" type="line"/>
      <point x="418" y="0" type="line"/>
      <point x="418" y="200" type="line"/>
      <point x="545" y="200" type="line"/>
      <point x="545" y="220" type="line"/>
      <point x="418" y="220" type="line"/>
      <point x="418" y="699" type="line"/>
      <point x="403" y="706" type="line"/>
      <point x="25" y="217" type="line"/>
    </contour>
    <contour>
      <point x="54" y="220" type="line"/>
      <point x="398" y="665" type="line"/>
      <point x="398" y="220" type="line"/>
    </contour>
  </outline>
</glyph>
<glyph name="five" format="2">
  <advance width="563.6"/>
  <unicode hex="0035"/>
  <outline>
    <contour>
      <point x="42.0" y="57.6" type="line"/>
      <point x="98.0" y="15.0"/>
      <point x="156.60000000000002" y="-9.6"/>
      <point x="261.4" y="-9.6" type="curve" smooth="yes"/>
      <point x="432.4" y="-9.6"/>
      <point x="514.2" y="68.4"/>
      <point x="514.2" y="204.0" type="curve" smooth="yes"/>
      <point x="514.2" y="330.4"/>
      <point x="456.6" y="392.6"/>
      <point x="330.8" y="392.6" type="curve" smooth="yes"/>
      <point x="98.80000000000001" y="392.6" type="line"/>
      <point x="127.80000000000001" y="680.0" type="line"/>
      <point x="476.6" y="680.0" type="line"/>
      <point x="476.6" y="700.0" type="line"/>
      <point x="110.0" y="700.0" type="line"/>
      <point x="78.0" y="383.6" type="line"/>
      <point x="88.0" y="372.6" type="line"/>
      <point x="324.20000000000005" y="372.6" type="line" smooth="yes"/>
      <point x="442.2" y="372.6"/>
      <point x="494.2" y="317.8"/>
      <point x="494.2" y="204.0" type="curve" smooth="yes"/>
      <point x="494.2" y="79.6"/>
      <point x="422.0" y="10.4"/>
      <point x="261.4" y="10.4" type="curve" smooth="yes"/>
      <point x="158.8" y="10.4"/>
      <point x="107.2" y="36.2"/>
      <point x="55.6" y="72.0" type="curve"/>
    </contour>
  </outline>
</glyph>
<glyph name="six" format="2">
  <advance width="563.6"/>
  <unicode hex="0036"/>
  <outline>
    <contour>
      <point x="298.6" y="-10.0" type="curve" smooth="yes"/>
      <point x="442.8" y="-10.0"/>
      <point x="530.0" y="74.6"/>
      <point x="530.0" y="210.6" type="curve" smooth="yes"/>
      <point x="530.0" y="342.0"/>
      <point x="447.20000000000005" y="413.6"/>
      <point x="312.8" y="413.6" type="curve" smooth="yes"/>
      <point x="207.0" y="413.6"/>
      <point x="96.6" y="365.8"/>
      <point x="48.0" y="300.4" type="curve"/>
      <point x="52.0" y="274.2" type="line"/>
      <point x="99.6" y="347.2"/>
      <point x="205.60000000000002" y="394.2"/>
      <point x="312.20000000000005" y="394.2" type="curve" smooth="yes"/>
      <point x="434.6" y="394.2"/>
      <point x="510.0" y="329.4"/>
      <point x="510.0" y="208.8" type="curve" smooth="yes"/>
      <point x="510.0" y="85.4"/>
      <point x="430.6" y="8.8"/>
      <point x="298.0" y="8.8" type="curve" smooth="yes"/>
      <point x="130.2" y="8.8"/>
      <point x="53.400000000000006" y="105.4"/>
      <point x="53.400000000000006" y="333.6" type="curve" smooth="yes"/>
      <point x="53.400000000000006" y="575.0"/>
      <point x="142.0" y="691.2"/>
      <point x="310.0" y="691.2" type="curve" smooth="yes"/>
      <point x="376.0" y="691.2"/>
      <point x="432.20000000000005" y="677.4"/>
      <point x="494.40000000000003" y="657.0" type="curve"/>
      <point x="503.8" y="673.4" type="line"/>
      <point x="440.0" y="696.6"/>
      <point x="380.20000000000005" y="710.0"/>
      <point x="311.20000000000005" y="710.0" type="curve" smooth="yes"/>
      <point x="129.0" y="710.0"/>
      <point x="33.400000000000006" y="599.8"/>
      <point x="33.400000000000006" y="336.2" type="curve" smooth="yes"/>
      <point x="33.400000000000006" y="88.8"/>
      <point x="114.4" y="-10.0"/>
    </contour>
  </outline>
</glyph>
<glyph name="seven" format="2">
  <advance width="563.6"/>
  <unicode hex="0037"/>
  <outline>
    <contour>
      <point x="212.2" y="0.0" type="curve"/>
      <point x="232.2" y="0.0" type="line"/>
      <point x="232.8" y="138.6"/>
      <point x="265.8" y="247.2"/>
      <point x="331.20000000000005" y="363.6" type="curve" smooth="yes"/>
      <point x="511.0" y="683.0" type="line"/>
      <point x="511.0" y="700.0" type="line"/>
      <point x="43.6" y="700.0" type="line"/>
      <point x="43.6" y="680.0" type="line"/>
      <point x="485.8" y="680.0" type="line"/>
      <point x="339.8" y="420.6" type="line" smooth="yes"/>
      <point x="241.0" y="244.6"/>
      <point x="212.2" y="141.8"/>
    </contour>
  </outline>
</glyph>
<glyph name="eight" format="2">
  <advance width="564"/>
  <unicode hex="0038"/>
  <outline>
    <contour>
      <point x="341" y="362" type="curve"/>
      <point x="361" y="354" type="line"/>
      <point x="468" y="401"/>
      <point x="511" y="462"/>
      <point x="511" y="541" type="curve" smooth="yes"/>
      <point x="511" y="655"/>
      <point x="435" y="710"/>
      <point x="286" y="710" type="curve" smooth="yes"/>
      <point x="138" y="710"/>
      <point x="51" y="650"/>
      <point x="51" y="544" type="curve" smooth="yes"/>
      <point x="51" y="281"/>
      <point x="520" y="441"/>
      <point x="520" y="175" type="curve" smooth="yes"/>
      <point x="520" y="67"/>
      <point x="434" y="10"/>
      <point x="279" y="10" type="curve" smooth="yes"/>
      <point x="127" y="10"/>
      <point x="43" y="74"/>
      <point x="43" y="184" type="curve" smooth="yes"/>
      <point x="43" y="275"/>
      <point x="95" y="341"/>
      <point x="209" y="382" type="curve"/>
      <point x="187" y="391" type="line"/>
      <point x="70" y="343"/>
      <point x="23" y="274"/>
      <point x="23" y="181" type="curve" smooth="yes"/>
      <point x="23" y="60"/>
      <point x="113" y="-10"/>
      <point x="279" y="-10" type="curve" smooth="yes"/>
      <point x="446" y="-10"/>
      <point x="540" y="55"/>
      <point x="540" y="176" type="curve" smooth="yes"/>
      <point x="540" y="457"/>
      <point x="71" y="301"/>
      <point x="71" y="546" type="curve" smooth="yes"/>
      <point x="71" y="638"/>
      <point x="150" y="691"/>
      <point x="286" y="691" type="curve" smooth="yes"/>
      <point x="423" y="691"/>
      <point x="491" y="643"/>
      <point x="491" y="540" type="curve" smooth="yes"/>
      <point x="491" y="465"/>
      <point x="453" y="411"/>
    </contour>
  </outline>
</glyph>
<glyph name="nine" format="2">
  <advance width="563.6"/>
  <unicode hex="0039"/>
  <outline>
    <contour>
      <point x="251.4" y="-10.0" type="curve" smooth="yes"/>
      <point x="433.6" y="-10.0"/>
      <point x="526.8" y="100.2"/>
      <point x="526.8" y="363.8" type="curve" smooth="yes"/>
      <point x="526.8" y="611.2"/>
      <point x="445.8" y="710.0"/>
      <point x="277.6" y="710.0" type="curve" smooth="yes"/>
      <point x="127.0" y="710.0"/>
      <point x="30.200000000000003" y="627.8"/>
      <point x="30.200000000000003" y="489.8" type="curve" smooth="yes"/>
      <point x="30.200000000000003" y="360.4"/>
      <point x="114.6" y="286.4"/>
      <point x="247.4" y="286.4" type="curve" smooth="yes"/>
      <point x="353.20000000000005" y="286.4"/>
      <point x="463.6" y="335.4"/>
      <point x="512.2" y="400.8" type="curve"/>
      <point x="511.8" y="433.0" type="line"/>
      <point x="462.40000000000003" y="352.2"/>
      <point x="354.6" y="305.8"/>
      <point x="248.0" y="305.8" type="curve" smooth="yes"/>
      <point x="131.2" y="305.8"/>
      <point x="50.2" y="373.0"/>
      <point x="50.2" y="491.6" type="curve" smooth="yes"/>
      <point x="50.2" y="617.0"/>
      <point x="139.2" y="691.2"/>
      <point x="278.20000000000005" y="691.2" type="curve" smooth="yes"/>
      <point x="430.0" y="691.2"/>
      <point x="506.8" y="594.6"/>
      <point x="506.8" y="366.4" type="curve" smooth="yes"/>
      <point x="506.8" y="125.0"/>
      <point x="420.6" y="8.8"/>
      <point x="252.6" y="8.8" type="curve" smooth="yes"/>
      <point x="186.60000000000002" y="8.8"/>
      <point x="128.0" y="22.6"/>
      <point x="65.8" y="43.0" type="curve"/>
      <point x="56.400000000000006" y="26.6" type="line"/>
      <point x="120.2" y="3.4000000000000004"/>
      <point x="182.4" y="-10.0"/>
    </contour>
  </outline>
</glyph>
<glyph name="less" format="2">
  <advance width="446.0"/>
  <unicode hex="003C"/>
  <outline>
    <contour>
      <point x="396.8" y="81.0" type="line"/>
      <point x="396.8" y="104.2" type="line"/>
      <point x="70.0" y="289.6" type="line"/>
      <point x="396.8" y="476.4" type="line"/>
      <point x="396.8" y="498.0" type="line"/>
      <point x="49.2" y="299.6" type="line"/>
      <point x="49.2" y="279.6" type="line"/>
    </contour>
  </outline>
</glyph>
<glyph name="equal" format="2">
  <advance width="446.0"/>
  <unicode hex="003D"/>
  <outline>
    <contour>
      <point x="397.4" y="197.0" type="line"/>
      <point x="48.6" y="197.0" type="line"/>
      <point x="48.6" y="177.0" type="line"/>
      <point x="397.4" y="177.0" type="line"/>
    </contour>
    <contour>
      <point x="397.4" y="404.0" type="line"/>
      <point x="48.6" y="404.0" type="line"/>
      <point x="48.6" y="384.0" type="line"/>
      <point x="397.4" y="384.0" type="line"/>
    </contour>
  </outline>
</glyph>
<glyph name="greater" format="2">
  <advance width="446.0"/>
  <unicode hex="003E"/>
  <outline>
    <contour>
      <point x="396.8" y="279.0" type="line"/>
      <point x="396.8" y="299.0" type="line"/>
      <point x="49.2" y="498.0" type="line"/>
      <point x="49.2" y="474.8" type="line"/>
      <point x="376.0" y="289.0" type="line"/>
      <point x="49.2" y="103.0" type="line"/>
      <point x="49.2" y="81.0" type="line"/>
    </contour>
  </outline>
</glyph>
<glyph name="question" format="2">
  <advance width="407.6"/>
  <unicode hex="003F"/>
  <outline>
    <contour>
      <point x="175.0" y="262.8" type="line"/>
      <point x="195.0" y="262.8" type="line"/>
      <point x="195.0" y="336.0" type="line"/>
      <point x="317.4" y="401.4"/>
      <point x="379.6" y="450.8"/>
      <point x="379.6" y="564.8" type="curve" smooth="yes"/>
      <point x="379.6" y="700.0"/>
      <point x="285.8" y="750.0"/>
      <point x="199.2" y="750.0" type="curve" smooth="yes"/>
      <point x="132.8" y="750.0"/>
      <point x="62.8" y="727.8"/>
      <point x="9.6" y="686.2" type="curve"/>
      <point x="20.8" y="671.2" type="line"/>
      <point x="75.0" y="712.6"/>
      <point x="140.4" y="730.6"/>
      <point x="199.2" y="730.6" type="curve" smooth="yes"/>
      <point x="277.6" y="730.6"/>
      <point x="359.0" y="679.2"/>
      <point x="359.0" y="566.0" type="curve" smooth="yes"/>
      <point x="359.0" y="474.4"/>
      <point x="311.8" y="411.8"/>
      <point x="175.0" y="347.8" type="curve"/>
    </contour>
    <contour>
      <point x="172.0" y="17.0" type="curve" smooth="yes"/>
      <point x="172.0" y="1.0"/>
      <point x="174.60000000000002" y="0.0"/>
      <point x="187.8" y="0.0" type="curve" smooth="yes"/>
      <point x="202.0" y="0.0"/>
      <point x="203.0" y="1.0"/>
      <point x="203.0" y="17.0" type="curve" smooth="yes"/>
      <point x="203.0" y="33.0"/>
      <point x="202.0" y="34.0"/>
      <point x="187.8" y="34.0" type="curve" smooth="yes"/>
      <point x="173.0" y="34.0"/>
      <point x="172.0" y="33.0"/>
    </contour>
  </outline>
</glyph>
<glyph name="at" format="2">
  <advance width="694.6"/>
  <unicode hex="0040"/>
  <outline>
    <contour>
      <point x="348.20000000000005" y="-123.0" type="curve" smooth="yes"/>
      <point x="431.8" y="-123.0"/>
      <point x="506.6" y="-90.4"/>
      <point x="552.4" y="-53.2" type="curve"/>
      <point x="541.2" y="-40.6" type="line"/>
      <point x="494.8" y="-76.8"/>
      <point x="427.4" y="-104.2"/>
      <point x="348.20000000000005" y="-104.2" type="curve" smooth="yes"/>
      <point x="170.60000000000002" y="-104.2"/>
      <point x="68.8" y="5.600000000000001"/>
      <point x="68.8" y="269.6" type="curve" smooth="yes"/>
      <point x="68.8" y="510.0"/>
      <point x="151.4" y="691.8"/>
      <point x="357.6" y="691.8" type="curve" smooth="yes"/>
      <point x="551.2" y="691.8"/>
      <point x="627.4000000000001" y="574.0"/>
      <point x="627.4000000000001" y="348.0" type="curve" smooth="yes"/>
      <point x="627.4000000000001" y="209.4"/>
      <point x="598.6" y="85.0"/>
      <point x="538.8" y="85.0" type="curve" smooth="yes"/>
      <point x="496.8" y="85.0"/>
      <point x="469.6" y="117.4"/>
      <point x="476.20000000000005" y="253.2" type="curve" smooth="yes"/>
      <point x="489.20000000000005" y="507.6" type="line"/>
      <point x="443.0" y="521.0"/>
      <point x="404.0" y="528.8"/>
      <point x="370.6" y="528.8" type="curve" smooth="yes"/>
      <point x="242.60000000000002" y="528.8"/>
      <point x="192.2" y="399.8"/>
      <point x="192.2" y="269.2" type="curve" smooth="yes"/>
      <point x="192.2" y="124.0"/>
      <point x="237.60000000000002" y="68.4"/>
      <point x="305.6" y="68.4" type="curve" smooth="yes"/>
      <point x="382.20000000000005" y="68.4"/>
      <point x="433.6" y="132.0"/>
      <point x="459.4" y="247.8" type="curve"/>
      <point x="454.6" y="121.6"/>
      <point x="470.0" y="65.4"/>
      <point x="538.4" y="65.4" type="curve" smooth="yes"/>
      <point x="614.0" y="65.4"/>
      <point x="647.0" y="199.0"/>
      <point x="647.0" y="348.0" type="curve" smooth="yes"/>
      <point x="647.0" y="592.4"/>
      <point x="563.8" y="709.6"/>
      <point x="357.6" y="709.6" type="curve" smooth="yes"/>
      <point x="138.4" y="709.6"/>
      <point x="48.8" y="520.0"/>
      <point x="48.8" y="269.6" type="curve" smooth="yes"/>
      <point x="48.8" y="-6.399999999999999"/>
      <point x="158.8" y="-123.0"/>
    </contour>
    <contour>
      <point x="306.8" y="88.0" type="curve" smooth="yes"/>
      <point x="253.8" y="88.0"/>
      <point x="212.2" y="136.0"/>
      <point x="212.2" y="269.2" type="curve" smooth="yes"/>
      <point x="212.2" y="384.2"/>
      <point x="260.2" y="509.4"/>
      <point x="369.6" y="509.4" type="curve" smooth="yes"/>
      <point x="396.20000000000005" y="509.4"/>
      <point x="435.20000000000005" y="502.6"/>
      <point x="469.20000000000005" y="492.8" type="curve"/>
      <point x="465.0" y="419.0" type="line" smooth="yes"/>
      <point x="441.6" y="146.6"/>
      <point x="378.4" y="88.0"/>
    </contour>
  </outline>
</glyph>
<glyph name="A" format="2">
  <advance width="551.2"/>
  <unicode hex="0041"/>
  <anchor x="535.2" y="0.0" name="ogonek"/>
  <anchor x="276.20000000000005" y="0.0" name="bottom"/>
  <anchor x="276.20000000000005" y="700.0" name="top"/>
  <outline>
    <contour>
      <point x="16.0" y="0.0" type="line"/>
      <point x="36.8" y="0.0" type="line"/>
      <point x="115.4" y="221.4" type="line"/>
      <point x="435.6" y="221.4" type="line"/>
      <point x="514.0" y="0.0" type="line"/>
      <point x="535.2" y="0.0" type="line"/>
      <point x="282.20000000000005" y="710.0" type="line"/>
      <point x="269.4" y="710.0" type="line"/>
    </contour>
    <contour>
      <point x="122.4" y="240.4" type="line"/>
      <point x="275.4" y="665.0" type="line"/>
      <point x="429.0" y="240.4" type="line"/>
    </contour>
  </outline>
</glyph>
<glyph name="B" format="2">
  <advance width="577.0"/>
  <unicode hex="0042"/>
  <anchor x="290.0" y="700.0" name="top"/>
  <anchor x="290.0" y="0.0" name="bottom"/>
  <outline>
    <contour>
      <point x="82.6" y="-1.5999999999999996" type="line"/>
      <point x="177.0" y="-8.2"/>
      <point x="228.8" y="-10.0"/>
      <point x="297.4" y="-10.0" type="curve" smooth="yes"/>
      <point x="470.2" y="-10.0"/>
      <point x="541.2" y="49.4"/>
      <point x="541.2" y="186.2" type="curve" smooth="yes"/>
      <point x="541.2" y="282.8"/>
      <point x="486.40000000000003" y="347.2"/>
      <point x="395.8" y="363.0" type="curve"/>
      <point x="395.8" y="364.4" type="line"/>
      <point x="463.40000000000003" y="384.2"/>
      <point x="506.8" y="451.4"/>
      <point x="506.8" y="536.4" type="curve" smooth="yes"/>
      <point x="506.8" y="659.0"/>
      <point x="445.8" y="710.0"/>
      <point x="289.0" y="710.0" type="curve" smooth="yes"/>
      <point x="233.20000000000002" y="710.0"/>
      <point x="181.4" y="707.2"/>
      <point x="82.6" y="700.4" type="curve"/>
    </contour>
    <contour>
      <point x="102.6" y="370.4" type="line"/>
      <point x="102.6" y="683.6" type="line"/>
      <point x="200.8" y="690.2"/>
      <point x="214.8" y="691.2"/>
      <point x="281.20000000000005" y="691.2" type="curve" smooth="yes"/>
      <point x="428.8" y="691.2"/>
      <point x="486.8" y="644.4"/>
      <point x="486.8" y="536.4" type="curve" smooth="yes"/>
      <point x="486.8" y="439.6"/>
      <point x="426.4" y="370.4"/>
      <point x="332.4" y="370.4" type="curve" smooth="yes"/>
    </contour>
    <contour>
      <point x="102.6" y="16.8" type="curve"/>
      <point x="102.6" y="350.4" type="line"/>
      <point x="339.0" y="350.4" type="line" smooth="yes"/>
      <point x="454.8" y="350.4"/>
      <point x="521.2" y="288.6"/>
      <point x="521.2" y="186.0" type="curve" smooth="yes"/>
      <point x="521.2" y="58.8"/>
      <point x="457.6" y="9.0"/>
      <point x="292.6" y="9.0" type="curve" smooth="yes"/>
      <point x="243.4" y="9.0"/>
      <point x="208.60000000000002" y="10.8"/>
    </contour>
  </outline>
</glyph>
<glyph name="C" format="2">
  <advance width="570.4000000000001"/>
  <unicode hex="0043"/>
  <anchor x="328.0" y="700.0" name="top"/>
  <anchor x="327.4" y="0.0" name="bottom"/>
  <outline>
    <contour>
      <point x="53.6" y="336.4" type="curve" smooth="yes"/>
      <point x="53.6" y="77.6"/>
      <point x="157.2" y="-10.0"/>
      <point x="333.8" y="-10.0" type="curve" smooth="yes"/>
      <point x="404.4" y="-10.0"/>
      <point x="480.6" y="-1.1999999999999993"/>
      <point x="539.0" y="16.8" type="curve"/>
      <point x="534.2" y="36.2" type="line"/>
      <point x="478.2" y="18.8"/>
      <point x="401.0" y="8.8"/>
      <point x="334.4" y="8.8" type="curve" smooth="yes"/>
      <point x="169.60000000000002" y="8.8"/>
      <point x="73.6" y="95.4"/>
      <point x="73.6" y="336.4" type="curve" smooth="yes"/>
      <point x="73.6" y="599.2"/>
      <point x="174.0" y="690.6"/>
      <point x="345.20000000000005" y="690.6" type="curve" smooth="yes"/>
      <point x="409.20000000000005" y="690.6"/>
      <point x="456.8" y="685.0"/>
      <point x="513.0" y="669.4" type="curve"/>
      <point x="517.8" y="688.2" type="line"/>
      <point x="460.40000000000003" y="704.4"/>
      <point x="410.6" y="710.0"/>
      <point x="344.6" y="710.0" type="curve" smooth="yes"/>
      <point x="156.8" y="710.0"/>
      <point x="53.6" y="603.2"/>
    </contour>
  </outline>
</glyph>
<glyph name="D" format="2">
  <advance width="633.0"/>
  <unicode hex="0044"/>
  <anchor x="305.4" y="700.0" name="top"/>
  <outline>
    <contour>
      <point x="283.4" y="-10.0" type="curve" smooth="yes"/>
      <point x="477.20000000000005" y="-10.0"/>
      <point x="579.4000000000001" y="97.6"/>
      <point x="579.4000000000001" y="346.8" type="curve" smooth="yes"/>
      <point x="579.4000000000001" y="603.4"/>
      <point x="485.6" y="710.0"/>
      <point x="275.6" y="710.0" type="curve" smooth="yes"/>
      <point x="218.0" y="710.0"/>
      <point x="156.2" y="707.6"/>
      <point x="82.6" y="702.4" type="curve"/>
      <point x="82.6" y="-3.5999999999999996" type="line"/>
      <point x="153.8" y="-7.0"/>
      <point x="229.0" y="-10.0"/>
    </contour>
    <contour>
      <point x="272.20000000000005" y="8.8" type="curve" smooth="yes"/>
      <point x="235.8" y="8.8"/>
      <point x="149.2" y="11.4"/>
      <point x="102.6" y="14.6" type="curve"/>
      <point x="102.6" y="684.8" type="line"/>
      <point x="158.4" y="688.4"/>
      <point x="229.0" y="690.6"/>
      <point x="266.0" y="690.6" type="curve" smooth="yes"/>
      <point x="469.6" y="690.6"/>
      <point x="558.4000000000001" y="596.4"/>
      <point x="558.4000000000001" y="347.2" type="curve" smooth="yes"/>
      <point x="558.4000000000001" y="104.8"/>
      <point x="464.0" y="8.8"/>
    </contour>
  </outline>
</glyph>
<glyph name="E" format="2">
  <advance width="525.0"/>
  <unicode hex="0045"/>
  <anchor x="497.2" y="0.0" name="ogonek"/>
  <anchor x="290.4" y="0.0" name="bottom"/>
  <anchor x="283.0" y="700.0" name="top"/>
  <outline>
    <contour>
      <point x="82.6" y="0.0" type="line"/>
      <point x="497.2" y="0.0" type="line"/>
      <point x="497.2" y="20.0" type="line"/>
      <point x="102.6" y="20.0" type="line"/>
      <point x="102.6" y="361.6" type="line"/>
      <point x="457.8" y="361.6" type="line"/>
      <point x="457.8" y="381.0" type="line"/>
      <point x="102.6" y="381.0" type="line"/>
      <point x="102.6" y="680.0" type="line"/>
      <point x="479.6" y="680.0" type="line"/>
      <point x="479.6" y="700.0" type="line"/>
      <point x="82.6" y="700.0" type="line"/>
    </contour>
  </outline>
</glyph>
<glyph name="F" format="2">
  <advance width="497.6"/>
  <unicode hex="0046"/>
  <outline>
    <contour>
      <point x="82.6" y="0.0" type="line"/>
      <point x="102.6" y="0.0" type="line"/>
      <point x="102.6" y="331.2" type="line"/>
      <point x="430.0" y="331.2" type="line"/>
      <point x="430.0" y="350.6" type="line"/>
      <point x="102.6" y="350.6" type="line"/>
      <point x="102.6" y="680.0" type="line"/>
      <point x="479.6" y="680.0" type="line"/>
      <point x="479.6" y="700.0" type="line"/>
      <point x="82.6" y="700.0" type="line"/>
    </contour>
  </outline>
</glyph>
<glyph name="G" format="2">
  <advance width="607.4000000000001"/>
  <unicode hex="0047"/>
  <anchor x="320.0" y="700.0" name="top"/>
  <anchor x="324.4" y="0.0" name="bottom"/>
  <outline>
    <contour>
      <point x="53.6" y="336.4" type="curve" smooth="yes"/>
      <point x="53.6" y="104.2"/>
      <point x="146.2" y="-10.0"/>
      <point x="323.0" y="-10.0" type="curve" smooth="yes"/>
      <point x="409.8" y="-10.0"/>
      <point x="491.8" y="1.4000000000000004"/>
      <point x="541.6" y="22.0" type="curve"/>
      <point x="541.6" y="327.4" type="line"/>
      <point x="317.4" y="327.4" type="line"/>
      <point x="317.4" y="308.0" type="line"/>
      <point x="521.6" y="308.0" type="line"/>
      <point x="521.6" y="36.0" type="line"/>
      <point x="467.8" y="17.4"/>
      <point x="403.4" y="8.8"/>
      <point x="323.6" y="8.8" type="curve" smooth="yes"/>
      <point x="161.60000000000002" y="8.8"/>
      <point x="73.6" y="117.2"/>
      <point x="73.6" y="336.4" type="curve" smooth="yes"/>
      <point x="73.6" y="574.6"/>
      <point x="165.2" y="690.6"/>
      <point x="332.0" y="690.6" type="curve" smooth="yes"/>
      <point x="395.6" y="690.6"/>
      <point x="454.40000000000003" y="682.6"/>
      <point x="513.8" y="664.2" type="curve"/>
      <point x="518.6" y="682.2" type="line"/>
      <point x="463.0" y="700.6"/>
      <point x="399.20000000000005" y="710.0"/>
      <point x="331.4" y="710.0" type="curve" smooth="yes"/>
      <point x="151.4" y="710.0"/>
      <point x="53.6" y="586.6"/>
    </contour>
  </outline>
</glyph>
<glyph name="H" format="2">
  <advance width="660.4000000000001"/>
  <unicode hex="0048"/>
  <anchor x="330.4" y="700.0" name="top"/>
  <outline>
    <contour>
      <point x="82.6" y="0.0" type="line"/>
      <point x="102.6" y="0.0" type="line"/>
      <point x="102.6" y="290.6" type="line"/>
      <point x="557.8" y="290.6" type="line"/>
      <point x="557.8" y="0.0" type="line"/>
      <point x="577.8" y="0.0" type="line"/>
      <point x="577.8" y="700.0" type="line"/>
      <point x="557.8" y="700.0" type="line"/>
      <point x="557.8" y="310.0" type="line"/>
      <point x="102.6" y="310.0" type="line"/>
      <point x="102.6" y="700.0" type="line"/>
      <point x="82.6" y="700.0" type="line"/>
    </contour>
  </outline>
</glyph>
<glyph name="I" format="2">
  <advance width="185.2"/>
  <unicode hex="0049"/>
  <anchor x="102.6" y="0.0" name="ogonek"/>
  <anchor x="92.6" y="0.0" name="bottom"/>
  <anchor x="92.6" y="700.0" name="top"/>
  <outline>
    <contour>
      <point x="82.6" y="0.0" type="line"/>
      <point x="102.6" y="0.0" type="line"/>
      <point x="102.6" y="700.0" type="line"/>
      <point x="82.6" y="700.0" type="line"/>
    </contour>
  </outline>
</glyph>
<glyph name="J" format="2">
  <advance width="430.8"/>
  <unicode hex="004A"/>
  <anchor x="209.0" y="700.0" name="top"/>
  <outline>
    <contour>
      <point x="14.600000000000001" y="14.2" type="line"/>
      <point x="62.800000000000004" y="-1.5999999999999996"/>
      <point x="124.80000000000001" y="-10.4"/>
      <point x="171.4" y="-10.4" type="curve" smooth="yes"/>
      <point x="305.4" y="-10.4"/>
      <point x="363.20000000000005" y="56.2"/>
      <point x="363.20000000000005" y="178.8" type="curve" smooth="yes"/>
      <point x="363.20000000000005" y="700.0" type="line"/>
      <point x="51.4" y="700.0" type="line"/>
      <point x="51.4" y="680.6" type="line"/>
      <point x="343.20000000000005" y="680.6" type="line"/>
      <point x="343.20000000000005" y="177.0" type="line" smooth="yes"/>
      <point x="343.20000000000005" y="57.0"/>
      <point x="281.4" y="9.0"/>
      <point x="171.4" y="9.0" type="curve" smooth="yes"/>
      <point x="126.0" y="9.0"/>
      <point x="67.4" y="17.2"/>
      <point x="20.0" y="33.0" type="curve"/>
    </contour>
  </outline>
</glyph>
<glyph name="K" format="2">
  <advance width="578"/>
  <unicode hex="004B"/>
  <anchor x="289" y="700" name="top"/>
  <anchor x="283" y="0" name="bottom"/>
  <outline>
    <contour>
      <point x="556" y="-10" type="curve" smooth="yes"/>
      <point x="559" y="-10"/>
      <point x="565" y="-10"/>
      <point x="571" y="-8" type="curve"/>
      <point x="571" y="12" type="line"/>
      <point x="567" y="11"/>
      <point x="563" y="11"/>
      <point x="560" y="11" type="curve" smooth="yes"/>
      <point x="517" y="12"/>
      <point x="486" y="32"/>
      <point x="395" y="126" type="curve" smooth="yes"/>
      <point x="103" y="428" type="line"/>
      <point x="103" y="700" type="line"/>
      <point x="83" y="700" type="line"/>
      <point x="83" y="0" type="line"/>
      <point x="103" y="0" type="line"/>
      <point x="103" y="397" type="line"/>
      <point x="378" y="112" type="line" smooth="yes"/>
      <point x="463" y="24"/>
      <point x="505" y="-10"/>
    </contour>
    <contour>
      <point x="202" y="309" type="line"/>
      <point x="303" y="381"/>
      <point x="461" y="510"/>
      <point x="537" y="696" type="curve"/>
      <point x="519" y="704" type="line"/>
      <point x="443" y="520"/>
      <point x="288" y="397"/>
      <point x="190" y="325" type="curve"/>
    </contour>
  </outline>
</glyph>
<glyph name="L" format="2">
  <advance width="472.40000000000003"/>
  <unicode hex="004C"/>
  <anchor x="236.4" y="350.0" name="center"/>
  <anchor x="92.6" y="700.0" name="top"/>
  <anchor x="310.4" y="700.0" name="topright"/>
  <anchor x="266.0" y="0.0" name="bottom"/>
  <outline>
    <contour>
      <point x="82.6" y="0.0" type="line"/>
      <point x="458.4" y="0.0" type="line"/>
      <point x="458.4" y="19.4" type="line"/>
      <point x="102.6" y="19.4" type="line"/>
      <point x="102.6" y="700.0" type="line"/>
      <point x="82.6" y="700.0" type="line"/>
    </contour>
  </outline>
</glyph>
<glyph name="M" format="2">
  <advance width="737"/>
  <unicode hex="004D"/>
  <outline>
    <contour>
      <point x="83" y="0" type="line"/>
      <point x="103" y="0" type="line"/>
      <point x="103" y="664" type="line"/>
      <point x="362" y="283" type="line"/>
      <point x="374" y="283" type="line"/>
      <point x="634" y="665" type="line"/>
      <point x="634" y="0" type="line"/>
      <point x="654" y="0" type="line"/>
      <point x="654" y="700" type="line"/>
      <point x="634" y="700" type="line"/>
      <point x="369" y="308" type="line"/>
      <point x="103" y="700" type="line"/>
      <point x="83" y="700" type="line"/>
    </contour>
  </outline>
</glyph>
<glyph name="N" format="2">
  <advance width="658"/>
  <unicode hex="004E"/>
  <anchor x="329" y="700" name="top"/>
  <anchor x="329" y="0" name="bottom"/>
  <outline>
    <contour>
      <point x="83" y="0" type="line"/>
      <point x="103" y="0" type="line"/>
      <point x="103" y="666" type="line"/>
      <point x="555" y="0" type="line"/>
      <point x="575" y="0" type="line"/>
      <point x="575" y="700" type="line"/>
      <point x="555" y="700" type="line"/>
      <point x="555" y="36" type="line"/>
      <point x="102" y="704" type="line"/>
      <point x="83" y="704" type="line"/>
    </contour>
  </outline>
</glyph>
<glyph name="O" format="2">
  <advance width="683"/>
  <unicode hex="004F"/>
  <anchor x="377" y="0" name="ogonek"/>
  <anchor x="340" y="700" name="top"/>
  <anchor x="493" y="677" name="topright"/>
  <anchor x="340" y="0" name="bottom"/>
  <outline>
    <contour>
      <point x="340" y="9" type="curve" smooth="yes"/>
      <point x="207" y="9"/>
      <point x="74" y="77"/>
      <point x="74" y="349" type="curve" smooth="yes"/>
      <point x="74" y="628"/>
      <point x="207" y="691"/>
      <point x="340" y="691" type="curve" smooth="yes"/>
      <point x="474" y="691"/>
      <point x="608" y="629"/>
      <point x="608" y="349" type="curve" smooth="yes"/>
      <point x="608" y="71"/>
      <point x="474" y="9"/>
    </contour>
    <contour>
      <point x="340" y="-10" type="curve" smooth="yes"/>
      <point x="490" y="-10"/>
      <point x="629" y="56"/>
      <point x="629" y="351" type="curve" smooth="yes"/>
      <point x="629" y="644"/>
      <point x="485" y="710"/>
      <point x="340" y="710" type="curve" smooth="yes"/>
      <point x="194" y="710"/>
      <point x="54" y="643"/>
      <point x="54" y="349" type="curve" smooth="yes"/>
      <point x="54" y="63"/>
      <point x="194" y="-10"/>
    </contour>
  </outline>
</glyph>
<glyph name="P" format="2">
  <advance width="564.0"/>
  <unicode hex="0050"/>
  <outline>
    <contour>
      <point x="82.6" y="0.0" type="line"/>
      <point x="102.6" y="0.0" type="line"/>
      <point x="102.6" y="277.0" type="line"/>
      <point x="173.4" y="274.8"/>
      <point x="216.4" y="274.4"/>
      <point x="276.4" y="274.4" type="curve" smooth="yes"/>
      <point x="453.6" y="274.4"/>
      <point x="527.2" y="332.0"/>
      <point x="527.2" y="500.4" type="curve" smooth="yes"/>
      <point x="527.2" y="654.6"/>
      <point x="475.6" y="710.0"/>
      <point x="268.20000000000005" y="710.0" type="curve" smooth="yes"/>
      <point x="231.20000000000002" y="710.0"/>
      <point x="185.8" y="708.0"/>
      <point x="82.6" y="702.4" type="curve"/>
    </contour>
    <contour>
      <point x="102.6" y="684.8" type="line"/>
      <point x="194.60000000000002" y="689.8"/>
      <point x="234.0" y="691.2"/>
      <point x="268.8" y="691.2" type="curve" smooth="yes"/>
      <point x="461.40000000000003" y="691.2"/>
      <point x="507.2" y="637.0"/>
      <point x="507.2" y="498.6" type="curve" smooth="yes"/>
      <point x="507.2" y="349.6"/>
      <point x="448.8" y="294.4"/>
      <point x="277.0" y="294.4" type="curve" smooth="yes"/>
      <point x="209.0" y="294.4"/>
      <point x="171.60000000000002" y="295.6"/>
      <point x="102.6" y="297.4" type="curve"/>
    </contour>
  </outline>
</glyph>
<glyph name="Q" format="2">
  <advance width="683"/>
  <unicode hex="0051"/>
  <outline>
    <contour>
      <point x="368" y="2" type="curve"/>
      <point x="348" y="-1" type="line"/>
      <point x="384" y="-143"/>
      <point x="425" y="-209"/>
      <point x="499" y="-209" type="curve" smooth="yes"/>
      <point x="524" y="-209"/>
      <point x="554" y="-202"/>
      <point x="588" y="-187" type="curve"/>
      <point x="581" y="-170" type="line"/>
      <point x="551" y="-184"/>
      <point x="524" y="-190"/>
      <point x="501" y="-190" type="curve" smooth="yes"/>
      <point x="437" y="-190"/>
      <point x="401" y="-133"/>
    </contour>
    <component base="O"/>
  </outline>
</glyph>
<glyph name="R" format="2">
  <advance width="612"/>
  <unicode hex="0052"/>
  <anchor x="283" y="700" name="top"/>
  <anchor x="299" y="0" name="bottom"/>
  <outline>
    <contour>
      <point x="596" y="-10" type="curve" smooth="yes"/>
      <point x="601" y="-10"/>
      <point x="607" y="-8"/>
      <point x="611" y="-7" type="curve"/>
      <point x="609" y="12" type="line"/>
      <point x="605" y="11"/>
      <point x="596" y="10"/>
      <point x="594" y="10" type="curve" smooth="yes"/>
      <point x="543" y="10"/>
      <point x="459" y="77"/>
      <point x="350" y="312" type="curve"/>
      <point x="463" y="326"/>
      <point x="519" y="385"/>
      <point x="519" y="515" type="curve" smooth="yes"/>
      <point x="519" y="666"/>
      <point x="447" y="710"/>
      <point x="255" y="710" type="curve" smooth="yes"/>
      <point x="189" y="710"/>
      <point x="148" y="708"/>
      <point x="83" y="703" type="curve"/>
      <point x="83" y="0" type="line"/>
      <point x="103" y="0" type="line"/>
      <point x="103" y="308" type="line"/>
      <point x="161" y="306"/>
      <point x="217" y="305"/>
      <point x="272" y="305" type="curve" smooth="yes"/>
      <point x="292" y="305"/>
      <point x="311" y="306"/>
      <point x="331" y="307" type="curve"/>
      <point x="443" y="64"/>
      <point x="529" y="-10"/>
    </contour>
    <contour>
      <point x="273" y="325" type="curve" smooth="yes"/>
      <point x="218" y="325"/>
      <point x="163" y="326"/>
      <point x="103" y="328" type="curve"/>
      <point x="103" y="686" type="line"/>
      <point x="163" y="690"/>
      <point x="193" y="691"/>
      <point x="256" y="691" type="curve" smooth="yes"/>
      <point x="440" y="691"/>
      <point x="499" y="646"/>
      <point x="499" y="514" type="curve" smooth="yes"/>
      <point x="499" y="374"/>
      <point x="436" y="325"/>
    </contour>
  </outline>
</glyph>
<glyph name="T" format="2">
  <advance width="474.8"/>
  <unicode hex="0054"/>
  <anchor x="237.4" y="700.0" name="top"/>
  <anchor x="237.4" y="0.0" name="bottom"/>
  <outline>
    <contour>
      <point x="469.4" y="681.0" type="line"/>
      <point x="469.4" y="700.0" type="line"/>
      <point x="5.4" y="700.0" type="line"/>
      <point x="5.4" y="681.0" type="line"/>
      <point x="227.4" y="681.0" type="line"/>
      <point x="227.4" y="0.0" type="line"/>
      <point x="247.4" y="0.0" type="line"/>
      <point x="247.4" y="681.0" type="line"/>
    </contour>
  </outline>
</glyph>
<glyph name="U" format="2">
  <advance width="630.2"/>
  <unicode hex="0055"/>
  <anchor x="355.20000000000005" y="0.0" name="ogonek"/>
  <anchor x="315.4" y="700.0" name="top"/>
  <anchor x="562.6" y="700.0" name="topright"/>
  <anchor x="315.4" y="0.0" name="bottom"/>
  <outline>
    <contour>
      <point x="67.6" y="198.4" type="line"/>
      <point x="67.6" y="26.4"/>
      <point x="199.4" y="-10.0"/>
      <point x="315.4" y="-10.0" type="curve" smooth="yes"/>
      <point x="431.4" y="-10.0"/>
      <point x="562.6" y="26.4"/>
      <point x="562.6" y="198.4" type="curve" smooth="yes"/>
      <point x="562.6" y="700.0" type="line"/>
      <point x="542.6" y="700.0" type="line"/>
      <point x="542.6" y="198.4" type="line" smooth="yes"/>
      <point x="542.6" y="40.6"/>
      <point x="421.4" y="10.0"/>
      <point x="315.4" y="10.0" type="curve" smooth="yes"/>
      <point x="209.4" y="10.0"/>
      <point x="87.6" y="40.6"/>
      <point x="87.6" y="198.4" type="curve" smooth="yes"/>
      <point x="87.6" y="700.0" type="line"/>
      <point x="67.6" y="700.0" type="line"/>
    </contour>
  </outline>
</glyph>
<glyph name="V" format="2">
  <advance width="550"/>
  <unicode hex="0056"/>
  <outline>
    <contour>
      <point x="266" y="0" type="line"/>
      <point x="284" y="0" type="line"/>
      <point x="538" y="697" type="line"/>
      <point x="521" y="704" type="line"/>
      <point x="275" y="35" type="line"/>
      <point x="29" y="704" type="line"/>
      <point x="12" y="697" type="line"/>
    </contour>
  </outline>
</glyph>
<glyph name="W" format="2">
  <advance width="769"/>
  <unicode hex="0057"/>
  <anchor x="384" y="700" name="top"/>
  <anchor x="384" y="0" name="bottom"/>
  <outline>
    <contour>
      <point x="592" y="0" type="line"/>
      <point x="758" y="698" type="line"/>
      <point x="739" y="703" type="line"/>
      <point x="581" y="38" type="line"/>
      <point x="396" y="685" type="line"/>
      <point x="373" y="685" type="line"/>
      <point x="188" y="38" type="line"/>
      <point x="30" y="703" type="line"/>
      <point x="11" y="698" type="line"/>
      <point x="177" y="0" type="line"/>
      <point x="196" y="0" type="line"/>
      <point x="384" y="651" type="line"/>
      <point x="572" y="0" type="line"/>
    </contour>
  </outline>
</glyph>
<glyph name="X" format="2">
  <advance width="558"/>
  <unicode hex="0058"/>
  <outline>
    <contour>
      <point x="25" y="4" type="line"/>
      <point x="41" y="-6" type="line"/>
      <point x="278" y="344" type="line"/>
      <point x="518" y="-6" type="line"/>
      <point x="533" y="4" type="line"/>
      <point x="291" y="362" type="line"/>
      <point x="518" y="695" type="line"/>
      <point x="503" y="705" type="line"/>
      <point x="280" y="377" type="line"/>
      <point x="55" y="705" type="line"/>
      <point x="40" y="695" type="line"/>
      <point x="268" y="359" type="line"/>
    </contour>
  </outline>
</glyph>
<glyph name="Y" format="2">
  <advance width="534.8"/>
  <unicode hex="0059"/>
  <anchor x="268.0" y="700.0" name="top"/>
  <anchor x="270.20000000000005" y="0.0" name="bottom"/>
  <outline>
    <contour>
      <point x="260.8" y="0.0" type="line"/>
      <point x="280.8" y="0.0" type="line"/>
      <point x="280.8" y="314.2" type="line"/>
      <point x="521.4000000000001" y="695.0" type="line"/>
      <point x="505.8" y="705.0" type="line"/>
      <point x="270.8" y="338.8" type="line"/>
      <point x="26.6" y="705.0" type="line"/>
      <point x="11.0" y="695.0" type="line"/>
      <point x="260.8" y="314.2" type="line"/>
    </contour>
  </outline>
</glyph>
<glyph name="Z" format="2">
  <advance width="526.4000000000001"/>
  <unicode hex="005A"/>
  <anchor x="266.8" y="350.0" name="center"/>
  <anchor x="266.8" y="0.0" name="bottom"/>
  <anchor x="267.4" y="700.0" name="top"/>
  <outline>
    <contour>
      <point x="27.0" y="0.0" type="line"/>
      <point x="506.8" y="0.0" type="line"/>
      <point x="506.8" y="19.4" type="line"/>
      <point x="55.8" y="19.4" type="line"/>
      <point x="55.8" y="21.4" type="line"/>
      <point x="479.6" y="685.0" type="line"/>
      <point x="479.6" y="700.0" type="line"/>
      <point x="53.8" y="700.0" type="line"/>
      <point x="53.8" y="680.6" type="line"/>
      <point x="450.8" y="680.6" type="line"/>
      <point x="450.8" y="678.6" type="line"/>
      <point x="27.0" y="15.0" type="line"/>
    </contour>
  </outline>
</glyph>
<glyph name="bracketleft" format="2">
  <advance width="289.0"/>
  <unicode hex="005B"/>
  <outline>
    <contour>
      <point x="109.6" y="-190.0" type="line"/>
      <point x="109.6" y="720.0" type="line"/>
      <point x="267.0" y="720.0" type="line"/>
      <point x="267.0" y="740.0" type="line"/>
      <point x="89.6" y="740.0" type="line"/>
      <point x="89.6" y="-210.0" type="line"/>
      <point x="267.0" y="-210.0" type="line"/>
      <point x="267.0" y="-190.0" type="line"/>
    </contour>
  </outline>
</glyph>
<glyph name="backslash" format="2">
  <advance width="290.8"/>
  <unicode hex="005C"/>
  <outline>
    <contour>
      <point x="25.4" y="740.0" type="line"/>
      <point x="5.2" y="740.0" type="line"/>
      <point x="265.4" y="-210.0" type="line"/>
      <point x="285.6" y="-210.0" type="line"/>
    </contour>
  </outline>
</glyph>
<glyph name="asciicircum" format="2">
  <advance width="446.0"/>
  <unicode hex="005E"/>
  <outline>
    <contour>
      <point x="43.4" y="277.8" type="line"/>
      <point x="65.2" y="277.8" type="line"/>
      <point x="223.0" y="687.2" type="line"/>
      <point x="380.8" y="277.8" type="line"/>
      <point x="402.6" y="277.8" type="line"/>
      <point x="233.0" y="710.0" type="line"/>
      <point x="213.0" y="710.0" type="line"/>
    </contour>
  </outline>
</glyph>
<glyph name="underscore" format="2">
  <advance width="764.8"/>
  <unicode hex="005F"/>
  <outline>
    <contour>
      <point x="0.0" y="-136.0" type="line"/>
      <point x="764.8" y="-136.0" type="line"/>
      <point x="764.8" y="-116.0" type="line"/>
      <point x="0.0" y="-116.0" type="line"/>
    </contour>
  </outline>
</glyph>
<glyph name="a" format="2">
  <advance width="473"/>
  <unicode hex="0061"/>
  <anchor x="468" y="-1" name="ogonek"/>
  <anchor x="229" y="0" name="bottom"/>
  <anchor x="231" y="530" name="top"/>
  <outline>
    <contour>
      <point x="37" y="112" type="curve" smooth="yes"/>
      <point x="37" y="30"/>
      <point x="85" y="-10"/>
      <point x="159" y="-10" type="curve" smooth="yes"/>
      <point x="246" y="-10"/>
      <point x="318" y="34"/>
      <point x="365" y="76" type="curve"/>
      <point x="365" y="17"/>
      <point x="388" y="-10"/>
      <point x="429" y="-10" type="curve" smooth="yes"/>
      <point x="441" y="-10"/>
      <point x="453" y="-8"/>
      <point x="468" y="-1" type="curve"/>
      <point x="462" y="16" type="line"/>
      <point x="450" y="11"/>
      <point x="440" y="9"/>
      <point x="430" y="9" type="curve" smooth="yes"/>
      <point x="402" y="9"/>
      <point x="386" y="25"/>
      <point x="386" y="78" type="curve" smooth="yes"/>
      <point x="386" y="394" type="line" smooth="yes"/>
      <point x="386" y="493"/>
      <point x="325" y="540"/>
      <point x="225" y="540" type="curve" smooth="yes"/>
      <point x="180" y="540"/>
      <point x="128" y="532"/>
      <point x="74" y="516" type="curve"/>
      <point x="80" y="497" type="line"/>
      <point x="136" y="514"/>
      <point x="185" y="520"/>
      <point x="226" y="520" type="curve" smooth="yes"/>
      <point x="321" y="520"/>
      <point x="367" y="474"/>
      <point x="367" y="394" type="curve" smooth="yes"/>
      <point x="367" y="285" type="line"/>
      <point x="157" y="263"/>
      <point x="37" y="239"/>
    </contour>
    <contour>
      <point x="57" y="117" type="curve" smooth="yes"/>
      <point x="57" y="227"/>
      <point x="189" y="251"/>
      <point x="367" y="266" type="curve"/>
      <point x="367" y="99" type="line"/>
      <point x="309" y="48"/>
      <point x="234" y="9"/>
      <point x="160" y="9" type="curve" smooth="yes"/>
      <point x="97" y="9"/>
      <point x="57" y="46"/>
    </contour>
  </outline>
</glyph>
<glyph name="b" format="2">
  <advance width="498.0"/>
  <unicode hex="0062"/>
  <outline>
    <contour>
      <point x="76.0" y="10.8" type="line"/>
      <point x="136.8" y="-3.5999999999999996"/>
      <point x="182.60000000000002" y="-10.0"/>
      <point x="225.60000000000002" y="-10.0" type="curve" smooth="yes"/>
      <point x="379.6" y="-10.0"/>
      <point x="451.0" y="76.2"/>
      <point x="451.0" y="279.6" type="curve" smooth="yes"/>
      <point x="451.0" y="445.4"/>
      <point x="386.8" y="540.0"/>
      <point x="276.8" y="540.0" type="curve" smooth="yes"/>
      <point x="217.4" y="540.0"/>
      <point x="160.0" y="519.8"/>
      <point x="96.0" y="475.6" type="curve"/>
      <point x="96.0" y="740.0" type="line"/>
      <point x="76.0" y="740.0" type="line"/>
    </contour>
    <contour>
      <point x="96.0" y="23.8" type="curve"/>
      <point x="96.0" y="454.8" type="line"/>
      <point x="165.8" y="503.0"/>
      <point x="214.4" y="521.2"/>
      <point x="273.8" y="521.2" type="curve" smooth="yes"/>
      <point x="372.20000000000005" y="521.2"/>
      <point x="431.0" y="433.0"/>
      <point x="431.0" y="279.6" type="curve" smooth="yes"/>
      <point x="431.0" y="84.8"/>
      <point x="366.4" y="7.8"/>
      <point x="222.60000000000002" y="7.8" type="curve" smooth="yes"/>
      <point x="188.2" y="7.8"/>
      <point x="148.8" y="12.6"/>
    </contour>
  </outline>
</glyph>
<glyph name="c" format="2">
  <advance width="452.20000000000005"/>
  <unicode hex="0063"/>
  <anchor x="264.20000000000005" y="530.0" name="top"/>
  <anchor x="264.8" y="0.0" name="bottom"/>
  <outline>
    <contour>
      <point x="47.0" y="256.4" type="curve" smooth="yes"/>
      <point x="47.0" y="73.8"/>
      <point x="123.2" y="-10.0"/>
      <point x="268.8" y="-10.0" type="curve" smooth="yes"/>
      <point x="319.0" y="-10.0"/>
      <point x="380.6" y="-1.0"/>
      <point x="423.6" y="10.4" type="curve"/>
      <point x="419.6" y="29.200000000000003" type="line"/>
      <point x="376.0" y="18.4"/>
      <point x="314.6" y="9.4"/>
      <point x="270.4" y="9.4" type="curve" smooth="yes"/>
      <point x="139.2" y="9.4"/>
      <point x="67.0" y="87.0"/>
      <point x="67.0" y="252.8" type="curve" smooth="yes"/>
      <point x="67.0" y="436.0"/>
      <point x="142.2" y="520.6"/>
      <point x="272.0" y="520.6" type="curve" smooth="yes"/>
      <point x="314.6" y="520.6"/>
      <point x="369.4" y="513.0"/>
      <point x="411.0" y="502.2" type="curve"/>
      <point x="415.0" y="521.0" type="line"/>
      <point x="372.8" y="532.4"/>
      <point x="315.8" y="540.0"/>
      <point x="273.8" y="540.0" type="curve" smooth="yes"/>
      <point x="129.0" y="540.0"/>
      <point x="47.0" y="451.6"/>
    </contour>
  </outline>
</glyph>
<glyph name="d" format="2">
  <advance width="498.0"/>
  <unicode hex="0064"/>
  <anchor x="249.2" y="275.0" name="center"/>
  <anchor x="250.4" y="740.0" name="top"/>
  <anchor x="511.0" y="740.0" name="topright"/>
  <anchor x="249.2" y="0.0" name="bottom"/>
  <outline>
    <contour>
      <point x="407.20000000000005" y="0.0" type="line"/>
      <point x="422.0" y="0.0" type="line"/>
      <point x="422.0" y="740.0" type="line"/>
      <point x="402.0" y="740.0" type="line"/>
      <point x="402.0" y="524.8" type="line"/>
      <point x="357.0" y="535.2"/>
      <point x="312.20000000000005" y="540.0"/>
      <point x="272.4" y="540.0" type="curve" smooth="yes"/>
      <point x="118.4" y="540.0"/>
      <point x="47.0" y="453.8"/>
      <point x="47.0" y="250.4" type="curve" smooth="yes"/>
      <point x="47.0" y="82.8"/>
      <point x="111.80000000000001" y="-10.0"/>
      <point x="223.60000000000002" y="-10.0" type="curve" smooth="yes"/>
      <point x="283.0" y="-10.0"/>
      <point x="337.4" y="9.0"/>
      <point x="402.0" y="54.0" type="curve"/>
    </contour>
    <contour>
      <point x="402.0" y="75.2" type="line"/>
      <point x="332.20000000000005" y="27.0"/>
      <point x="283.6" y="8.8"/>
      <point x="223.60000000000002" y="8.8" type="curve" smooth="yes"/>
      <point x="125.80000000000001" y="8.8"/>
      <point x="67.0" y="96.0"/>
      <point x="67.0" y="250.4" type="curve" smooth="yes"/>
      <point x="67.0" y="445.2"/>
      <point x="131.6" y="522.2"/>
      <point x="275.4" y="522.2" type="curve" smooth="yes"/>
      <point x="309.8" y="522.2"/>
      <point x="349.8" y="517.4"/>
      <point x="402.0" y="506.2" type="curve"/>
    </contour>
  </outline>
</glyph>
<glyph name="e" format="2">
  <advance width="488.20000000000005"/>
  <unicode hex="0065"/>
  <anchor x="408.6" y="9.200000000000001" name="ogonek"/>
  <anchor x="262.0" y="0.0" name="bottom"/>
  <anchor x="259.6" y="530.0" name="top"/>
  <outline>
    <contour>
      <point x="250.4" y="-10.0" type="curve" smooth="yes"/>
      <point x="323.8" y="-10.0"/>
      <point x="395.4" y="3.4000000000000004"/>
      <point x="439.0" y="16.4" type="curve"/>
      <point x="434.4" y="35.2" type="line"/>
      <point x="391.4" y="22.6"/>
      <point x="320.8" y="9.4"/>
      <point x="251.0" y="9.4" type="curve" smooth="yes"/>
      <point x="137.4" y="9.4"/>
      <point x="67.0" y="74.0"/>
      <point x="67.0" y="258.6" type="curve" smooth="yes"/>
      <point x="67.0" y="268.0"/>
      <point x="67.4" y="277.6"/>
      <point x="67.8" y="286.6" type="curve"/>
      <point x="256.0" y="286.6"/>
      <point x="401.8" y="299.6"/>
      <point x="447.8" y="304.4" type="curve"/>
      <point x="448.20000000000005" y="308.6"/>
      <point x="448.8" y="319.4"/>
      <point x="448.8" y="325.0" type="curve" smooth="yes"/>
      <point x="448.8" y="476.4"/>
      <point x="388.20000000000005" y="540.0"/>
      <point x="271.0" y="540.0" type="curve" smooth="yes"/>
      <point x="148.8" y="540.0"/>
      <point x="47.0" y="471.6"/>
      <point x="47.0" y="249.6" type="curve" smooth="yes"/>
      <point x="47.0" y="64.2"/>
      <point x="122.60000000000001" y="-10.0"/>
    </contour>
    <contour>
      <point x="69.0" y="305.4" type="curve"/>
      <point x="86.0" y="478.0"/>
      <point x="184.4" y="521.2"/>
      <point x="271.0" y="521.2" type="curve" smooth="yes"/>
      <point x="378.4" y="521.2"/>
      <point x="428.4" y="462.8"/>
      <point x="428.4" y="321.2" type="curve"/>
      <point x="396.6" y="316.4"/>
      <point x="242.4" y="305.4"/>
    </contour>
  </outline>
</glyph>
<glyph name="f" format="2">
  <advance width="330.8"/>
  <unicode hex="0066"/>
  <outline>
    <contour>
      <point x="116.6" y="0.0" type="line"/>
      <point x="136.6" y="0.0" type="line"/>
      <point x="136.6" y="464.6" type="line"/>
      <point x="321.4" y="464.6" type="line"/>
      <point x="321.4" y="484.0" type="line"/>
      <point x="136.6" y="484.0" type="line"/>
      <point x="136.6" y="508.6" type="line" smooth="yes"/>
      <point x="136.6" y="667.4"/>
      <point x="184.60000000000002" y="731.0"/>
      <point x="280.8" y="731.0" type="curve" smooth="yes"/>
      <point x="315.8" y="731.0"/>
      <point x="347.6" y="725.6"/>
      <point x="387.8" y="713.8" type="curve"/>
      <point x="392.20000000000005" y="732.6" type="line"/>
      <point x="347.6" y="745.6"/>
      <point x="315.4" y="750.4"/>
      <point x="279.2" y="750.4" type="curve" smooth="yes"/>
      <point x="174.8" y="750.4"/>
      <point x="116.6" y="682.4"/>
      <point x="116.6" y="508.6" type="curve" smooth="yes"/>
      <point x="116.6" y="484.0" type="line"/>
      <point x="24.6" y="478.4" type="line"/>
      <point x="24.6" y="464.6" type="line"/>
      <point x="116.6" y="464.6" type="line"/>
    </contour>
  </outline>
</glyph>
<glyph name="g" format="2">
  <advance width="506.8"/>
  <unicode hex="0067"/>
  <anchor x="260.6" y="530.0" name="top"/>
  <anchor x="254.8" y="-214.0" name="bottom"/>
  <outline>
    <contour>
      <point x="256.6" y="-220.0" type="curve" smooth="yes"/>
      <point x="407.20000000000005" y="-220.0"/>
      <point x="492.6" y="-160.8"/>
      <point x="492.6" y="-63.2" type="curve" smooth="yes"/>
      <point x="492.6" y="20.0"/>
      <point x="445.4" y="60.8"/>
      <point x="351.8" y="60.8" type="curve" smooth="yes"/>
      <point x="189.8" y="60.8" type="line" smooth="yes"/>
      <point x="114.2" y="60.8"/>
      <point x="81.6" y="90.6"/>
      <point x="81.6" y="137.0" type="curve" smooth="yes"/>
      <point x="81.6" y="177.6"/>
      <point x="105.0" y="210.8"/>
      <point x="145.8" y="235.0" type="curve"/>
      <point x="131.6" y="244.2" type="line"/>
      <point x="84.0" y="215.4"/>
      <point x="62.2" y="179.0"/>
      <point x="62.2" y="134.8" type="curve" smooth="yes"/>
      <point x="62.2" y="76.4"/>
      <point x="101.2" y="41.4"/>
      <point x="188.60000000000002" y="41.4" type="curve" smooth="yes"/>
      <point x="352.4" y="41.4" type="line" smooth="yes"/>
      <point x="429.8" y="41.4"/>
      <point x="472.6" y="4.800000000000001"/>
      <point x="472.6" y="-62.4" type="curve" smooth="yes"/>
      <point x="472.6" y="-150.4"/>
      <point x="396.6" y="-200.6"/>
      <point x="256.6" y="-200.6" type="curve" smooth="yes"/>
      <point x="122.80000000000001" y="-200.6"/>
      <point x="51.4" y="-159.0"/>
      <point x="51.4" y="-69.2" type="curve" smooth="yes"/>
      <point x="51.4" y="-16.799999999999997"/>
      <point x="73.6" y="28.200000000000003"/>
      <point x="141.6" y="55.4" type="curve"/>
      <point x="121.2" y="62.0" type="line"/>
      <point x="53.8" y="33.2"/>
      <point x="31.4" y="-14.799999999999999"/>
      <point x="31.4" y="-69.6" type="curve" smooth="yes"/>
      <point x="31.4" y="-172.0"/>
      <point x="108.0" y="-220.0"/>
    </contour>
    <contour>
      <point x="255.60000000000002" y="210.2" type="curve" smooth="yes"/>
      <point x="378.6" y="210.2"/>
      <point x="436.8" y="264.2"/>
      <point x="436.8" y="375.0" type="curve" smooth="yes"/>
      <point x="436.8" y="485.8"/>
      <point x="378.6" y="540.0"/>
      <point x="255.60000000000002" y="540.0" type="curve" smooth="yes"/>
      <point x="132.6" y="540.0"/>
      <point x="74.4" y="485.8"/>
      <point x="74.4" y="375.0" type="curve" smooth="yes"/>
      <point x="74.4" y="264.2"/>
      <point x="132.6" y="210.2"/>
    </contour>
    <contour>
      <point x="255.60000000000002" y="229.2" type="curve" smooth="yes"/>
      <point x="144.6" y="229.2"/>
      <point x="94.4" y="274.6"/>
      <point x="94.4" y="375.0" type="curve" smooth="yes"/>
      <point x="94.4" y="476.0"/>
      <point x="144.6" y="521.0"/>
      <point x="255.60000000000002" y="521.0" type="curve" smooth="yes"/>
      <point x="366.6" y="521.0"/>
      <point x="416.8" y="476.0"/>
      <point x="416.8" y="375.0" type="curve" smooth="yes"/>
      <point x="416.8" y="274.6"/>
      <point x="366.6" y="229.2"/>
    </contour>
    <contour>
      <point x="376.4" y="489.4" type="line"/>
      <point x="393.4" y="524.8"/>
      <point x="420.4" y="540.2"/>
      <point x="459.20000000000005" y="540.2" type="curve" smooth="yes"/>
      <point x="470.20000000000005" y="540.2"/>
      <point x="477.6" y="539.8"/>
      <point x="487.0" y="538.0" type="curve"/>
      <point x="488.4" y="558.0" type="line"/>
      <point x="476.20000000000005" y="559.8"/>
      <point x="470.0" y="560.2"/>
      <point x="459.20000000000005" y="560.2" type="curve" smooth="yes"/>
      <point x="413.20000000000005" y="560.2"/>
      <point x="378.0" y="539.8"/>
      <point x="363.6" y="503.0" type="curve"/>
    </contour>
  </outline>
</glyph>
<glyph name="i" format="2">
  <advance width="172.0"/>
  <unicode hex="0069"/>
  <anchor x="95.6" y="0.0" name="ogonek"/>
  <anchor x="86.0" y="0.0" name="bottom"/>
  <outline>
    <contour>
      <point x="86.0" y="677.0" type="curve" smooth="yes"/>
      <point x="100.80000000000001" y="677.0"/>
      <point x="101.2" y="678.0"/>
      <point x="101.2" y="694.0" type="curve" smooth="yes"/>
      <point x="101.2" y="710.0"/>
      <point x="100.80000000000001" y="711.0"/>
      <point x="86.0" y="711.0" type="curve" smooth="yes"/>
      <point x="71.2" y="711.0"/>
      <point x="70.8" y="710.0"/>
      <point x="70.8" y="694.0" type="curve" smooth="yes"/>
      <point x="70.8" y="678.0"/>
      <point x="72.2" y="677.0"/>
    </contour>
    <contour>
      <point x="76.0" y="0.0" type="line"/>
      <point x="96.0" y="0.0" type="line"/>
      <point x="96.0" y="530.0" type="line"/>
      <point x="76.0" y="530.0" type="line"/>
    </contour>
  </outline>
</glyph>
<glyph name="j" format="2">
  <advance width="172.2"/>
  <unicode hex="006A"/>
  <outline>
    <contour>
      <point x="96.6" y="530.0" type="line"/>
      <point x="76.6" y="530.0" type="line"/>
      <point x="76.6" y="14.0" type="line" smooth="yes"/>
      <point x="76.6" y="-82.8"/>
      <point x="54.400000000000006" y="-144.8"/>
      <point x="12.8" y="-176.8" type="curve" smooth="yes"/>
      <point x="5.800000000000001" y="-182.2"/>
      <point x="-1.1999999999999993" y="-186.6"/>
      <point x="-9.2" y="-190.0" type="curve"/>
      <point x="0.1999999999999993" y="-207.8" type="line"/>
      <point x="9.8" y="-203.2"/>
      <point x="18.8" y="-197.2"/>
      <point x="27.0" y="-191.2" type="curve" smooth="yes"/>
      <point x="72.6" y="-155.0"/>
      <point x="96.6" y="-90.0"/>
      <point x="96.6" y="14.0" type="curve" smooth="yes"/>
    </contour>
    <contour>
      <point x="85.80000000000001" y="677.0" type="curve" smooth="yes"/>
      <point x="100.0" y="677.0"/>
      <point x="101.0" y="678.0"/>
      <point x="101.0" y="694.0" type="curve" smooth="yes"/>
      <point x="101.0" y="710.0"/>
      <point x="100.0" y="711.0"/>
      <point x="85.80000000000001" y="711.0" type="curve" smooth="yes"/>
      <point x="71.0" y="711.0"/>
      <point x="70.6" y="710.0"/>
      <point x="70.6" y="694.0" type="curve" smooth="yes"/>
      <point x="70.6" y="678.0"/>
      <point x="72.0" y="677.0"/>
    </contour>
  </outline>
</glyph>
<glyph name="l" format="2">
  <advance width="221.0"/>
  <unicode hex="006C"/>
  <anchor x="111.0" y="395.0" name="center"/>
  <anchor x="86.0" y="740.0" name="top"/>
  <anchor x="185.0" y="740.0" name="topright"/>
  <anchor x="147.6" y="0.0" name="bottom"/>
  <outline>
    <contour>
      <point x="96.0" y="740.0" type="line"/>
      <point x="76.0" y="740.0" type="line"/>
      <point x="76.0" y="113.0" type="line" smooth="yes"/>
      <point x="76.0" y="10.0"/>
      <point x="113.0" y="-10.0"/>
      <point x="162.8" y="-10.0" type="curve" smooth="yes"/>
      <point x="182.2" y="-10.0"/>
      <point x="203.0" y="-6.0"/>
      <point x="220.60000000000002" y="0.6000000000000001" type="curve"/>
      <point x="216.60000000000002" y="20.0" type="line"/>
      <point x="197.2" y="13.4"/>
      <point x="179.2" y="10.0"/>
      <point x="162.8" y="10.0" type="curve" smooth="yes"/>
      <point x="126.0" y="10.0"/>
      <point x="96.0" y="26.0"/>
      <point x="96.0" y="113.0" type="curve" smooth="yes"/>
    </contour>
  </outline>
</glyph>
<glyph name="m" format="2">
  <advance width="788.0"/>
  <unicode hex="006D"/>
  <outline>
    <contour>
      <point x="76.0" y="0.0" type="line"/>
      <point x="96.0" y="0.0" type="line"/>
      <point x="96.0" y="461.6" type="line"/>
      <point x="153.2" y="496.2"/>
      <point x="205.4" y="519.2"/>
      <point x="269.8" y="519.2" type="curve" smooth="yes"/>
      <point x="366.6" y="519.2"/>
      <point x="385.0" y="450.2"/>
      <point x="385.0" y="398.8" type="curve" smooth="yes"/>
      <point x="385.0" y="0.0" type="line"/>
      <point x="405.0" y="0.0" type="line"/>
      <point x="405.0" y="398.8" type="line" smooth="yes"/>
      <point x="405.0" y="419.2"/>
      <point x="402.4" y="441.2"/>
      <point x="395.0" y="461.8" type="curve"/>
      <point x="437.8" y="489.0"/>
      <point x="500.4" y="521.2"/>
      <point x="575.2" y="521.2" type="curve" smooth="yes"/>
      <point x="673.6" y="521.2"/>
      <point x="692.0" y="451.8"/>
      <point x="692.0" y="400.4" type="curve" smooth="yes"/>
      <point x="692.0" y="0.0" type="line"/>
      <point x="712.0" y="0.0" type="line"/>
      <point x="712.0" y="400.4" type="line" smooth="yes"/>
      <point x="712.0" y="466.8"/>
      <point x="683.8" y="540.0"/>
      <point x="579.4000000000001" y="540.0" type="curve" smooth="yes"/>
      <point x="491.4" y="540.0"/>
      <point x="425.6" y="503.0"/>
      <point x="387.0" y="478.4" type="curve"/>
      <point x="368.6" y="512.6"/>
      <point x="333.8" y="538.0"/>
      <point x="274.0" y="538.0" type="curve" smooth="yes"/>
      <point x="203.4" y="538.0"/>
      <point x="148.4" y="513.0"/>
      <point x="96.0" y="483.2" type="curve"/>
      <point x="96.0" y="530.0" type="line"/>
      <point x="76.0" y="530.0" type="line"/>
    </contour>
  </outline>
</glyph>
<glyph name="n" format="2">
  <advance width="513.8"/>
  <unicode hex="006E"/>
  <anchor x="263.8" y="530.0" name="top"/>
  <anchor x="265.8" y="0.0" name="bottom"/>
  <outline>
    <contour>
      <point x="76.0" y="0.0" type="line"/>
      <point x="96.0" y="0.0" type="line"/>
      <point x="96.0" y="462.0" type="line"/>
      <point x="162.8" y="497.0"/>
      <point x="220.60000000000002" y="521.2"/>
      <point x="292.20000000000005" y="521.2" type="curve" smooth="yes"/>
      <point x="378.6" y="521.2"/>
      <point x="417.8" y="475.4"/>
      <point x="417.8" y="400.8" type="curve" smooth="yes"/>
      <point x="417.8" y="0.0" type="line"/>
      <point x="437.8" y="0.0" type="line"/>
      <point x="437.8" y="400.8" type="line" smooth="yes"/>
      <point x="437.8" y="494.8"/>
      <point x="385.20000000000005" y="540.0"/>
      <point x="296.4" y="540.0" type="curve" smooth="yes"/>
      <point x="220.2" y="540.0"/>
      <point x="161.2" y="515.6"/>
      <point x="96.0" y="483.0" type="curve"/>
      <point x="96.0" y="530.0" type="line"/>
      <point x="76.0" y="530.0" type="line"/>
    </contour>
  </outline>
</glyph>
<glyph name="o" format="2">
  <advance width="516.8"/>
  <unicode hex="006F"/>
  <anchor x="305.4" y="0.0" name="ogonek"/>
  <anchor x="258.4" y="530.0" name="top"/>
  <anchor x="346.4" y="524.0" name="topright"/>
  <anchor x="258.4" y="0.0" name="bottom"/>
  <outline>
    <contour>
      <point x="47.0" y="265.8" type="curve" smooth="yes"/>
      <point x="47.0" y="60.0"/>
      <point x="110.6" y="-10.0"/>
      <point x="258.4" y="-10.0" type="curve" smooth="yes"/>
      <point x="406.20000000000005" y="-10.0"/>
      <point x="469.8" y="60.0"/>
      <point x="469.8" y="265.8" type="curve" smooth="yes"/>
      <point x="469.8" y="466.4"/>
      <point x="413.0" y="540.0"/>
      <point x="258.4" y="540.0" type="curve" smooth="yes"/>
      <point x="103.80000000000001" y="540.0"/>
      <point x="47.0" y="466.4"/>
    </contour>
    <contour>
      <point x="67.0" y="265.8" type="curve" smooth="yes"/>
      <point x="67.0" y="450.4"/>
      <point x="115.80000000000001" y="521.2"/>
      <point x="258.4" y="521.2" type="curve" smooth="yes"/>
      <point x="401.0" y="521.2"/>
      <point x="449.8" y="450.4"/>
      <point x="449.8" y="265.8" type="curve" smooth="yes"/>
      <point x="449.8" y="77.2"/>
      <point x="394.20000000000005" y="8.8"/>
      <point x="258.4" y="8.8" type="curve" smooth="yes"/>
      <point x="122.6" y="8.8"/>
      <point x="67.0" y="77.2"/>
    </contour>
  </outline>
</glyph>
<glyph name="p" format="2">
  <advance width="498.0"/>
  <unicode hex="0070"/>
  <outline>
    <contour>
      <point x="76.0" y="-210.0" type="line"/>
      <point x="96.0" y="-210.0" type="line"/>
      <point x="96.0" y="5.6000000000000005" type="line"/>
      <point x="146.6" y="-5.199999999999999"/>
      <point x="187.60000000000002" y="-10.0"/>
      <point x="225.60000000000002" y="-10.0" type="curve" smooth="yes"/>
      <point x="379.6" y="-10.0"/>
      <point x="451.0" y="76.2"/>
      <point x="451.0" y="279.6" type="curve" smooth="yes"/>
      <point x="451.0" y="445.4"/>
      <point x="386.8" y="540.0"/>
      <point x="276.8" y="540.0" type="curve" smooth="yes"/>
      <point x="217.4" y="540.0"/>
      <point x="160.0" y="519.8"/>
      <point x="96.0" y="475.6" type="curve"/>
      <point x="96.0" y="536.0" type="line"/>
      <point x="76.0" y="536.0" type="line"/>
    </contour>
    <contour>
      <point x="222.60000000000002" y="7.8" type="curve" smooth="yes"/>
      <point x="188.2" y="7.8"/>
      <point x="148.8" y="12.6"/>
      <point x="96.0" y="23.8" type="curve"/>
      <point x="96.0" y="454.8" type="line"/>
      <point x="165.8" y="503.0"/>
      <point x="214.4" y="521.2"/>
      <point x="273.8" y="521.2" type="curve" smooth="yes"/>
      <point x="372.20000000000005" y="521.2"/>
      <point x="431.0" y="433.0"/>
      <point x="431.0" y="279.6" type="curve" smooth="yes"/>
      <point x="431.0" y="84.8"/>
      <point x="366.4" y="7.8"/>
    </contour>
  </outline>
</glyph>
<glyph name="q" format="2">
  <advance width="498.0"/>
  <unicode hex="0071"/>
  <outline>
    <contour>
      <point x="422.0" y="519.8" type="line"/>
      <point x="359.4" y="534.2"/>
      <point x="315.4" y="540.0"/>
      <point x="272.4" y="540.0" type="curve" smooth="yes"/>
      <point x="118.4" y="540.0"/>
      <point x="47.0" y="453.8"/>
      <point x="47.0" y="250.4" type="curve" smooth="yes"/>
      <point x="47.0" y="85.2"/>
      <point x="111.80000000000001" y="-10.0"/>
      <point x="221.2" y="-10.0" type="curve" smooth="yes"/>
      <point x="280.6" y="-10.0"/>
      <point x="338.0" y="10.200000000000001"/>
      <point x="402.0" y="54.400000000000006" type="curve"/>
      <point x="402.0" y="-210.0" type="line"/>
      <point x="422.0" y="-210.0" type="line"/>
    </contour>
    <contour>
      <point x="402.0" y="505.6" type="curve"/>
      <point x="402.0" y="75.2" type="line"/>
      <point x="332.20000000000005" y="27.0"/>
      <point x="283.6" y="8.8"/>
      <point x="224.2" y="8.8" type="curve" smooth="yes"/>
      <point x="126.4" y="8.8"/>
      <point x="67.0" y="98.2"/>
      <point x="67.0" y="250.4" type="curve" smooth="yes"/>
      <point x="67.0" y="445.2"/>
      <point x="131.6" y="522.2"/>
      <point x="275.4" y="522.2" type="curve" smooth="yes"/>
      <point x="309.20000000000005" y="522.2"/>
      <point x="349.20000000000005" y="517.4"/>
    </contour>
  </outline>
</glyph>
<glyph name="r" format="2">
  <advance width="357.6"/>
  <unicode hex="0072"/>
  <anchor x="208.8" y="530.0" name="top"/>
  <anchor x="86.0" y="0.0" name="bottom"/>
  <outline>
    <contour>
      <point x="96.0" y="530.0" type="line"/>
      <point x="76.0" y="530.0" type="line"/>
      <point x="76.0" y="0.0" type="line"/>
      <point x="96.0" y="0.0" type="line"/>
      <point x="96.0" y="433.6" type="line"/>
      <point x="158.8" y="497.0"/>
      <point x="217.2" y="521.2"/>
      <point x="274.2" y="521.2" type="curve" smooth="yes"/>
      <point x="298.6" y="521.2"/>
      <point x="327.0" y="516.8"/>
      <point x="350.4" y="510.4" type="curve"/>
      <point x="355.0" y="528.6" type="line"/>
      <point x="334.20000000000005" y="535.2"/>
      <point x="303.8" y="540.0"/>
      <point x="272.6" y="540.0" type="curve" smooth="yes"/>
      <point x="213.0" y="540.0"/>
      <point x="155.4" y="515.8"/>
      <point x="96.0" y="461.4" type="curve"/>
    </contour>
  </outline>
</glyph>
<glyph name="s" format="2">
  <advance width="428"/>
  <unicode hex="0073"/>
  <anchor x="211" y="530" name="top"/>
  <anchor x="212" y="0" name="bottom"/>
  <outline>
    <contour>
      <point x="25" y="22" type="line"/>
      <point x="66" y="2"/>
      <point x="140" y="-10"/>
      <point x="205" y="-10" type="curve" smooth="yes"/>
      <point x="326" y="-10"/>
      <point x="397" y="37"/>
      <point x="397" y="124" type="curve" smooth="yes"/>
      <point x="397" y="214"/>
      <point x="334" y="248"/>
      <point x="226" y="279" type="curve" smooth="yes"/>
      <point x="143" y="303"/>
      <point x="67" y="333"/>
      <point x="67" y="410" type="curve" smooth="yes"/>
      <point x="67" y="475"/>
      <point x="123" y="520"/>
      <point x="230" y="520" type="curve" smooth="yes"/>
      <point x="278" y="520"/>
      <point x="328" y="509"/>
      <point x="360" y="499" type="curve"/>
      <point x="367" y="517" type="line"/>
      <point x="334" y="529"/>
      <point x="281" y="540"/>
      <point x="230" y="540" type="curve" smooth="yes"/>
      <point x="108" y="540"/>
      <point x="47" y="486"/>
      <point x="47" y="410" type="curve" smooth="yes"/>
      <point x="47" y="320"/>
      <point x="126" y="288"/>
      <point x="218" y="261" type="curve" smooth="yes"/>
      <point x="325" y="230"/>
      <point x="377" y="200"/>
      <point x="377" y="124" type="curve" smooth="yes"/>
      <point x="377" y="51"/>
      <point x="313" y="10"/>
      <point x="205" y="10" type="curve" smooth="yes"/>
      <point x="144" y="10"/>
      <point x="74" y="22"/>
      <point x="33" y="40" type="curve"/>
    </contour>
  </outline>
</glyph>
<glyph name="u" format="2">
  <advance width="509.4"/>
  <unicode hex="0075"/>
  <anchor x="503.8" y="-1.0" name="ogonek"/>
  <anchor x="248.0" y="530.0" name="top"/>
  <anchor x="420.6" y="530.0" name="topright"/>
  <anchor x="255.0" y="0.0" name="bottom"/>
  <outline>
    <contour>
      <point x="211.0" y="-10.0" type="curve" smooth="yes"/>
      <point x="283.20000000000005" y="-10.0"/>
      <point x="339.4" y="14.4"/>
      <point x="403.20000000000005" y="48.6" type="curve"/>
      <point x="408.6" y="8.0"/>
      <point x="436.4" y="-10.0"/>
      <point x="464.0" y="-10.0" type="curve" smooth="yes"/>
      <point x="476.0" y="-10.0"/>
      <point x="488.6" y="-7.6"/>
      <point x="503.8" y="-1.0" type="curve"/>
      <point x="497.20000000000005" y="15.6" type="line"/>
      <point x="486.8" y="10.6"/>
      <point x="476.20000000000005" y="8.2"/>
      <point x="466.0" y="8.2" type="curve" smooth="yes"/>
      <point x="440.6" y="8.2"/>
      <point x="420.6" y="24.6"/>
      <point x="420.6" y="76.0" type="curve" smooth="yes"/>
      <point x="420.6" y="530.0" type="line"/>
      <point x="400.6" y="530.0" type="line"/>
      <point x="400.6" y="67.6" type="line"/>
      <point x="338.6" y="33.4"/>
      <point x="282.4" y="8.8"/>
      <point x="215.2" y="8.8" type="curve" smooth="yes"/>
      <point x="135.2" y="8.8"/>
      <point x="96.0" y="52.6"/>
      <point x="96.0" y="121.2" type="curve" smooth="yes"/>
      <point x="96.0" y="530.0" type="line"/>
      <point x="76.0" y="530.0" type="line"/>
      <point x="76.0" y="121.2" type="line" smooth="yes"/>
      <point x="76.0" y="35.2"/>
      <point x="126.6" y="-10.0"/>
    </contour>
  </outline>
</glyph>
<glyph name="v" format="2">
  <advance width="444.8"/>
  <unicode hex="0076"/>
  <outline>
    <contour>
      <point x="214.8" y="0.0" type="line"/>
      <point x="229.60000000000002" y="0.0" type="line"/>
      <point x="431.20000000000005" y="526.4" type="line"/>
      <point x="412.8" y="533.6" type="line"/>
      <point x="222.60000000000002" y="37.4" type="line"/>
      <point x="32.0" y="533.6" type="line"/>
      <point x="13.6" y="526.4" type="line"/>
    </contour>
  </outline>
</glyph>
<glyph name="y" format="2">
  <advance width="445.20000000000005"/>
  <unicode hex="0079"/>
  <anchor x="221.60000000000002" y="530.0" name="top"/>
  <anchor x="344.20000000000005" y="0.0" name="bottom"/>
  <outline>
    <contour>
      <point x="164.0" y="-206.8" type="line"/>
      <point x="183.8" y="-213.8" type="line"/>
      <point x="430.4" y="528.4" type="line"/>
      <point x="411.20000000000005" y="534.8" type="line"/>
      <point x="242.0" y="31.6" type="line"/>
      <point x="32.6" y="535.2" type="line"/>
      <point x="14.2" y="528.0" type="line"/>
      <point x="230.2" y="0.0" type="line"/>
      <point x="232.0" y="0.0" type="line"/>
    </contour>
  </outline>
</glyph>
<glyph name="z" format="2">
  <advance width="447.4"/>
  <unicode hex="007A"/>
  <anchor x="228.8" y="530.0" name="top"/>
  <outline>
    <contour>
      <point x="28.6" y="0.0" type="line"/>
      <point x="425.8" y="0.0" type="line"/>
      <point x="425.8" y="19.4" type="line"/>
      <point x="55.4" y="19.4" type="line"/>
      <point x="401.6" y="512.0" type="line"/>
      <point x="401.6" y="530.0" type="line"/>
      <point x="52.2" y="530.0" type="line"/>
      <point x="52.2" y="510.6" type="line"/>
      <point x="375.4" y="510.6" type="line"/>
      <point x="28.6" y="18.0" type="line"/>
    </contour>
  </outline>
</glyph>
<glyph name="braceleft" format="2">
  <advance width="302.8"/>
  <unicode hex="007B"/>
  <outline>
    <contour>
      <point x="121.4" y="-71.4" type="curve" smooth="yes"/>
      <point x="121.4" y="-143.2"/>
      <point x="147.4" y="-210.0"/>
      <point x="234.2" y="-210.0" type="curve" smooth="yes"/>
      <point x="263.0" y="-210.0" type="line"/>
      <point x="263.0" y="-190.0" type="line"/>
      <point x="234.2" y="-190.0" type="line" smooth="yes"/>
      <point x="162.2" y="-190.0"/>
      <point x="141.4" y="-133.2"/>
      <point x="141.4" y="-71.4" type="curve" smooth="yes"/>
      <point x="141.4" y="9.2"/>
      <point x="174.4" y="76.8"/>
      <point x="174.4" y="160.0" type="curve" smooth="yes"/>
      <point x="174.4" y="196.6"/>
      <point x="165.2" y="251.4"/>
      <point x="127.2" y="265.0" type="curve"/>
      <point x="164.8" y="283.2"/>
      <point x="174.4" y="332.6"/>
      <point x="174.4" y="369.2" type="curve" smooth="yes"/>
      <point x="174.4" y="449.8"/>
      <point x="141.4" y="515.4"/>
      <point x="141.4" y="600.6" type="curve" smooth="yes"/>
      <point x="141.4" y="662.4"/>
      <point x="162.2" y="720.0"/>
      <point x="234.2" y="720.0" type="curve" smooth="yes"/>
      <point x="263.0" y="720.0" type="line"/>
      <point x="263.0" y="740.0" type="line"/>
      <point x="234.2" y="740.0" type="line" smooth="yes"/>
      <point x="147.4" y="740.0"/>
      <point x="121.4" y="672.4"/>
      <point x="121.4" y="600.6" type="curve" smooth="yes"/>
      <point x="121.4" y="511.0"/>
      <point x="154.4" y="448.4"/>
      <point x="154.4" y="369.2" type="curve" smooth="yes"/>
      <point x="154.4" y="329.0"/>
      <point x="142.8" y="275.0"/>
      <point x="107.0" y="275.0" type="curve" smooth="yes"/>
      <point x="86.0" y="275.0" type="line"/>
      <point x="86.0" y="255.0" type="line"/>
      <point x="107.0" y="255.0" type="line" smooth="yes"/>
      <point x="142.8" y="255.0"/>
      <point x="154.4" y="200.8"/>
      <point x="154.4" y="160.0" type="curve" smooth="yes"/>
      <point x="154.4" y="79.8"/>
      <point x="121.4" y="13.2"/>
    </contour>
  </outline>
</glyph>
<glyph name="bar" format="2">
  <advance width="186.4"/>
  <unicode hex="007C"/>
  <outline>
    <contour>
      <point x="103.2" y="790.0" type="line"/>
      <point x="83.2" y="790.0" type="line"/>
      <point x="83.2" y="-210.0" type="line"/>
      <point x="103.2" y="-210.0" type="line"/>
    </contour>
  </outline>
</glyph>
<glyph name="braceright" format="2">
  <advance width="302.8"/>
  <unicode hex="007D"/>
  <outline>
    <contour>
      <point x="39.8" y="-190.0" type="line"/>
      <point x="39.8" y="-210.0" type="line"/>
      <point x="69.2" y="-210.0" type="line" smooth="yes"/>
      <point x="156.0" y="-210.0"/>
      <point x="182.0" y="-143.2"/>
      <point x="182.0" y="-71.4" type="curve" smooth="yes"/>
      <point x="182.0" y="13.2"/>
      <point x="149.0" y="79.8"/>
      <point x="149.0" y="160.0" type="curve" smooth="yes"/>
      <point x="149.0" y="200.8"/>
      <point x="160.6" y="255.0"/>
      <point x="196.4" y="255.0" type="curve" smooth="yes"/>
      <point x="216.8" y="255.0" type="line"/>
      <point x="216.8" y="275.0" type="line"/>
      <point x="196.4" y="275.0" type="line" smooth="yes"/>
      <point x="160.0" y="275.0"/>
      <point x="149.0" y="329.0"/>
      <point x="149.0" y="369.2" type="curve" smooth="yes"/>
      <point x="149.0" y="448.4"/>
      <point x="182.0" y="511.0"/>
      <point x="182.0" y="600.6" type="curve" smooth="yes"/>
      <point x="182.0" y="672.4"/>
      <point x="156.0" y="740.0"/>
      <point x="69.2" y="740.0" type="curve" smooth="yes"/>
      <point x="39.8" y="740.0" type="line"/>
      <point x="39.8" y="720.0" type="line"/>
      <point x="69.2" y="720.0" type="line" smooth="yes"/>
      <point x="140.6" y="720.0"/>
      <point x="162.0" y="662.4"/>
      <point x="162.0" y="600.6" type="curve" smooth="yes"/>
      <point x="162.0" y="515.4"/>
      <point x="129.0" y="449.8"/>
      <point x="129.0" y="369.2" type="curve" smooth="yes"/>
      <point x="129.0" y="332.6"/>
      <point x="138.0" y="283.2"/>
      <point x="176.2" y="265.0" type="curve"/>
      <point x="137.6" y="251.4"/>
      <point x="129.0" y="196.6"/>
      <point x="129.0" y="160.0" type="curve" smooth="yes"/>
      <point x="129.0" y="76.8"/>
      <point x="162.0" y="9.2"/>
      <point x="162.0" y="-71.4" type="curve" smooth="yes"/>
      <point x="162.0" y="-133.2"/>
      <point x="140.6" y="-190.0"/>
      <point x="69.2" y="-190.0" type="curve" smooth="yes"/>
    </contour>
  </outline>
</glyph>
<glyph name="asciitilde" format="2">
  <advance width="446.0"/>
  <unicode hex="007E"/>
  <outline>
    <contour>
      <point x="383.6" y="259.0" type="curve"/>
      <point x="383.6" y="283.6" type="line"/>
      <point x="363.0" y="260.0"/>
      <point x="344.0" y="242.6"/>
      <point x="314.6" y="242.6" type="curve" smooth="yes"/>
      <point x="246.0" y="242.6"/>
      <point x="205.8" y="356.0"/>
      <point x="131.0" y="356.0" type="curve" smooth="yes"/>
      <point x="103.0" y="356.0"/>
      <point x="82.0" y="341.8"/>
      <point x="63.0" y="320.4" type="curve"/>
      <point x="63.0" y="295.4" type="line"/>
      <point x="82.0" y="318.2"/>
      <point x="101.8" y="336.0"/>
      <point x="131.2" y="336.0" type="curve" smooth="yes"/>
      <point x="196.2" y="336.0"/>
      <point x="237.0" y="222.6"/>
      <point x="314.8" y="222.6" type="curve" smooth="yes"/>
      <point x="346.4" y="222.6"/>
      <point x="365.0" y="237.6"/>
    </contour>
  </outline>
</glyph>
<glyph name="exclamdown" format="2">
  <advance width="202.8"/>
  <unicode hex="00A1"/>
  <outline>
    <contour>
      <point x="111.4" y="266.0" type="line"/>
      <point x="91.4" y="266.0" type="line"/>
      <point x="91.4" y="-210.0" type="line"/>
      <point x="111.4" y="-210.0" type="line"/>
    </contour>
    <contour>
      <point x="116.6" y="513.0" type="curve" smooth="yes"/>
      <point x="116.6" y="529.0"/>
      <point x="116.2" y="530.0"/>
      <point x="101.4" y="530.0" type="curve" smooth="yes"/>
      <point x="87.6" y="530.0"/>
      <point x="86.2" y="529.0"/>
      <point x="86.2" y="513.0" type="curve" smooth="yes"/>
      <point x="86.2" y="497.0"/>
      <point x="86.6" y="496.0"/>
      <point x="101.4" y="496.0" type="curve" smooth="yes"/>
      <point x="116.2" y="496.0"/>
      <point x="116.6" y="497.0"/>
    </contour>
  </outline>
</glyph>
<glyph name="cent" format="2">
  <advance width="563.6"/>
  <unicode hex="00A2"/>
  <outline>
    <contour>
      <point x="302.20000000000005" y="-10.0" type="curve" smooth="yes"/>
      <point x="354.0" y="-10.0"/>
      <point x="417.4" y="-2.8"/>
      <point x="461.40000000000003" y="8.600000000000001" type="curve"/>
      <point x="457.40000000000003" y="26.8" type="line"/>
      <point x="414.8" y="16.4"/>
      <point x="352.4" y="9.4"/>
      <point x="303.4" y="9.4" type="curve" smooth="yes"/>
      <point x="185.2" y="9.4"/>
      <point x="122.80000000000001" y="90.0"/>
      <point x="122.80000000000001" y="252.8" type="curve" smooth="yes"/>
      <point x="122.80000000000001" y="431.2"/>
      <point x="194.8" y="520.6"/>
      <point x="318.0" y="520.6" type="curve" smooth="yes"/>
      <point x="365.4" y="520.6"/>
      <point x="398.6" y="515.8"/>
      <point x="448.2" y="502.8" type="curve"/>
      <point x="452.8" y="521.0" type="line"/>
      <point x="406.8" y="534.4"/>
      <point x="365.20000000000005" y="540.0"/>
      <point x="318.0" y="540.0" type="curve" smooth="yes"/>
      <point x="179.2" y="540.0"/>
      <point x="102.80000000000001" y="440.8"/>
      <point x="102.80000000000001" y="252.8" type="curve" smooth="yes"/>
      <point x="102.80000000000001" y="77.4"/>
      <point x="169.4" y="-10.0"/>
    </contour>
    <contour>
      <point x="287.6" y="-105.0" type="line"/>
      <point x="307.6" y="-105.0" type="line"/>
      <point x="307.6" y="-4.6" type="line"/>
      <point x="287.6" y="-3.2" type="line"/>
    </contour>
    <contour>
      <point x="287.6" y="532.2" type="line"/>
      <point x="307.6" y="535.0" type="line"/>
      <point x="307.6" y="635.0" type="line"/>
      <point x="287.6" y="635.0" type="line"/>
    </contour>
  </outline>
</glyph>
<glyph name="sterling" format="2">
  <advance width="563.6"/>
  <unicode hex="00A3"/>
  <outline>
    <contour>
      <point x="73.2" y="0.0" type="line"/>
      <point x="519.4000000000001" y="0.0" type="line"/>
      <point x="519.4000000000001" y="20.0" type="line"/>
      <point x="98.0" y="20.0" type="line"/>
      <point x="171.6" y="102.0"/>
      <point x="205.60000000000002" y="153.8"/>
      <point x="205.60000000000002" y="236.4" type="curve" smooth="yes"/>
      <point x="205.60000000000002" y="344.2"/>
      <point x="128.8" y="398.0"/>
      <point x="128.8" y="513.4" type="curve" smooth="yes"/>
      <point x="128.8" y="635.0"/>
      <point x="206.2" y="690.0"/>
      <point x="321.6" y="690.0" type="curve" smooth="yes"/>
      <point x="367.20000000000005" y="690.0"/>
      <point x="441.0" y="680.6"/>
      <point x="489.8" y="668.4" type="curve"/>
      <point x="495.0" y="686.0" type="line"/>
      <point x="455.6" y="699.2"/>
      <point x="371.20000000000005" y="710.0"/>
      <point x="321.6" y="710.0" type="curve" smooth="yes"/>
      <point x="184.8" y="710.0"/>
      <point x="108.80000000000001" y="632.2"/>
      <point x="108.80000000000001" y="513.0" type="curve" smooth="yes"/>
      <point x="108.80000000000001" y="387.2"/>
      <point x="185.60000000000002" y="339.0"/>
      <point x="185.60000000000002" y="235.6" type="curve" smooth="yes"/>
      <point x="185.60000000000002" y="157.8"/>
      <point x="154.0" y="114.6"/>
      <point x="73.2" y="20.0" type="curve"/>
    </contour>
    <contour>
      <point x="60.0" y="366.0" type="line"/>
      <point x="418.0" y="366.0" type="line"/>
      <point x="418.0" y="386.0" type="line"/>
      <point x="60.0" y="386.0" type="line"/>
    </contour>
  </outline>
</glyph>
<glyph name="currency" format="2">
  <advance width="431.0"/>
  <unicode hex="00A4"/>
  <outline>
    <contour>
      <point x="40.0" y="451.0" type="line"/>
      <point x="114.0" y="376.0" type="line"/>
      <point x="95.0" y="353.0"/>
      <point x="83.0" y="323.0"/>
      <point x="83.0" y="289.0" type="curve" smooth="yes"/>
      <point x="83.0" y="255.0"/>
      <point x="95.0" y="225.0"/>
      <point x="115.0" y="202.0" type="curve"/>
      <point x="40.0" y="127.0" type="line"/>
      <point x="54.0" y="113.0" type="line"/>
      <point x="129.0" y="188.0" type="line"/>
      <point x="152.0" y="168.0"/>
      <point x="182.0" y="157.0"/>
      <point x="215.0" y="157.0" type="curve" smooth="yes"/>
      <point x="248.0" y="157.0"/>
      <point x="279.0" y="168.0"/>
      <point x="302.0" y="188.0" type="curve"/>
      <point x="377.0" y="113.0" type="line"/>
      <point x="391.0" y="127.0" type="line"/>
      <point x="316.0" y="202.0" type="line"/>
      <point x="336.0" y="225.0"/>
      <point x="348.0" y="255.0"/>
      <point x="348.0" y="289.0" type="curve" smooth="yes"/>
      <point x="348.0" y="323.0"/>
      <point x="336.0" y="353.0"/>
      <point x="316.0" y="376.0" type="curve"/>
      <point x="391.0" y="451.0" type="line"/>
      <point x="377.0" y="465.0" type="line"/>
      <point x="302.0" y="390.0" type="line"/>
      <point x="279.0" y="410.0"/>
      <point x="249.0" y="422.0"/>
      <point x="215.0" y="422.0" type="curve" smooth="yes"/>
      <point x="181.0" y="422.0"/>
      <point x="151.0" y="410.0"/>
      <point x="128.0" y="390.0" type="curve"/>
      <point x="54.0" y="465.0" type="line"/>
    </contour>
    <contour>
      <point x="215.0" y="177.0" type="curve" smooth="yes"/>
      <point x="153.0" y="177.0"/>
      <point x="103.0" y="227.0"/>
      <point x="103.0" y="289.0" type="curve" smooth="yes"/>
      <point x="103.0" y="352.0"/>
      <point x="153.0" y="402.0"/>
      <point x="215.0" y="402.0" type="curve" smooth="yes"/>
      <point x="278.0" y="402.0"/>
      <point x="328.0" y="352.0"/>
      <point x="328.0" y="289.0" type="curve" smooth="yes"/>
      <point x="328.0" y="227.0"/>
      <point x="278.0" y="177.0"/>
    </contour>
  </outline>
</glyph>
<glyph name="brokenbar" format="2">
  <advance width="186.4"/>
  <unicode hex="00A6"/>
  <outline>
    <contour>
      <point x="103.2" y="391.0" type="line"/>
      <point x="103.2" y="790.0" type="line"/>
      <point x="83.2" y="790.0" type="line"/>
      <point x="83.2" y="391.0" type="line"/>
    </contour>
    <contour>
      <point x="83.2" y="190.0" type="line"/>
      <point x="83.2" y="-210.0" type="line"/>
      <point x="103.2" y="-210.0" type="line"/>
      <point x="103.2" y="190.0" type="line"/>
    </contour>
  </outline>
</glyph>
<glyph name="section" format="2">
  <advance width="455.20000000000005"/>
  <unicode hex="00A7"/>
  <outline>
    <contour>
      <point x="199.0" y="-220.0" type="curve" smooth="yes"/>
      <point x="336.0" y="-220.0"/>
      <point x="424.0" y="-109.2"/>
      <point x="424.0" y="45.4" type="curve" smooth="yes"/>
      <point x="424.0" y="135.2"/>
      <point x="398.6" y="217.4"/>
      <point x="315.4" y="408.4" type="curve" smooth="yes"/>
      <point x="250.4" y="559.4"/>
      <point x="236.8" y="591.8"/>
      <point x="236.8" y="637.4" type="curve" smooth="yes"/>
      <point x="236.8" y="693.8"/>
      <point x="269.8" y="727.8"/>
      <point x="323.6" y="727.8" type="curve" smooth="yes"/>
      <point x="345.0" y="727.8"/>
      <point x="367.6" y="723.8"/>
      <point x="399.6" y="712.4" type="curve"/>
      <point x="406.8" y="728.6" type="line"/>
      <point x="368.4" y="743.2"/>
      <point x="329.2" y="749.4"/>
      <point x="289.2" y="749.4" type="curve" smooth="yes"/>
      <point x="146.4" y="749.4"/>
      <point x="56.0" y="647.6"/>
      <point x="55.0" y="481.2" type="curve" smooth="yes"/>
      <point x="55.0" y="381.0"/>
      <point x="82.0" y="290.2"/>
      <point x="160.2" y="124.0" type="curve" smooth="yes"/>
      <point x="214.0" y="-0.7999999999999972"/>
      <point x="237.0" y="-50.0"/>
      <point x="237.4" y="-105.4" type="curve" smooth="yes"/>
      <point x="237.8" y="-159.2"/>
      <point x="203.4" y="-194.8"/>
      <point x="154.4" y="-194.8" type="curve" smooth="yes"/>
      <point x="118.6" y="-194.8"/>
      <point x="89.6" y="-182.2"/>
      <point x="42.4" y="-144.6" type="curve"/>
      <point x="31.200000000000003" y="-159.4" type="line"/>
      <point x="89.80000000000001" y="-205.4"/>
      <point x="130.8" y="-220.0"/>
    </contour>
    <contour>
      <point x="200.2" y="-204.6" type="curve" smooth="yes"/>
      <point x="171.8" y="-204.6"/>
      <point x="152.8" y="-202.2"/>
      <point x="136.2" y="-197.2" type="curve"/>
      <point x="151.4" y="-208.6" type="line"/>
      <point x="211.60000000000002" y="-210.0"/>
      <point x="255.8" y="-166.0"/>
      <point x="255.8" y="-106.0" type="curve" smooth="yes"/>
      <point x="255.8" y="-54.4"/>
      <point x="241.2" y="-7.599999999999998"/>
      <point x="177.0" y="132.0" type="curve" smooth="yes"/>
      <point x="97.80000000000001" y="307.6"/>
      <point x="74.4" y="382.6"/>
      <point x="74.4" y="481.2" type="curve" smooth="yes"/>
      <point x="74.4" y="632.4"/>
      <point x="158.2" y="732.2"/>
      <point x="282.6" y="732.2" type="curve" smooth="yes"/>
      <point x="291.8" y="732.2"/>
      <point x="300.8" y="731.8"/>
      <point x="312.4" y="730.4" type="curve"/>
      <point x="305.2" y="739.2" type="line"/>
      <point x="250.0" y="732.8"/>
      <point x="217.2" y="691.2"/>
      <point x="216.8" y="636.6" type="curve" smooth="yes"/>
      <point x="216.8" y="588.2"/>
      <point x="233.60000000000002" y="543.4"/>
      <point x="298.0" y="401.0" type="curve" smooth="yes"/>
      <point x="380.20000000000005" y="211.2"/>
      <point x="405.20000000000005" y="132.2"/>
      <point x="405.20000000000005" y="45.4" type="curve" smooth="yes"/>
      <point x="405.6" y="-100.6"/>
      <point x="326.6" y="-204.2"/>
    </contour>
  </outline>
</glyph>
<glyph name="copyright" format="2">
  <advance width="617.2"/>
  <unicode hex="00A9"/>
  <outline>
    <contour>
      <point x="308.6" y="8.2" type="curve" smooth="yes"/>
      <point x="172.8" y="8.2"/>
      <point x="67.2" y="85.6"/>
      <point x="67.2" y="350.0" type="curve" smooth="yes"/>
      <point x="67.2" y="615.0"/>
      <point x="172.8" y="691.8"/>
      <point x="308.6" y="691.8" type="curve" smooth="yes"/>
      <point x="444.4" y="691.8"/>
      <point x="550.0" y="615.0"/>
      <point x="550.0" y="350.0" type="curve" smooth="yes"/>
      <point x="550.0" y="85.6"/>
      <point x="444.4" y="8.2"/>
    </contour>
    <contour>
      <point x="308.6" y="710.0" type="curve" smooth="yes"/>
      <point x="160.4" y="710.0"/>
      <point x="49.0" y="631.0"/>
      <point x="49.0" y="350.0" type="curve" smooth="yes"/>
      <point x="49.0" y="69.6"/>
      <point x="160.4" y="-10.0"/>
      <point x="308.6" y="-10.0" type="curve" smooth="yes"/>
      <point x="456.8" y="-10.0"/>
      <point x="568.2" y="69.6"/>
      <point x="568.2" y="350.0" type="curve" smooth="yes"/>
      <point x="568.2" y="631.0"/>
      <point x="456.8" y="710.0"/>
    </contour>
    <contour>
      <point x="184.4" y="335.2" type="curve" smooth="yes"/>
      <point x="184.4" y="223.8"/>
      <point x="231.0" y="171.2"/>
      <point x="311.6" y="171.2" type="curve" smooth="yes"/>
      <point x="358.4" y="171.2"/>
      <point x="397.20000000000005" y="178.8"/>
      <point x="418.4" y="183.6" type="curve"/>
      <point x="413.6" y="202.4" type="line"/>
      <point x="393.8" y="197.2"/>
      <point x="356.0" y="190.6"/>
      <point x="311.6" y="190.6" type="curve" smooth="yes"/>
      <point x="239.0" y="190.6"/>
      <point x="204.4" y="242.4"/>
      <point x="204.4" y="335.2" type="curve" smooth="yes"/>
      <point x="204.4" y="453.4"/>
      <point x="251.4" y="495.0"/>
      <point x="325.6" y="495.0" type="curve" smooth="yes"/>
      <point x="354.8" y="495.0"/>
      <point x="375.6" y="493.0"/>
      <point x="401.8" y="485.6" type="curve"/>
      <point x="406.6" y="504.4" type="line"/>
      <point x="379.8" y="511.8"/>
      <point x="355.6" y="514.4"/>
      <point x="325.6" y="514.4" type="curve" smooth="yes"/>
      <point x="243.0" y="514.4"/>
      <point x="184.4" y="468.2"/>
    </contour>
  </outline>
</glyph>
<glyph name="ordfeminine" format="2">
  <advance width="323.4"/>
  <unicode hex="00AA"/>
  <outline>
    <contour>
      <point x="44.6" y="291.2" type="line"/>
      <point x="287.8" y="291.2" type="line"/>
      <point x="287.8" y="308.4" type="line"/>
      <point x="44.6" y="308.4" type="line"/>
    </contour>
    <component base="a.superior" xOffset="13.2"/>
  </outline>
</glyph>
<glyph name="registered" format="2">
  <advance width="591.4000000000001"/>
  <unicode hex="00AE"/>
  <outline>
    <contour>
      <point x="296.0" y="208.4" type="curve" smooth="yes"/>
      <point x="436.6" y="208.4"/>
      <point x="542.4000000000001" y="284.0"/>
      <point x="542.4000000000001" y="550.4" type="curve" smooth="yes"/>
      <point x="542.4000000000001" y="817.4"/>
      <point x="436.6" y="892.4"/>
      <point x="296.0" y="892.4" type="curve" smooth="yes"/>
      <point x="155.4" y="892.4"/>
      <point x="49.0" y="817.4"/>
      <point x="49.0" y="550.4" type="curve" smooth="yes"/>
      <point x="49.0" y="284.0"/>
      <point x="155.4" y="208.4"/>
    </contour>
    <contour>
      <point x="296.0" y="225.6" type="curve" smooth="yes"/>
      <point x="166.8" y="225.6"/>
      <point x="66.8" y="299.0"/>
      <point x="66.8" y="550.4" type="curve" smooth="yes"/>
      <point x="66.8" y="802.4"/>
      <point x="166.8" y="875.2"/>
      <point x="296.0" y="875.2" type="curve" smooth="yes"/>
      <point x="425.20000000000005" y="875.2"/>
      <point x="525.2" y="802.4"/>
      <point x="525.2" y="550.4" type="curve" smooth="yes"/>
      <point x="525.2" y="299.0"/>
      <point x="425.20000000000005" y="225.6"/>
    </contour>
    <contour>
      <point x="430.8" y="399.4" type="curve" smooth="yes"/>
      <point x="433.8" y="399.4"/>
      <point x="435.20000000000005" y="399.4"/>
      <point x="439.4" y="400.0" type="curve"/>
      <point x="437.6" y="418.4" type="line"/>
      <point x="435.6" y="417.8"/>
      <point x="434.20000000000005" y="417.8"/>
      <point x="432.20000000000005" y="417.8" type="curve" smooth="yes"/>
      <point x="406.6" y="417.8"/>
      <point x="371.6" y="455.6"/>
      <point x="329.0" y="538.4" type="curve"/>
      <point x="378.20000000000005" y="550.0"/>
      <point x="398.0" y="579.4"/>
      <point x="398.0" y="629.6" type="curve" smooth="yes"/>
      <point x="398.0" y="692.8"/>
      <point x="366.20000000000005" y="714.0"/>
      <point x="281.0" y="714.0" type="curve" smooth="yes"/>
      <point x="250.8" y="714.0"/>
      <point x="230.0" y="712.8"/>
      <point x="197.60000000000002" y="709.2" type="curve"/>
      <point x="197.60000000000002" y="401.0" type="line"/>
      <point x="216.60000000000002" y="401.0" type="line"/>
      <point x="216.60000000000002" y="536.4" type="line"/>
      <point x="244.0" y="535.4"/>
      <point x="264.6" y="534.4"/>
      <point x="288.20000000000005" y="534.4" type="curve" smooth="yes"/>
      <point x="294.20000000000005" y="534.4"/>
      <point x="300.20000000000005" y="534.4"/>
      <point x="306.20000000000005" y="535.0" type="curve"/>
      <point x="353.4" y="435.8"/>
      <point x="396.8" y="399.4"/>
    </contour>
    <contour>
      <point x="285.8" y="552.8" type="curve" smooth="yes"/>
      <point x="262.8" y="552.8"/>
      <point x="242.8" y="553.2"/>
      <point x="216.60000000000002" y="554.2" type="curve"/>
      <point x="216.60000000000002" y="692.2" type="line"/>
      <point x="244.8" y="694.6"/>
      <point x="254.4" y="695.6"/>
      <point x="281.6" y="695.6" type="curve" smooth="yes"/>
      <point x="362.20000000000005" y="695.6"/>
      <point x="379.0" y="672.6"/>
      <point x="379.0" y="628.4" type="curve" smooth="yes"/>
      <point x="379.0" y="575.0"/>
      <point x="348.20000000000005" y="552.8"/>
    </contour>
  </outline>
</glyph>
<glyph name="degree" format="2">
  <advance width="238.0"/>
  <unicode hex="00B0"/>
  <outline>
    <contour>
      <point x="118.0" y="520.0" type="curve" smooth="yes"/>
      <point x="172.0" y="520.0"/>
      <point x="208.0" y="566.0"/>
      <point x="208.0" y="623.0" type="curve" smooth="yes"/>
      <point x="208.0" y="680.0"/>
      <point x="172.0" y="728.0"/>
      <point x="118.0" y="728.0" type="curve" smooth="yes"/>
      <point x="64.0" y="728.0"/>
      <point x="30.0" y="680.0"/>
      <point x="30.0" y="623.0" type="curve" smooth="yes"/>
      <point x="30.0" y="566.0"/>
      <point x="64.0" y="520.0"/>
    </contour>
    <contour>
      <point x="118.0" y="540.0" type="curve" smooth="yes"/>
      <point x="75.0" y="540.0"/>
      <point x="50.0" y="577.0"/>
      <point x="50.0" y="623.0" type="curve" smooth="yes"/>
      <point x="50.0" y="669.0"/>
      <point x="75.0" y="708.0"/>
      <point x="118.0" y="708.0" type="curve" smooth="yes"/>
      <point x="161.0" y="708.0"/>
      <point x="188.0" y="669.0"/>
      <point x="188.0" y="623.0" type="curve" smooth="yes"/>
      <point x="188.0" y="577.0"/>
      <point x="161.0" y="540.0"/>
    </contour>
  </outline>
</glyph>
<glyph name="plusminus" format="2">
  <advance width="465.2"/>
  <unicode hex="00B1"/>
  <outline>
    <contour>
      <point x="48.6" y="72.0" type="line"/>
      <point x="416.6" y="72.0" type="line"/>
      <point x="416.6" y="92.0" type="line"/>
      <point x="242.6" y="92.0" type="line"/>
      <point x="242.6" y="298.0" type="line"/>
      <point x="416.6" y="298.0" type="line"/>
      <point x="416.6" y="318.0" type="line"/>
      <point x="242.6" y="318.0" type="line"/>
      <point x="242.6" y="511.2" type="line"/>
      <point x="222.6" y="511.2" type="line"/>
      <point x="222.6" y="318.0" type="line"/>
      <point x="48.6" y="318.0" type="line"/>
      <point x="48.6" y="298.0" type="line"/>
      <point x="222.6" y="298.0" type="line"/>
      <point x="222.6" y="92.0" type="line"/>
      <point x="48.6" y="92.0" type="line"/>
    </contour>
  </outline>
</glyph>
<glyph name="uni00B2" format="2">
  <advance width="394.8"/>
  <unicode hex="00B2"/>
  <outline>
    <contour>
      <point x="67.4" y="370.0" type="line"/>
      <point x="333.0" y="370.0" type="line"/>
      <point x="333.0" y="386.0" type="line"/>
      <point x="93.8" y="386.0" type="line"/>
      <point x="247.8" y="529.6"/>
      <point x="283.4" y="595.8"/>
      <point x="283.4" y="664.4" type="curve" smooth="yes"/>
      <point x="283.4" y="733.4"/>
      <point x="246.8" y="773.6"/>
      <point x="179.4" y="773.6" type="curve" smooth="yes"/>
      <point x="143.4" y="773.6"/>
      <point x="104.2" y="764.0"/>
      <point x="73.8" y="740.4" type="curve"/>
      <point x="81.0" y="727.2" type="line"/>
      <point x="109.6" y="749.4"/>
      <point x="144.2" y="756.4"/>
      <point x="178.0" y="756.4" type="curve" smooth="yes"/>
      <point x="233.8" y="756.4"/>
      <point x="264.6" y="720.4"/>
      <point x="264.6" y="661.8" type="curve" smooth="yes"/>
      <point x="264.6" y="596.8"/>
      <point x="221.0" y="523.2"/>
      <point x="64.4" y="384.0" type="curve"/>
    </contour>
  </outline>
</glyph>
<glyph name="uni00B3" format="2">
  <advance width="374.0"/>
  <unicode hex="00B3"/>
  <outline>
    <contour>
      <point x="37.2" y="395.6" type="line"/>
      <point x="75.2" y="371.2"/>
      <point x="117.2" y="360.0"/>
      <point x="174.4" y="360.0" type="curve" smooth="yes"/>
      <point x="269.8" y="360.0"/>
      <point x="326.8" y="405.8"/>
      <point x="326.8" y="482.0" type="curve" smooth="yes"/>
      <point x="326.8" y="535.6"/>
      <point x="295.4" y="570.8"/>
      <point x="236.60000000000002" y="577.6" type="curve"/>
      <point x="280.0" y="587.2"/>
      <point x="304.20000000000005" y="621.8"/>
      <point x="304.20000000000005" y="668.6" type="curve" smooth="yes"/>
      <point x="304.20000000000005" y="733.0"/>
      <point x="254.4" y="773.2"/>
      <point x="172.2" y="773.2" type="curve" smooth="yes"/>
      <point x="119.80000000000001" y="773.2"/>
      <point x="81.2" y="762.6"/>
      <point x="59.2" y="751.6" type="curve"/>
      <point x="65.2" y="737.8" type="line"/>
      <point x="90.4" y="747.4"/>
      <point x="120.0" y="755.8"/>
      <point x="170.60000000000002" y="755.8" type="curve" smooth="yes"/>
      <point x="243.2" y="755.8"/>
      <point x="286.0" y="722.8"/>
      <point x="286.0" y="667.4" type="curve" smooth="yes"/>
      <point x="286.0" y="618.6"/>
      <point x="255.0" y="584.2"/>
      <point x="190.8" y="584.2" type="curve" smooth="yes"/>
      <point x="117.4" y="584.2" type="line"/>
      <point x="117.4" y="568.6" type="line"/>
      <point x="190.4" y="568.6" type="line" smooth="yes"/>
      <point x="272.4" y="568.6"/>
      <point x="307.4" y="538.4"/>
      <point x="307.4" y="482.0" type="curve" smooth="yes"/>
      <point x="307.4" y="415.8"/>
      <point x="257.4" y="376.6"/>
      <point x="173.8" y="376.6" type="curve" smooth="yes"/>
      <point x="119.2" y="376.6"/>
      <point x="80.8" y="386.6"/>
      <point x="45.6" y="409.2" type="curve"/>
    </contour>
  </outline>
</glyph>
<glyph name="uni00B5" format="2">
  <advance width="509.4"/>
  <unicode hex="00B5"/>
  <outline>
    <contour>
      <point x="76.0" y="-210.0" type="line"/>
      <point x="96.0" y="-210.0" type="line"/>
      <point x="96.0" y="46.0" type="line"/>
      <point x="116.80000000000001" y="8.4"/>
      <point x="156.0" y="-10.0"/>
      <point x="211.0" y="-10.0" type="curve" smooth="yes"/>
      <point x="283.20000000000005" y="-10.0"/>
      <point x="339.4" y="14.4"/>
      <point x="403.20000000000005" y="48.6" type="curve"/>
      <point x="408.6" y="8.0"/>
      <point x="436.4" y="-10.0"/>
      <point x="464.0" y="-10.0" type="curve" smooth="yes"/>
      <point x="476.0" y="-10.0"/>
      <point x="488.6" y="-7.6"/>
      <point x="503.8" y="-1.0" type="curve"/>
      <point x="497.20000000000005" y="15.6" type="line"/>
      <point x="486.8" y="10.6"/>
      <point x="476.20000000000005" y="8.2"/>
      <point x="466.0" y="8.2" type="curve" smooth="yes"/>
      <point x="440.6" y="8.2"/>
      <point x="420.6" y="24.6"/>
      <point x="420.6" y="76.0" type="curve" smooth="yes"/>
      <point x="420.6" y="530.0" type="line"/>
      <point x="400.6" y="530.0" type="line"/>
      <point x="400.6" y="67.6" type="line"/>
      <point x="338.6" y="33.4"/>
      <point x="282.4" y="8.8"/>
      <point x="215.2" y="8.8" type="curve" smooth="yes"/>
      <point x="135.2" y="8.8"/>
      <point x="96.0" y="52.6"/>
      <point x="96.0" y="121.2" type="curve" smooth="yes"/>
      <point x="96.0" y="530.0" type="line"/>
      <point x="76.0" y="530.0" type="line"/>
    </contour>
  </outline>
</glyph>
<glyph name="paragraph" format="2">
  <advance width="540.6"/>
  <unicode hex="00B6"/>
  <outline>
    <contour>
      <point x="442.6" y="-210.0" type="line"/>
      <point x="462.6" y="-210.0" type="line"/>
      <point x="462.6" y="740.0" type="line"/>
      <point x="442.6" y="740.0" type="line"/>
    </contour>
    <contour>
      <point x="229.8" y="199.4" type="line"/>
      <point x="109.0" y="216.2"/>
      <point x="55.6" y="310.8"/>
      <point x="55.6" y="460.6" type="curve" smooth="yes"/>
      <point x="55.6" y="617.0"/>
      <point x="127.0" y="717.0"/>
      <point x="294.4" y="721.2" type="curve"/>
      <point x="294.4" y="-210.0" type="line"/>
      <point x="314.4" y="-210.0" type="line"/>
      <point x="314.4" y="740.0" type="line"/>
      <point x="300.2" y="740.0" type="line" smooth="yes"/>
      <point x="115.0" y="740.0"/>
      <point x="35.6" y="627.6"/>
      <point x="35.6" y="460.6" type="curve" smooth="yes"/>
      <point x="35.6" y="301.2"/>
      <point x="95.0" y="198.8"/>
      <point x="228.4" y="179.4" type="curve"/>
    </contour>
  </outline>
</glyph>
<glyph name="periodcentered" format="2">
  <advance width="142.4"/>
  <unicode hex="00B7"/>
  <outline>
    <contour>
      <point x="56.2" y="287.0" type="curve" smooth="yes"/>
      <point x="56.2" y="271.0"/>
      <point x="57.6" y="270.0"/>
      <point x="71.4" y="270.0" type="curve" smooth="yes"/>
      <point x="86.2" y="270.0"/>
      <point x="86.6" y="271.0"/>
      <point x="86.6" y="287.0" type="curve" smooth="yes"/>
      <point x="86.6" y="303.0"/>
      <point x="86.2" y="304.0"/>
      <point x="71.4" y="304.0" type="curve" smooth="yes"/>
      <point x="56.6" y="304.0"/>
      <point x="56.2" y="303.0"/>
    </contour>
  </outline>
</glyph>
<glyph name="uni00B9" format="2">
  <advance width="354.20000000000005"/>
  <unicode hex="00B9"/>
  <outline>
    <contour>
      <point x="31.2" y="370.0" type="line"/>
      <point x="324.20000000000005" y="370.0" type="line"/>
      <point x="324.20000000000005" y="386.6" type="line"/>
      <point x="198.8" y="386.6" type="line"/>
      <point x="198.8" y="769.2" type="line"/>
      <point x="188.4" y="769.2" type="line"/>
      <point x="29.6" y="680.6" type="line"/>
      <point x="36.8" y="665.2" type="line"/>
      <point x="179.8" y="743.2" type="line"/>
      <point x="179.8" y="386.6" type="line"/>
      <point x="31.2" y="386.6" type="line"/>
    </contour>
  </outline>
</glyph>
<glyph name="ordmasculine" format="2">
  <advance width="350.4"/>
  <unicode hex="00BA"/>
  <outline>
    <contour>
      <point x="56.2" y="291.6" type="line"/>
      <point x="302.6" y="291.6" type="line"/>
      <point x="302.6" y="308.8" type="line"/>
      <point x="56.2" y="308.8" type="line"/>
    </contour>
    <component base="o.superior" xOffset="15.2"/>
  </outline>
</glyph>
<glyph name="questiondown" format="2">
  <advance width="414.0"/>
  <unicode hex="00BF"/>
  <outline>
    <contour>
      <point x="240.4" y="267.2" type="line"/>
      <point x="220.4" y="267.2" type="line"/>
      <point x="220.4" y="194.0" type="line"/>
      <point x="98.0" y="128.6"/>
      <point x="35.8" y="79.2"/>
      <point x="35.8" y="-34.8" type="curve" smooth="yes"/>
      <point x="35.8" y="-170.0"/>
      <point x="129.6" y="-220.0"/>
      <point x="216.2" y="-220.0" type="curve" smooth="yes"/>
      <point x="282.6" y="-220.0"/>
      <point x="352.6" y="-197.8"/>
      <point x="405.8" y="-156.2" type="curve"/>
      <point x="394.6" y="-141.2" type="line"/>
      <point x="340.4" y="-182.6"/>
      <point x="275.0" y="-200.6"/>
      <point x="216.2" y="-200.6" type="curve" smooth="yes"/>
      <point x="137.8" y="-200.6"/>
      <point x="56.4" y="-149.2"/>
      <point x="56.4" y="-36.0" type="curve" smooth="yes"/>
      <point x="56.4" y="55.6"/>
      <point x="103.6" y="118.2"/>
      <point x="240.4" y="182.2" type="curve"/>
    </contour>
    <contour>
      <point x="243.4" y="513.0" type="curve" smooth="yes"/>
      <point x="243.4" y="529.0"/>
      <point x="240.8" y="530.0"/>
      <point x="227.60000000000002" y="530.0" type="curve" smooth="yes"/>
      <point x="213.4" y="530.0"/>
      <point x="212.4" y="529.0"/>
      <point x="212.4" y="513.0" type="curve" smooth="yes"/>
      <point x="212.4" y="497.0"/>
      <point x="213.4" y="496.0"/>
      <point x="227.60000000000002" y="496.0" type="curve" smooth="yes"/>
      <point x="242.4" y="496.0"/>
      <point x="243.4" y="497.0"/>
    </contour>
  </outline>
</glyph>
<glyph name="AE" format="2">
  <advance width="882.4000000000001"/>
  <unicode hex="00C6"/>
  <anchor x="452.4" y="700.0" name="top"/>
  <outline>
    <contour>
      <point x="12.399999999999999" y="0.0" type="line"/>
      <point x="35.6" y="-0.6" type="line"/>
      <point x="227.2" y="323.2" type="line"/>
      <point x="440.0" y="323.2" type="line"/>
      <point x="440.0" y="0.0" type="line"/>
      <point x="854.6" y="0.0" type="line"/>
      <point x="854.6" y="20.0" type="line"/>
      <point x="460.0" y="20.0" type="line"/>
      <point x="460.0" y="322.6" type="line"/>
      <point x="815.2" y="322.6" type="line"/>
      <point x="815.2" y="342.6" type="line"/>
      <point x="460.0" y="342.6" type="line"/>
      <point x="460.0" y="680.0" type="line"/>
      <point x="837.0" y="680.0" type="line"/>
      <point x="837.0" y="700.0" type="line"/>
      <point x="430.0" y="700.0" type="line"/>
    </contour>
    <contour>
      <point x="238.60000000000002" y="342.6" type="line"/>
      <point x="440.0" y="679.8" type="line"/>
      <point x="440.0" y="342.6" type="line"/>
    </contour>
  </outline>
</glyph>
<glyph name="multiply" format="2">
  <advance width="434.0"/>
  <unicode hex="00D7"/>
  <outline>
    <contour>
      <point x="77.6" y="77.2" type="line"/>
      <point x="216.8" y="269.8" type="line"/>
      <point x="356.0" y="79.0" type="line"/>
      <point x="372.4" y="90.0" type="line"/>
      <point x="229.6" y="288.0" type="line"/>
      <point x="372.6" y="488.0" type="line"/>
      <point x="356.2" y="499.0" type="line"/>
      <point x="216.8" y="306.8" type="line"/>
      <point x="77.2" y="499.8" type="line"/>
      <point x="60.8" y="488.8" type="line"/>
      <point x="204.6" y="288.0" type="line"/>
      <point x="61.2" y="88.2" type="line"/>
    </contour>
  </outline>
</glyph>
<glyph name="Thorn" format="2">
  <advance width="568.0"/>
  <unicode hex="00DE"/>
  <outline>
    <contour>
      <point x="82.6" y="0.0" type="line"/>
      <point x="102.6" y="0.0" type="line"/>
      <point x="102.6" y="179.8" type="line"/>
      <point x="173.4" y="177.6"/>
      <point x="216.4" y="177.2"/>
      <point x="276.4" y="177.2" type="curve" smooth="yes"/>
      <point x="453.6" y="177.2"/>
      <point x="527.2" y="234.8"/>
      <point x="527.2" y="403.2" type="curve" smooth="yes"/>
      <point x="527.2" y="557.4"/>
      <point x="475.6" y="612.8"/>
      <point x="268.20000000000005" y="612.8" type="curve" smooth="yes"/>
      <point x="235.0" y="612.8"/>
      <point x="193.8" y="611.4"/>
      <point x="102.6" y="607.0" type="curve"/>
      <point x="102.6" y="700.0" type="line"/>
      <point x="82.6" y="700.0" type="line"/>
    </contour>
    <contour>
      <point x="277.0" y="197.2" type="curve" smooth="yes"/>
      <point x="209.0" y="197.2"/>
      <point x="171.60000000000002" y="198.4"/>
      <point x="102.6" y="200.2" type="curve"/>
      <point x="102.6" y="587.6" type="line"/>
      <point x="194.60000000000002" y="592.6"/>
      <point x="234.0" y="594.0"/>
      <point x="268.8" y="594.0" type="curve" smooth="yes"/>
      <point x="461.40000000000003" y="594.0"/>
      <point x="507.2" y="539.8"/>
      <point x="507.2" y="401.4" type="curve" smooth="yes"/>
      <point x="507.2" y="252.4"/>
      <point x="448.8" y="197.2"/>
    </contour>
  </outline>
</glyph>
<glyph name="divide" format="2">
  <advance width="446.0"/>
  <unicode hex="00F7"/>
  <outline>
    <contour>
      <point x="207.8" y="88.6" type="curve" smooth="yes"/>
      <point x="207.8" y="72.6"/>
      <point x="208.6" y="71.6"/>
      <point x="223.0" y="71.6" type="curve" smooth="yes"/>
      <point x="237.8" y="71.6"/>
      <point x="238.2" y="72.6"/>
      <point x="238.2" y="88.6" type="curve" smooth="yes"/>
      <point x="238.2" y="104.6"/>
      <point x="237.2" y="105.6"/>
      <point x="223.0" y="105.6" type="curve" smooth="yes"/>
      <point x="208.2" y="105.6"/>
      <point x="207.8" y="104.6"/>
    </contour>
    <contour>
      <point x="207.8" y="489.4" type="curve" smooth="yes"/>
      <point x="207.8" y="473.4"/>
      <point x="209.2" y="472.4"/>
      <point x="223.0" y="472.4" type="curve" smooth="yes"/>
      <point x="237.8" y="472.4"/>
      <point x="238.2" y="473.4"/>
      <point x="238.2" y="489.4" type="curve" smooth="yes"/>
      <point x="238.2" y="505.4"/>
      <point x="237.8" y="506.4"/>
      <point x="223.0" y="506.4" type="curve" smooth="yes"/>
      <point x="208.2" y="506.4"/>
      <point x="207.8" y="505.4"/>
    </contour>
    <contour>
      <point x="48.6" y="279.0" type="line"/>
      <point x="397.4" y="279.0" type="line"/>
      <point x="397.4" y="299.0" type="line"/>
      <point x="48.6" y="299.0" type="line"/>
    </contour>
  </outline>
</glyph>
<glyph name="thorn" format="2">
  <advance width="498.0"/>
  <unicode hex="00FE"/>
  <outline>
    <contour>
      <point x="76.0" y="-210.0" type="line"/>
      <point x="96.0" y="-210.0" type="line"/>
      <point x="96.0" y="5.2" type="line"/>
      <point x="141.0" y="-5.199999999999999"/>
      <point x="186.4" y="-10.0"/>
      <point x="225.60000000000002" y="-10.0" type="curve" smooth="yes"/>
      <point x="383.6" y="-10.0"/>
      <point x="451.0" y="70.6"/>
      <point x="451.0" y="271.6" type="curve" smooth="yes"/>
      <point x="451.0" y="445.0"/>
      <point x="376.8" y="540.0"/>
      <point x="240.4" y="540.0" type="curve" smooth="yes"/>
      <point x="193.8" y="540.0"/>
      <point x="142.0" y="531.0"/>
      <point x="96.0" y="517.6" type="curve"/>
      <point x="96.0" y="740.0" type="line"/>
      <point x="76.0" y="740.0" type="line"/>
    </contour>
    <contour>
      <point x="222.60000000000002" y="7.8" type="curve" smooth="yes"/>
      <point x="188.2" y="7.8"/>
      <point x="148.8" y="12.6"/>
      <point x="96.0" y="23.8" type="curve"/>
      <point x="96.0" y="497.2" type="line"/>
      <point x="146.2" y="514.6"/>
      <point x="192.0" y="521.6"/>
      <point x="234.60000000000002" y="521.6" type="curve" smooth="yes"/>
      <point x="363.8" y="521.6"/>
      <point x="431.0" y="434.6"/>
      <point x="431.0" y="271.6" type="curve" smooth="yes"/>
      <point x="431.0" y="79.2"/>
      <point x="370.4" y="7.8"/>
    </contour>
  </outline>
</glyph>
<glyph name="Dcroat" format="2">
  <advance width="637.2"/>
  <unicode hex="0110"/>
  <outline>
    <contour>
      <point x="1.0" y="350.0" type="line"/>
      <point x="256.6" y="350.0" type="line"/>
      <point x="256.6" y="370.0" type="line"/>
      <point x="1.0" y="370.0" type="line"/>
    </contour>
    <component base="D" xOffset="4.199999999999999"/>
  </outline>
</glyph>
<glyph name="dcroat" format="2">
  <advance width="498.0"/>
  <unicode hex="0111"/>
  <outline>
    <contour>
      <point x="244.4" y="618.0" type="line"/>
      <point x="503.20000000000005" y="618.0" type="line"/>
      <point x="503.20000000000005" y="636.0" type="line"/>
      <point x="244.4" y="636.0" type="line"/>
    </contour>
    <component base="d"/>
  </outline>
</glyph>
<glyph name="Hbar" format="2">
  <advance width="660.4000000000001"/>
  <unicode hex="0126"/>
  <outline>
    <contour>
      <point x="24.6" y="501.2" type="line"/>
      <point x="82.6" y="501.2" type="line"/>
      <point x="82.6" y="0.0" type="line"/>
      <point x="102.6" y="0.0" type="line"/>
      <point x="102.6" y="290.6" type="line"/>
      <point x="557.8" y="290.6" type="line"/>
      <point x="557.8" y="0.0" type="line"/>
      <point x="577.8" y="0.0" type="line"/>
      <point x="577.8" y="501.2" type="line"/>
      <point x="635.8" y="501.2" type="line"/>
      <point x="635.8" y="519.4" type="line"/>
      <point x="577.8" y="519.4" type="line"/>
      <point x="577.8" y="700.0" type="line"/>
      <point x="557.8" y="700.0" type="line"/>
      <point x="557.8" y="519.4" type="line"/>
      <point x="102.6" y="519.4" type="line"/>
      <point x="102.6" y="700.0" type="line"/>
      <point x="82.6" y="700.0" type="line"/>
      <point x="82.6" y="519.4" type="line"/>
      <point x="24.6" y="519.4" type="line"/>
    </contour>
    <contour>
      <point x="102.6" y="310.0" type="line"/>
      <point x="102.6" y="501.2" type="line"/>
      <point x="557.8" y="501.2" type="line"/>
      <point x="557.8" y="310.0" type="line"/>
    </contour>
  </outline>
</glyph>
<glyph name="hbar" format="2">
  <advance width="513.8"/>
  <unicode hex="0127"/>
  <outline>
    <contour>
      <point x="-4.6000000000000005" y="618.0" type="line"/>
      <point x="278.20000000000005" y="618.0" type="line"/>
      <point x="278.20000000000005" y="636.0" type="line"/>
      <point x="-4.6000000000000005" y="636.0" type="line"/>
    </contour>
    <component base="h"/>
  </outline>
</glyph>
<glyph name="Idotaccent" format="2">
  <advance width="185.2"/>
  <unicode hex="0130"/>
  <outline>
    <contour>
      <point x="92.6" y="819.0" type="curve" smooth="yes"/>
      <point x="107.4" y="819.0"/>
      <point x="107.80000000000001" y="820.0"/>
      <point x="107.80000000000001" y="836.0" type="curve" smooth="yes"/>
      <point x="107.80000000000001" y="852.0"/>
      <point x="107.4" y="853.0"/>
      <point x="92.6" y="853.0" type="curve" smooth="yes"/>
      <point x="77.80000000000001" y="853.0"/>
      <point x="77.4" y="852.0"/>
      <point x="77.4" y="836.0" type="curve" smooth="yes"/>
      <point x="77.4" y="820.0"/>
      <point x="78.80000000000001" y="819.0"/>
    </contour>
    <component base="I"/>
  </outline>
</glyph>
<glyph name="dotlessi" format="2">
  <advance width="172.0"/>
  <unicode hex="0131"/>
  <anchor x="95.6" y="0.0" name="ogonek"/>
  <anchor x="86.0" y="0.0" name="bottom"/>
  <anchor x="86.0" y="530.0" name="top"/>
  <outline>
    <contour>
      <point x="76.0" y="0.0" type="line"/>
      <point x="96.0" y="0.0" type="line"/>
      <point x="96.0" y="530.0" type="line"/>
      <point x="76.0" y="530.0" type="line"/>
    </contour>
  </outline>
</glyph>
<glyph name="Ldot" format="2">
  <advance width="472.40000000000003"/>
  <unicode hex="013F"/>
  <outline>
    <contour>
      <point x="311.20000000000005" y="361.8" type="curve" smooth="yes"/>
      <point x="311.20000000000005" y="345.8"/>
      <point x="312.6" y="344.8"/>
      <point x="326.4" y="344.8" type="curve" smooth="yes"/>
      <point x="341.20000000000005" y="344.8"/>
      <point x="341.6" y="345.8"/>
      <point x="341.6" y="361.8" type="curve" smooth="yes"/>
      <point x="341.6" y="377.8"/>
      <point x="341.20000000000005" y="378.8"/>
      <point x="326.4" y="378.8" type="curve" smooth="yes"/>
      <point x="311.6" y="378.8"/>
      <point x="311.20000000000005" y="377.8"/>
    </contour>
    <component base="L"/>
  </outline>
</glyph>
<glyph name="ldot" format="2">
  <advance width="223.4"/>
  <unicode hex="0140"/>
  <outline>
    <contour>
      <point x="200.2" y="339.6" type="curve" smooth="yes"/>
      <point x="215.0" y="339.6"/>
      <point x="215.4" y="340.6"/>
      <point x="215.4" y="356.6" type="curve" smooth="yes"/>
      <point x="215.4" y="372.6"/>
      <point x="215.0" y="373.6"/>
      <point x="200.2" y="373.6" type="curve" smooth="yes"/>
      <point x="185.4" y="373.6"/>
      <point x="185.0" y="372.6"/>
      <point x="185.0" y="356.6" type="curve" smooth="yes"/>
      <point x="185.0" y="340.6"/>
      <point x="186.4" y="339.6"/>
    </contour>
    <component base="l"/>
  </outline>
</glyph>
<glyph name="Lslash" format="2">
  <advance width="486.8"/>
  <unicode hex="0141"/>
  <outline>
    <contour>
      <point x="24.8" y="199.2" type="line"/>
      <point x="97.0" y="252.4" type="line"/>
      <point x="97.0" y="0.0" type="line"/>
      <point x="472.8" y="0.0" type="line"/>
      <point x="472.8" y="19.4" type="line"/>
      <point x="117.0" y="19.4" type="line"/>
      <point x="117.0" y="267.6" type="line"/>
      <point x="335.8" y="425.2" type="line"/>
      <point x="335.8" y="450.4" type="line"/>
      <point x="117.0" y="293.4" type="line"/>
      <point x="117.0" y="700.0" type="line"/>
      <point x="97.0" y="700.0" type="line"/>
      <point x="97.0" y="278.2" type="line"/>
      <point x="24.8" y="225.0" type="line"/>
    </contour>
  </outline>
</glyph>
<glyph name="lslash" format="2">
  <advance width="223.4"/>
  <unicode hex="0142"/>
  <outline>
    <contour>
      <point x="166.8" y="-10.0" type="curve" smooth="yes"/>
      <point x="187.8" y="-10.0"/>
      <point x="209.8" y="-5.6"/>
      <point x="228.60000000000002" y="0.20000000000000018" type="curve"/>
      <point x="224.60000000000002" y="19.6" type="line"/>
      <point x="204.0" y="13.8"/>
      <point x="184.4" y="10.0"/>
      <point x="166.8" y="10.0" type="curve" smooth="yes"/>
      <point x="128.0" y="10.0"/>
      <point x="96.0" y="28.4"/>
      <point x="96.0" y="133.4" type="curve" smooth="yes"/>
      <point x="96.0" y="270.8" type="line"/>
      <point x="201.0" y="375.2" type="line"/>
      <point x="201.0" y="402.0" type="line"/>
      <point x="96.0" y="297.6" type="line"/>
      <point x="96.0" y="740.0" type="line"/>
      <point x="76.0" y="740.0" type="line"/>
      <point x="76.0" y="277.0" type="line"/>
      <point x="15.200000000000001" y="217.2" type="line"/>
      <point x="15.200000000000001" y="191.0" type="line"/>
      <point x="76.0" y="250.2" type="line"/>
      <point x="76.0" y="133.4" type="line" smooth="yes"/>
      <point x="76.0" y="12.4"/>
      <point x="115.0" y="-10.0"/>
    </contour>
  </outline>
</glyph>
<glyph name="eng" format="2">
  <advance width="513.8"/>
  <unicode hex="014B"/>
  <outline>
    <contour>
      <point x="437.8" y="10.0" type="curve"/>
      <point x="437.8" y="400.8" type="line" smooth="yes"/>
      <point x="437.8" y="494.8"/>
      <point x="385.20000000000005" y="540.0"/>
      <point x="296.4" y="540.0" type="curve" smooth="yes"/>
      <point x="220.2" y="540.0"/>
      <point x="161.2" y="515.6"/>
      <point x="96.0" y="483.0" type="curve"/>
      <point x="96.0" y="530.0" type="line"/>
      <point x="76.0" y="530.0" type="line"/>
      <point x="76.0" y="0.0" type="line"/>
      <point x="96.0" y="0.0" type="line"/>
      <point x="96.0" y="462.0" type="line"/>
      <point x="162.8" y="497.0"/>
      <point x="220.60000000000002" y="521.2"/>
      <point x="292.20000000000005" y="521.2" type="curve" smooth="yes"/>
      <point x="378.6" y="521.2"/>
      <point x="417.8" y="475.4"/>
      <point x="417.8" y="400.8" type="curve" smooth="yes"/>
      <point x="417.8" y="8.399999999999999" type="line" smooth="yes"/>
      <point x="417.8" y="-83.6"/>
      <point x="395.20000000000005" y="-145.2"/>
      <point x="354.0" y="-177.2" type="curve" smooth="yes"/>
      <point x="347.0" y="-182.6"/>
      <point x="340.0" y="-187.0"/>
      <point x="332.0" y="-190.4" type="curve"/>
      <point x="341.4" y="-207.8" type="line"/>
      <point x="351.0" y="-203.2"/>
      <point x="360.0" y="-197.2"/>
      <point x="368.20000000000005" y="-191.2" type="curve" smooth="yes"/>
      <point x="413.8" y="-155.0"/>
      <point x="437.8" y="-90.0"/>
    </contour>
  </outline>
</glyph>
<glyph name="OE" format="2">
  <advance width="972.8000000000001"/>
  <unicode hex="0152"/>
  <outline>
    <contour>
      <point x="945.0" y="0.0" type="line"/>
      <point x="945.0" y="20.0" type="line"/>
      <point x="550.4000000000001" y="20.0" type="line"/>
      <point x="550.4000000000001" y="361.0" type="line"/>
      <point x="905.6" y="361.0" type="line"/>
      <point x="905.6" y="381.0" type="line"/>
      <point x="550.4000000000001" y="381.0" type="line"/>
      <point x="550.4000000000001" y="680.0" type="line"/>
      <point x="927.4" y="680.0" type="line"/>
      <point x="927.4" y="700.0" type="line"/>
      <point x="550.4000000000001" y="700.0" type="line"/>
      <point x="479.8" y="703.4"/>
      <point x="405.20000000000005" y="706.4"/>
      <point x="351.4" y="706.4" type="curve" smooth="yes"/>
      <point x="191.60000000000002" y="706.4"/>
      <point x="53.6" y="647.8"/>
      <point x="53.6" y="352.4" type="curve" smooth="yes"/>
      <point x="53.6" y="49.599999999999994"/>
      <point x="205.20000000000002" y="-7.6"/>
      <point x="361.4" y="-7.6" type="curve" smooth="yes"/>
      <point x="421.4" y="-7.6"/>
      <point x="479.6" y="-4.0"/>
      <point x="550.4000000000001" y="0.0" type="curve"/>
    </contour>
    <contour>
      <point x="530.4000000000001" y="17.6" type="line"/>
      <point x="493.40000000000003" y="15.6"/>
      <point x="426.0" y="11.8"/>
      <point x="371.0" y="11.8" type="curve" smooth="yes"/>
      <point x="217.2" y="11.8"/>
      <point x="74.6" y="56.6"/>
      <point x="74.6" y="352.0" type="curve" smooth="yes"/>
      <point x="74.6" y="640.0"/>
      <point x="220.0" y="687.6"/>
      <point x="362.6" y="687.6" type="curve" smooth="yes"/>
      <point x="389.4" y="687.6"/>
      <point x="508.6" y="683.0"/>
      <point x="530.4000000000001" y="681.8" type="curve"/>
    </contour>
  </outline>
</glyph>
<glyph name="oe" format="2">
  <advance width="894"/>
  <unicode hex="0153"/>
  <outline>
    <contour>
      <point x="47" y="266" type="curve" smooth="yes"/>
      <point x="47" y="60"/>
      <point x="111" y="-10"/>
      <point x="259" y="-10" type="curve" smooth="yes"/>
      <point x="381" y="-10"/>
      <point x="438" y="38"/>
      <point x="460" y="140" type="curve"/>
      <point x="484" y="41"/>
      <point x="550" y="-10"/>
      <point x="650" y="-10" type="curve" smooth="yes"/>
      <point x="728" y="-10"/>
      <point x="800" y="2"/>
      <point x="845" y="16" type="curve"/>
      <point x="841" y="35" type="line"/>
      <point x="798" y="23"/>
      <point x="725" y="9"/>
      <point x="651" y="9" type="curve" smooth="yes"/>
      <point x="547" y="9"/>
      <point x="470" y="70"/>
      <point x="470" y="241" type="curve" smooth="yes"/>
      <point x="470" y="254"/>
      <point x="470" y="272"/>
      <point x="471" y="287" type="curve"/>
      <point x="660" y="287"/>
      <point x="807" y="300"/>
      <point x="854" y="304" type="curve"/>
      <point x="854" y="309"/>
      <point x="855" y="313"/>
      <point x="855" y="325" type="curve" smooth="yes"/>
      <point x="855" y="476"/>
      <point x="789" y="540"/>
      <point x="671" y="540" type="curve" smooth="yes"/>
      <point x="568" y="540"/>
      <point x="493" y="487"/>
      <point x="464" y="380" type="curve"/>
      <point x="444" y="487"/>
      <point x="390" y="540"/>
      <point x="259" y="540" type="curve" smooth="yes"/>
      <point x="104" y="540"/>
      <point x="47" y="466"/>
    </contour>
    <contour>
      <point x="67" y="266" type="curve" smooth="yes"/>
      <point x="67" y="450"/>
      <point x="116" y="521"/>
      <point x="259" y="521" type="curve" smooth="yes"/>
      <point x="401" y="521"/>
      <point x="450" y="450"/>
      <point x="450" y="266" type="curve" smooth="yes"/>
      <point x="450" y="77"/>
      <point x="395" y="9"/>
      <point x="259" y="9" type="curve" smooth="yes"/>
      <point x="123" y="9"/>
      <point x="67" y="77"/>
    </contour>
    <contour>
      <point x="472" y="305" type="curve"/>
      <point x="489" y="478"/>
      <point x="583" y="521"/>
      <point x="671" y="521" type="curve" smooth="yes"/>
      <point x="779" y="521"/>
      <point x="835" y="463"/>
      <point x="835" y="321" type="curve"/>
      <point x="802" y="316"/>
      <point x="647" y="305"/>
    </contour>
  </outline>
</glyph>
<glyph name="uni0162" format="2">
  <advance width="474.8"/>
  <unicode hex="0162"/>
  <outline>
    <contour>
      <point x="157.60000000000002" y="-182.2" type="curve"/>
      <point x="150.2" y="-198.4" type="line"/>
      <point x="184.0" y="-214.0"/>
      <point x="214.8" y="-220.0"/>
      <point x="238.8" y="-220.0" type="curve" smooth="yes"/>
      <point x="294.4" y="-220.0"/>
      <point x="320.20000000000005" y="-182.8"/>
      <point x="320.20000000000005" y="-134.0" type="curve" smooth="yes"/>
      <point x="320.20000000000005" y="-87.6"/>
      <point x="289.4" y="-37.6"/>
      <point x="246.60000000000002" y="2.0" type="curve"/>
      <point x="227.4" y="0.0" type="line"/>
      <point x="266.4" y="-46.8"/>
      <point x="301.4" y="-90.2"/>
      <point x="301.4" y="-134.0" type="curve" smooth="yes"/>
      <point x="301.4" y="-176.8"/>
      <point x="278.6" y="-201.8"/>
      <point x="236.4" y="-201.8" type="curve" smooth="yes"/>
      <point x="213.8" y="-201.8"/>
      <point x="187.2" y="-195.2"/>
    </contour>
    <component base="T"/>
  </outline>
</glyph>
<glyph name="Tbar" format="2">
  <advance width="474.8"/>
  <unicode hex="0166"/>
  <outline>
    <contour>
      <point x="65.4" y="370.0" type="line"/>
      <point x="227.4" y="370.0" type="line"/>
      <point x="227.4" y="0.0" type="line"/>
      <point x="247.4" y="0.0" type="line"/>
      <point x="247.4" y="370.0" type="line"/>
      <point x="409.4" y="370.0" type="line"/>
      <point x="409.4" y="390.0" type="line"/>
      <point x="247.4" y="390.0" type="line"/>
      <point x="247.4" y="681.4" type="line"/>
      <point x="469.4" y="681.4" type="line"/>
      <point x="469.4" y="700.0" type="line"/>
      <point x="5.4" y="700.0" type="line"/>
      <point x="5.4" y="681.4" type="line"/>
      <point x="227.4" y="681.4" type="line"/>
      <point x="227.4" y="390.0" type="line"/>
      <point x="65.4" y="390.0" type="line"/>
    </contour>
  </outline>
</glyph>
<glyph name="tbar" format="2">
  <advance width="368.0"/>
  <unicode hex="0167"/>
  <outline>
    <contour>
      <point x="133.0" y="314.0" type="line"/>
      <point x="315.6" y="314.0" type="line"/>
      <point x="315.6" y="332.0" type="line"/>
      <point x="133.0" y="332.0" type="line"/>
      <point x="133.0" y="510.6" type="line"/>
      <point x="345.6" y="510.6" type="line"/>
      <point x="345.6" y="530.0" type="line"/>
      <point x="133.0" y="530.0" type="line"/>
      <point x="133.0" y="665.0" type="line"/>
      <point x="117.6" y="665.0" type="line"/>
      <point x="113.0" y="530.0" type="line"/>
      <point x="9.6" y="524.4" type="line"/>
      <point x="9.6" y="510.6" type="line"/>
      <point x="113.0" y="510.6" type="line"/>
      <point x="113.0" y="332.0" type="line"/>
      <point x="47.6" y="332.0" type="line"/>
      <point x="47.6" y="314.0" type="line"/>
      <point x="113.0" y="314.0" type="line"/>
      <point x="113.0" y="134.8" type="line" smooth="yes"/>
      <point x="113.0" y="42.2"/>
      <point x="150.2" y="-10.0"/>
      <point x="242.4" y="-10.0" type="curve" smooth="yes"/>
      <point x="274.2" y="-10.0"/>
      <point x="315.6" y="-3.5999999999999996"/>
      <point x="360.20000000000005" y="10.600000000000001" type="curve"/>
      <point x="355.4" y="29.0" type="line"/>
      <point x="320.4" y="16.8"/>
      <point x="283.4" y="9.4"/>
      <point x="244.0" y="9.4" type="curve" smooth="yes"/>
      <point x="165.4" y="9.4"/>
      <point x="133.0" y="48.4"/>
      <point x="133.0" y="134.8" type="curve" smooth="yes"/>
    </contour>
  </outline>
</glyph>
<glyph name="uogonek" format="2">
  <advance width="509.4"/>
  <unicode hex="0173"/>
  <outline>
    <contour>
      <point x="476.0" y="-221.0" type="curve" smooth="yes"/>
      <point x="489.6" y="-221.0"/>
      <point x="500.0" y="-218.4"/>
      <point x="509.6" y="-213.8" type="curve"/>
      <point x="506.0" y="-198.2" type="line"/>
      <point x="497.6" y="-201.8"/>
      <point x="489.4" y="-203.2"/>
      <point x="479.0" y="-203.2" type="curve" smooth="yes"/>
      <point x="453.8" y="-203.2"/>
      <point x="429.4" y="-191.4"/>
      <point x="429.4" y="-147.6" type="curve" smooth="yes"/>
      <point x="429.4" y="-91.4"/>
      <point x="463.20000000000005" y="-43.0"/>
      <point x="503.8" y="-1.0" type="curve"/>
      <point x="497.20000000000005" y="15.6" type="line"/>
      <point x="486.8" y="10.6"/>
      <point x="476.20000000000005" y="8.2"/>
      <point x="466.0" y="8.2" type="curve" smooth="yes"/>
      <point x="440.6" y="8.2"/>
      <point x="420.6" y="24.6"/>
      <point x="420.6" y="76.0" type="curve" smooth="yes"/>
      <point x="420.6" y="530.0" type="line"/>
      <point x="400.6" y="530.0" type="line"/>
      <point x="400.6" y="67.6" type="line"/>
      <point x="338.6" y="33.4"/>
      <point x="282.4" y="8.8"/>
      <point x="215.2" y="8.8" type="curve" smooth="yes"/>
      <point x="135.2" y="8.8"/>
      <point x="96.0" y="52.6"/>
      <point x="96.0" y="121.2" type="curve" smooth="yes"/>
      <point x="96.0" y="530.0" type="line"/>
      <point x="76.0" y="530.0" type="line"/>
      <point x="76.0" y="121.2" type="line" smooth="yes"/>
      <point x="76.0" y="35.2"/>
      <point x="126.6" y="-10.0"/>
      <point x="211.0" y="-10.0" type="curve" smooth="yes"/>
      <point x="283.20000000000005" y="-10.0"/>
      <point x="339.4" y="14.4"/>
      <point x="403.20000000000005" y="48.6" type="curve"/>
      <point x="408.6" y="8.0"/>
      <point x="436.4" y="-10.0"/>
      <point x="464.0" y="-10.0" type="curve" smooth="yes"/>
      <point x="470.8" y="-10.0"/>
      <point x="477.8" y="-8.2"/>
      <point x="485.8" y="-6.2" type="curve"/>
      <point x="492.0" y="8.0" type="line"/>
      <point x="442.4" y="-41.4"/>
      <point x="409.8" y="-96.6"/>
      <point x="409.8" y="-149.0" type="curve" smooth="yes"/>
      <point x="409.8" y="-203.4"/>
      <point x="442.8" y="-221.0"/>
    </contour>
  </outline>
</glyph>
<glyph name="longs" format="2">
  <advance width="247.60000000000002"/>
  <unicode hex="017F"/>
  <outline>
    <contour>
      <point x="136.6" y="491.2" type="line"/>
      <point x="136.6" y="684.0"/>
      <point x="190.0" y="731.0"/>
      <point x="280.8" y="731.0" type="curve" smooth="yes"/>
      <point x="318.6" y="731.0"/>
      <point x="353.6" y="724.4"/>
      <point x="396.6" y="712.6" type="curve"/>
      <point x="401.0" y="731.4" type="line"/>
      <point x="353.20000000000005" y="744.4"/>
      <point x="317.8" y="750.4"/>
      <point x="279.2" y="750.4" type="curve" smooth="yes"/>
      <point x="161.60000000000002" y="750.4"/>
      <point x="116.6" y="658.4"/>
      <point x="116.6" y="491.2" type="curve" smooth="yes"/>
      <point x="116.6" y="484.0" type="line"/>
      <point x="24.6" y="478.4" type="line"/>
      <point x="24.6" y="464.6" type="line"/>
      <point x="116.6" y="464.6" type="line"/>
      <point x="116.6" y="0.0" type="line"/>
      <point x="136.6" y="0.0" type="line"/>
    </contour>
  </outline>
</glyph>
<glyph name="uni018F" format="2">
  <advance width="605.8"/>
  <unicode hex="018F"/>
  <outline>
    <contour>
      <point x="61.6" y="659.8" type="line"/>
      <point x="114.4" y="674.2"/>
      <point x="207.2" y="692.0"/>
      <point x="297.8" y="692.0" type="curve" smooth="yes"/>
      <point x="439.4" y="692.0"/>
      <point x="532.2" y="591.0"/>
      <point x="532.2" y="358.6" type="curve" smooth="yes"/>
      <point x="532.2" y="345.0"/>
      <point x="531.4000000000001" y="331.8"/>
      <point x="530.6" y="319.0" type="curve"/>
      <point x="360.0" y="318.6"/>
      <point x="197.4" y="306.8"/>
      <point x="46.0" y="294.8" type="curve"/>
      <point x="46.0" y="288.2"/>
      <point x="45.400000000000006" y="282.2"/>
      <point x="45.400000000000006" y="270.8" type="curve" smooth="yes"/>
      <point x="45.400000000000006" y="82.6"/>
      <point x="123.4" y="-9.6"/>
      <point x="275.0" y="-9.6" type="curve" smooth="yes"/>
      <point x="453.6" y="-9.6"/>
      <point x="552.2" y="112.8"/>
      <point x="552.2" y="370.6" type="curve" smooth="yes"/>
      <point x="552.2" y="601.8"/>
      <point x="452.4" y="710.0"/>
      <point x="302.0" y="710.0" type="curve" smooth="yes"/>
      <point x="199.4" y="710.0"/>
      <point x="108.0" y="692.6"/>
      <point x="55.400000000000006" y="676.6" type="curve"/>
    </contour>
    <contour>
      <point x="529.4000000000001" y="299.4" type="curve"/>
      <point x="511.0" y="100.4"/>
      <point x="422.20000000000005" y="9.6"/>
      <point x="276.20000000000005" y="9.6" type="curve" smooth="yes"/>
      <point x="131.0" y="9.6"/>
      <point x="65.0" y="98.2"/>
      <point x="65.0" y="278.0" type="curve"/>
      <point x="179.4" y="291.0"/>
      <point x="377.8" y="298.8"/>
    </contour>
  </outline>
</glyph>
<glyph name="florin" format="2">
  <advance width="563.6"/>
  <unicode hex="0192"/>
  <outline>
    <contour>
      <point x="96.4" y="384.8" type="line"/>
      <point x="93.4" y="366.0" type="line"/>
      <point x="188.4" y="366.0" type="line"/>
      <point x="98.0" y="-210.0" type="line"/>
      <point x="115.60000000000001" y="-210.0" type="line"/>
      <point x="206.0" y="366.0" type="line"/>
      <point x="452.2" y="366.0" type="line"/>
      <point x="455.2" y="384.8" type="line"/>
      <point x="209.0" y="384.8" type="line"/>
      <point x="216.2" y="426.8" type="line" smooth="yes"/>
      <point x="246.0" y="610.4"/>
      <point x="319.6" y="692.0"/>
      <point x="426.0" y="692.0" type="curve" smooth="yes"/>
      <point x="457.6" y="692.0"/>
      <point x="494.8" y="686.8"/>
      <point x="530.4000000000001" y="677.6" type="curve"/>
      <point x="537.6" y="695.0" type="line"/>
      <point x="503.20000000000005" y="704.8"/>
      <point x="465.0" y="710.0"/>
      <point x="432.20000000000005" y="710.0" type="curve" smooth="yes"/>
      <point x="306.8" y="710.0"/>
      <point x="230.4" y="628.0"/>
      <point x="198.60000000000002" y="427.6" type="curve" smooth="yes"/>
      <point x="191.4" y="384.8" type="line"/>
    </contour>
  </outline>
</glyph>
<glyph name="uni0237" format="2">
  <advance width="172.2"/>
  <unicode hex="0237"/>
  <anchor x="86.6" y="530.0" name="top"/>
  <outline>
    <contour>
      <point x="96.6" y="14.0" type="curve" smooth="yes"/>
      <point x="96.6" y="530.0" type="line"/>
      <point x="76.6" y="530.0" type="line"/>
      <point x="76.6" y="14.0" type="line"/>
      <point x="76.6" y="-82.8"/>
      <point x="54.400000000000006" y="-144.8"/>
      <point x="12.8" y="-176.8" type="curve" smooth="yes"/>
      <point x="5.800000000000001" y="-182.2"/>
      <point x="-1.1999999999999993" y="-186.6"/>
      <point x="-9.2" y="-190.0" type="curve"/>
      <point x="0.1999999999999993" y="-207.8" type="line"/>
      <point x="9.8" y="-203.2"/>
      <point x="18.8" y="-197.2"/>
      <point x="27.0" y="-191.2" type="curve" smooth="yes"/>
      <point x="72.6" y="-155.0"/>
      <point x="96.6" y="-90.0"/>
    </contour>
  </outline>
</glyph>
<glyph name="uni0259" format="2">
  <advance width="486.4"/>
  <unicode hex="0259"/>
  <outline>
    <contour>
      <point x="35.6" y="225.6" type="curve"/>
      <point x="34.6" y="218.4"/>
      <point x="34.6" y="213.0"/>
      <point x="34.6" y="205.0" type="curve" smooth="yes"/>
      <point x="34.6" y="53.6"/>
      <point x="100.6" y="-10.0"/>
      <point x="219.0" y="-10.0" type="curve" smooth="yes"/>
      <point x="341.8" y="-10.0"/>
      <point x="439.4" y="58.4"/>
      <point x="439.4" y="280.4" type="curve" smooth="yes"/>
      <point x="439.4" y="465.8"/>
      <point x="357.8" y="540.0"/>
      <point x="239.4" y="540.0" type="curve" smooth="yes"/>
      <point x="161.4" y="540.0"/>
      <point x="89.2" y="527.8"/>
      <point x="44.400000000000006" y="513.6" type="curve"/>
      <point x="49.0" y="494.8" type="line"/>
      <point x="92.0" y="507.4"/>
      <point x="165.0" y="520.6"/>
      <point x="238.8" y="520.6" type="curve" smooth="yes"/>
      <point x="344.8" y="520.6"/>
      <point x="419.4" y="456.0"/>
      <point x="419.4" y="271.4" type="curve" smooth="yes"/>
      <point x="419.4" y="262.0"/>
      <point x="419.0" y="252.4"/>
      <point x="418.6" y="243.4" type="curve"/>
      <point x="229.2" y="243.4"/>
      <point x="82.2" y="230.4"/>
    </contour>
    <contour>
      <point x="417.4" y="224.6" type="curve"/>
      <point x="400.4" y="52.0"/>
      <point x="306.20000000000005" y="8.8"/>
      <point x="219.0" y="8.8" type="curve" smooth="yes"/>
      <point x="110.4" y="8.8"/>
      <point x="55.0" y="67.2"/>
      <point x="55.0" y="208.8" type="curve"/>
      <point x="87.4" y="213.6"/>
      <point x="242.8" y="224.6"/>
    </contour>
  </outline>
</glyph>
<glyph name="gravecomb" format="2">
  <unicode hex="0300"/>
  <anchor x="-319.0" y="718.0" name="top"/>
  <anchor x="-258.4" y="530.0" name="_top"/>
  <outline>
    <contour>
      <point x="-261.0" y="596.0" type="line"/>
      <point x="-238.0" y="596.0" type="line"/>
      <point x="-374.20000000000005" y="790.0" type="line"/>
      <point x="-400.0" y="790.0" type="line"/>
    </contour>
  </outline>
</glyph>
<glyph name="acutecomb" format="2">
  <unicode hex="0301"/>
  <anchor x="-194.0" y="718.0" name="top"/>
  <anchor x="-258.4" y="530.0" name="_top"/>
  <outline>
    <contour>
      <point x="-275.0" y="596.0" type="line"/>
      <point x="-252.4" y="596.0" type="line"/>
      <point x="-113.0" y="790.0" type="line"/>
      <point x="-138.2" y="790.0" type="line"/>
    </contour>
  </outline>
</glyph>
<glyph name="tildecomb" format="2">
  <unicode hex="0303"/>
  <anchor x="-258.4" y="646.4" name="top"/>
  <anchor x="-258.4" y="530.0" name="_top"/>
  <outline>
    <contour>
      <point x="-394.8" y="607.2" type="curve"/>
      <point x="-375.4" y="607.2" type="line"/>
      <point x="-378.20000000000005" y="617.2"/>
      <point x="-380.0" y="631.8"/>
      <point x="-380.0" y="645.2" type="curve" smooth="yes"/>
      <point x="-380.0" y="681.0"/>
      <point x="-366.4" y="705.0"/>
      <point x="-341.8" y="705.0" type="curve" smooth="yes"/>
      <point x="-287.20000000000005" y="705.0"/>
      <point x="-248.4" y="607.2"/>
      <point x="-175.8" y="607.2" type="curve" smooth="yes"/>
      <point x="-136.2" y="607.2"/>
      <point x="-118.0" y="642.0"/>
      <point x="-118.0" y="688.0" type="curve" smooth="yes"/>
      <point x="-118.0" y="699.6"/>
      <point x="-119.2" y="713.0"/>
      <point x="-121.4" y="726.0" type="curve"/>
      <point x="-139.60000000000002" y="726.0" type="line"/>
      <point x="-137.4" y="714.2"/>
      <point x="-136.2" y="700.8"/>
      <point x="-136.2" y="689.2" type="curve" smooth="yes"/>
      <point x="-136.2" y="656.8"/>
      <point x="-147.4" y="625.6"/>
      <point x="-175.8" y="625.6" type="curve" smooth="yes"/>
      <point x="-240.4" y="625.6"/>
      <point x="-273.8" y="721.8"/>
      <point x="-341.8" y="721.8" type="curve" smooth="yes"/>
      <point x="-378.20000000000005" y="721.8"/>
      <point x="-398.20000000000005" y="692.6"/>
      <point x="-398.20000000000005" y="645.2" type="curve" smooth="yes"/>
      <point x="-398.20000000000005" y="633.6"/>
      <point x="-397.0" y="619.6"/>
    </contour>
  </outline>
</glyph>
<glyph name="uni0304" format="2">
  <unicode hex="0304"/>
  <anchor x="-258.4" y="705.0" name="top"/>
  <anchor x="-258.4" y="530.0" name="_top"/>
  <outline>
    <contour>
      <point x="-380.20000000000005" y="685.0" type="line"/>
      <point x="-136.60000000000002" y="685.0" type="line"/>
      <point x="-136.60000000000002" y="705.0" type="line"/>
      <point x="-380.20000000000005" y="705.0" type="line"/>
    </contour>
  </outline>
</glyph>
<glyph name="uni0306" format="2">
  <unicode hex="0306"/>
  <anchor x="-258.4" y="708.4" name="top"/>
  <anchor x="-258.4" y="530.0" name="_top"/>
  <outline>
    <contour>
      <point x="-258.4" y="609.2" type="curve" smooth="yes"/>
      <point x="-178.0" y="609.2"/>
      <point x="-131.8" y="637.8"/>
      <point x="-122.60000000000001" y="721.2" type="curve" smooth="yes"/>
      <point x="-121.4" y="728.4"/>
      <point x="-120.2" y="735.8"/>
      <point x="-119.80000000000001" y="743.8" type="curve"/>
      <point x="-138.60000000000002" y="745.8" type="line"/>
      <point x="-139.0" y="739.0"/>
      <point x="-139.8" y="732.0"/>
      <point x="-140.60000000000002" y="726.2" type="curve" smooth="yes"/>
      <point x="-147.4" y="651.6"/>
      <point x="-189.4" y="628.0"/>
      <point x="-258.4" y="628.0" type="curve" smooth="yes"/>
      <point x="-327.4" y="628.0"/>
      <point x="-369.0" y="651.6"/>
      <point x="-376.6" y="726.6" type="curve" smooth="yes"/>
      <point x="-377.4" y="732.0"/>
      <point x="-377.8" y="739.0"/>
      <point x="-378.20000000000005" y="745.8" type="curve"/>
      <point x="-397.0" y="743.8" type="line"/>
      <point x="-396.6" y="735.8"/>
      <point x="-395.8" y="728.8"/>
      <point x="-394.6" y="721.6" type="curve" smooth="yes"/>
      <point x="-385.4" y="637.8"/>
      <point x="-338.8" y="609.2"/>
    </contour>
  </outline>
</glyph>
<glyph name="uni0307" format="2">
  <unicode hex="0307"/>
  <anchor x="-258.4" y="644.0" name="top"/>
  <anchor x="-258.4" y="530.0" name="_top"/>
  <outline>
    <contour>
      <point x="-258.4" y="676.0" type="curve" smooth="yes"/>
      <point x="-245.6" y="676.0"/>
      <point x="-243.6" y="684.0"/>
      <point x="-243.6" y="694.0" type="curve" smooth="yes"/>
      <point x="-243.6" y="704.0"/>
      <point x="-245.6" y="712.0"/>
      <point x="-258.4" y="712.0" type="curve" smooth="yes"/>
      <point x="-269.6" y="712.0"/>
      <point x="-273.20000000000005" y="704.0"/>
      <point x="-273.20000000000005" y="694.0" type="curve" smooth="yes"/>
      <point x="-273.20000000000005" y="684.0"/>
      <point x="-269.6" y="676.0"/>
    </contour>
  </outline>
</glyph>
<glyph name="uni0308" format="2">
  <unicode hex="0308"/>
  <anchor x="-258.4" y="644.0" name="top"/>
  <anchor x="-258.4" y="530.0" name="_top"/>
  <outline>
    <contour>
      <point x="-164.4" y="676.0" type="curve" smooth="yes"/>
      <point x="-152.60000000000002" y="676.0"/>
      <point x="-151.0" y="684.0"/>
      <point x="-151.0" y="694.0" type="curve" smooth="yes"/>
      <point x="-151.0" y="704.0"/>
      <point x="-152.60000000000002" y="712.0"/>
      <point x="-164.4" y="712.0" type="curve" smooth="yes"/>
      <point x="-176.2" y="712.0"/>
      <point x="-178.60000000000002" y="704.0"/>
      <point x="-178.60000000000002" y="694.0" type="curve" smooth="yes"/>
      <point x="-178.60000000000002" y="684.0"/>
      <point x="-176.2" y="676.0"/>
    </contour>
    <contour>
      <point x="-352.0" y="676.0" type="curve" smooth="yes"/>
      <point x="-340.20000000000005" y="676.0"/>
      <point x="-338.6" y="684.0"/>
      <point x="-338.6" y="694.0" type="curve" smooth="yes"/>
      <point x="-338.6" y="704.0"/>
      <point x="-340.20000000000005" y="712.0"/>
      <point x="-352.0" y="712.0" type="curve" smooth="yes"/>
      <point x="-363.8" y="712.0"/>
      <point x="-366.20000000000005" y="704.0"/>
      <point x="-366.20000000000005" y="694.0" type="curve" smooth="yes"/>
      <point x="-366.20000000000005" y="684.0"/>
      <point x="-363.8" y="676.0"/>
    </contour>
  </outline>
</glyph>
<glyph name="hookabovecomb" format="2">
  <unicode hex="0309"/>
  <anchor x="-250.0" y="794.0" name="top"/>
  <anchor x="-258.4" y="530.0" name="_top"/>
  <outline>
    <contour>
      <point x="-254.0" y="604.0" type="line"/>
      <point x="-206.0" y="640.6"/>
      <point x="-182.60000000000002" y="680.6"/>
      <point x="-182.60000000000002" y="726.6" type="curve" smooth="yes"/>
      <point x="-182.60000000000002" y="772.8"/>
      <point x="-212.2" y="794.0"/>
      <point x="-251.8" y="794.0" type="curve" smooth="yes"/>
      <point x="-282.20000000000005" y="794.0"/>
      <point x="-308.0" y="783.8"/>
      <point x="-330.20000000000005" y="757.6" type="curve"/>
      <point x="-318.20000000000005" y="745.4" type="line"/>
      <point x="-300.6" y="767.2"/>
      <point x="-278.20000000000005" y="777.0"/>
      <point x="-252.0" y="777.0" type="curve" smooth="yes"/>
      <point x="-223.2" y="777.0"/>
      <point x="-202.0" y="758.8"/>
      <point x="-202.0" y="726.0" type="curve" smooth="yes"/>
      <point x="-202.0" y="686.0"/>
      <point x="-218.0" y="654.8"/>
      <point x="-264.0" y="617.0" type="curve"/>
    </contour>
  </outline>
</glyph>
<glyph name="uni030A" format="2">
  <unicode hex="030A"/>
  <anchor x="-258.4" y="741.4" name="top"/>
  <anchor x="-258.4" y="530.0" name="_top"/>
  <outline>
    <contour>
      <point x="-258.4" y="617.0" type="curve" smooth="yes"/>
      <point x="-208.4" y="617.0"/>
      <point x="-182.4" y="644.2"/>
      <point x="-182.4" y="695.0" type="curve" smooth="yes"/>
      <point x="-182.4" y="745.8"/>
      <point x="-208.4" y="773.0"/>
      <point x="-258.4" y="773.0" type="curve" smooth="yes"/>
      <point x="-308.4" y="773.0"/>
      <point x="-334.4" y="745.8"/>
      <point x="-334.4" y="695.0" type="curve" smooth="yes"/>
      <point x="-334.4" y="644.2"/>
      <point x="-308.4" y="617.0"/>
    </contour>
    <contour>
      <point x="-258.4" y="634.4" type="curve" smooth="yes"/>
      <point x="-296.0" y="634.4"/>
      <point x="-315.4" y="655.4"/>
      <point x="-315.4" y="695.0" type="curve" smooth="yes"/>
      <point x="-315.4" y="735.2"/>
      <point x="-296.0" y="755.6"/>
      <point x="-258.4" y="755.6" type="curve" smooth="yes"/>
      <point x="-220.8" y="755.6"/>
      <point x="-201.4" y="735.2"/>
      <point x="-201.4" y="695.0" type="curve" smooth="yes"/>
      <point x="-201.4" y="655.4"/>
      <point x="-220.8" y="634.4"/>
    </contour>
  </outline>
</glyph>
<glyph name="uni030B" format="2">
  <unicode hex="030B"/>
  <anchor x="-189.60000000000002" y="790.0" name="top"/>
  <anchor x="-258.4" y="530.0" name="_top"/>
  <outline>
    <contour>
      <point x="-204.60000000000002" y="596.0" type="line"/>
      <point x="-182.0" y="596.0" type="line"/>
      <point x="-43.2" y="790.0" type="line"/>
      <point x="-68.4" y="790.0" type="line"/>
    </contour>
    <contour>
      <point x="-336.4" y="596.0" type="line"/>
      <point x="-313.8" y="596.0" type="line"/>
      <point x="-175.0" y="790.0" type="line"/>
      <point x="-200.2" y="790.0" type="line"/>
    </contour>
  </outline>
</glyph>
<glyph name="uni030F" format="2">
  <unicode hex="030F"/>
  <anchor x="-309.6" y="790.0" name="top"/>
  <anchor x="-258.4" y="530.0" name="_top"/>
  <outline>
    <contour>
      <point x="-317.6" y="596.0" type="line"/>
      <point x="-294.6" y="596.0" type="line"/>
      <point x="-430.8" y="790.0" type="line"/>
      <point x="-456.0" y="790.0" type="line"/>
    </contour>
    <contour>
      <point x="-185.8" y="596.0" type="line"/>
      <point x="-162.8" y="596.0" type="line"/>
      <point x="-299.0" y="790.0" type="line"/>
      <point x="-324.20000000000005" y="790.0" type="line"/>
    </contour>
  </outline>
</glyph>
<glyph name="uni0312" format="2">
  <unicode hex="0312"/>
  <anchor x="-258.4" y="530.0" name="_top"/>
  <outline>
    <contour>
      <point x="-248.0" y="595.0" type="line"/>
      <point x="-262.20000000000005" y="611.0"/>
      <point x="-270.20000000000005" y="642.0"/>
      <point x="-270.20000000000005" y="675.0" type="curve" smooth="yes"/>
      <point x="-270.20000000000005" y="710.0"/>
      <point x="-261.8" y="746.0"/>
      <point x="-226.60000000000002" y="790.0" type="curve"/>
      <point x="-252.4" y="790.0" type="line"/>
      <point x="-278.6" y="753.0"/>
      <point x="-290.20000000000005" y="720.0"/>
      <point x="-290.20000000000005" y="675.0" type="curve" smooth="yes"/>
      <point x="-290.20000000000005" y="637.0"/>
      <point x="-280.8" y="608.0"/>
      <point x="-270.6" y="595.0" type="curve"/>
    </contour>
  </outline>
</glyph>
<glyph name="uni031B" format="2">
  <unicode hex="031B"/>
  <anchor x="-173.0" y="530.0" name="_topright"/>
  <anchor x="-33.0" y="688.2" name="topright"/>
  <outline>
    <contour>
      <point x="-183.0" y="513.0" type="line"/>
      <point x="-175.4" y="513.0" type="line" smooth="yes"/>
      <point x="-64.2" y="513.0"/>
      <point x="-28.200000000000003" y="602.2"/>
      <point x="-80.80000000000001" y="687.6" type="curve"/>
      <point x="-98.0" y="678.4" type="line"/>
      <point x="-49.2" y="598.8"/>
      <point x="-87.0" y="530.0"/>
      <point x="-177.2" y="530.0" type="curve" smooth="yes"/>
      <point x="-183.0" y="530.0" type="line"/>
    </contour>
  </outline>
</glyph>
<glyph name="uni0326" format="2">
  <unicode hex="0326"/>
  <anchor x="-258.4" y="0.0" name="_bottom"/>
  <outline>
    <contour>
      <point x="-292.4" y="-220.0" type="curve"/>
      <point x="-271.0" y="-220.0" type="line"/>
      <point x="-250.8" y="-184.6"/>
      <point x="-241.4" y="-150.8"/>
      <point x="-241.4" y="-111.8" type="curve" smooth="yes"/>
      <point x="-241.4" y="-97.0"/>
      <point x="-244.0" y="-84.0"/>
      <point x="-247.8" y="-73.0" type="curve"/>
      <point x="-269.0" y="-73.0" type="line"/>
      <point x="-263.6" y="-83.8"/>
      <point x="-260.2" y="-96.8"/>
      <point x="-260.2" y="-111.8" type="curve" smooth="yes"/>
      <point x="-260.2" y="-145.2"/>
      <point x="-270.4" y="-180.8"/>
    </contour>
  </outline>
</glyph>
<glyph name="uni0327" format="2">
  <unicode hex="0327"/>
  <anchor x="-258.4" y="0.0" name="_bottom"/>
  <anchor x="-257.0" y="-220.0" name="bottom"/>
  <outline>
    <contour>
      <point x="-338.20000000000005" y="-182.2" type="curve"/>
      <point x="-345.6" y="-198.4" type="line"/>
      <point x="-311.8" y="-214.0"/>
      <point x="-281.0" y="-220.0"/>
      <point x="-257.0" y="-220.0" type="curve" smooth="yes"/>
      <point x="-201.4" y="-220.0"/>
      <point x="-175.60000000000002" y="-182.8"/>
      <point x="-175.60000000000002" y="-134.0" type="curve" smooth="yes"/>
      <point x="-175.60000000000002" y="-87.6"/>
      <point x="-206.4" y="-37.6"/>
      <point x="-252.4" y="0.0" type="curve"/>
      <point x="-274.0" y="0.0" type="line"/>
      <point x="-229.4" y="-46.8"/>
      <point x="-194.4" y="-90.2"/>
      <point x="-194.4" y="-134.0" type="curve" smooth="yes"/>
      <point x="-194.4" y="-176.8"/>
      <point x="-217.2" y="-201.8"/>
      <point x="-259.4" y="-201.8" type="curve" smooth="yes"/>
      <point x="-282.0" y="-201.8"/>
      <point x="-308.6" y="-195.2"/>
    </contour>
  </outline>
</glyph>
<glyph name="uni0328" format="2">
  <unicode hex="0328"/>
  <anchor x="-213.0" y="0.0" name="_ogonek"/>
  <outline>
    <contour>
      <point x="-240.8" y="-220.0" type="curve" smooth="yes"/>
      <point x="-227.2" y="-220.0"/>
      <point x="-216.8" y="-217.4"/>
      <point x="-207.2" y="-212.8" type="curve"/>
      <point x="-210.8" y="-197.2" type="line"/>
      <point x="-219.2" y="-200.8"/>
      <point x="-227.4" y="-202.2"/>
      <point x="-237.8" y="-202.2" type="curve" smooth="yes"/>
      <point x="-263.0" y="-202.2"/>
      <point x="-287.4" y="-190.4"/>
      <point x="-287.4" y="-146.6" type="curve" smooth="yes"/>
      <point x="-287.4" y="-90.4"/>
      <point x="-253.60000000000002" y="-42.0"/>
      <point x="-213.0" y="0.0" type="curve"/>
      <point x="-224.8" y="9.0" type="line"/>
      <point x="-274.4" y="-40.4"/>
      <point x="-307.0" y="-95.6"/>
      <point x="-307.0" y="-148.0" type="curve" smooth="yes"/>
      <point x="-307.0" y="-202.4"/>
      <point x="-274.0" y="-220.0"/>
    </contour>
  </outline>
</glyph>
<glyph name="uni0335" format="2">
  <unicode hex="0335"/>
  <anchor x="-92.2" y="350.0" name="_center"/>
  <outline>
    <contour>
      <point x="-213.0" y="340.0" type="line"/>
      <point x="28.2" y="340.0" type="line"/>
      <point x="28.2" y="360.0" type="line"/>
      <point x="-213.0" y="360.0" type="line"/>
    </contour>
  </outline>
</glyph>
<glyph name="pi" format="2">
  <advance width="552.4"/>
  <unicode hex="03C0"/>
  <outline>
    <contour>
      <point x="479.8" y="-10.0" type="curve" smooth="yes"/>
      <point x="491.8" y="-10.0"/>
      <point x="504.4" y="-7.6"/>
      <point x="518.8" y="-1.0" type="curve"/>
      <point x="512.6" y="15.2" type="line"/>
      <point x="501.0" y="10.6"/>
      <point x="490.8" y="8.6"/>
      <point x="480.6" y="8.6" type="curve" smooth="yes"/>
      <point x="450.8" y="8.6"/>
      <point x="435.6" y="32.6"/>
      <point x="435.6" y="76.0" type="curve" smooth="yes"/>
      <point x="435.6" y="511.2" type="line"/>
      <point x="512.2" y="511.2" type="line"/>
      <point x="512.2" y="530.0" type="line"/>
      <point x="216.8" y="530.0" type="line" smooth="yes"/>
      <point x="160.2" y="530.0"/>
      <point x="92.6" y="525.6"/>
      <point x="44.400000000000006" y="494.2" type="curve"/>
      <point x="52.400000000000006" y="477.2" type="line"/>
      <point x="99.0" y="503.0"/>
      <point x="145.2" y="509.0"/>
      <point x="176.0" y="510.6" type="curve"/>
      <point x="161.8" y="376.2"/>
      <point x="113.4" y="105.0"/>
      <point x="87.4" y="0.0" type="curve"/>
      <point x="107.4" y="0.0" type="line"/>
      <point x="135.4" y="115.0"/>
      <point x="183.0" y="381.2"/>
      <point x="196.0" y="511.2" type="curve"/>
      <point x="415.6" y="511.2" type="line"/>
      <point x="415.6" y="67.6" type="line" smooth="yes"/>
      <point x="415.6" y="21.8"/>
      <point x="440.20000000000005" y="-10.0"/>
    </contour>
  </outline>
</glyph>
<glyph name="endash" format="2">
  <advance width="383.2"/>
  <unicode hex="2013"/>
  <outline>
    <contour>
      <point x="14.4" y="255.0" type="line"/>
      <point x="368.8" y="255.0" type="line"/>
      <point x="368.8" y="275.0" type="line"/>
      <point x="14.4" y="275.0" type="line"/>
    </contour>
  </outline>
</glyph>
<glyph name="emdash" format="2">
  <advance width="764.8"/>
  <unicode hex="2014"/>
  <outline>
    <contour>
      <point x="0.0" y="255.0" type="line"/>
      <point x="764.8" y="255.0" type="line"/>
      <point x="764.8" y="275.0" type="line"/>
      <point x="0.0" y="275.0" type="line"/>
    </contour>
  </outline>
</glyph>
<glyph name="quoteleft" format="2">
  <advance width="141.6"/>
  <unicode hex="2018"/>
  <outline>
    <contour>
      <point x="38.6" y="430.0" type="curve"/>
      <point x="57.0" y="430.0" type="line"/>
      <point x="56.6" y="442.0"/>
      <point x="56.6" y="454.0"/>
      <point x="56.6" y="466.0" type="curve" smooth="yes"/>
      <point x="56.6" y="566.0"/>
      <point x="77.0" y="632.0"/>
      <point x="120.2" y="700.0" type="curve"/>
      <point x="100.4" y="700.0" type="line"/>
      <point x="56.6" y="632.0"/>
      <point x="37.6" y="566.0"/>
      <point x="37.6" y="466.0" type="curve" smooth="yes"/>
      <point x="37.6" y="454.0"/>
      <point x="37.6" y="442.0"/>
    </contour>
  </outline>
</glyph>
<glyph name="quoteright" format="2">
  <advance width="141.6"/>
  <unicode hex="2019"/>
  <outline>
    <contour>
      <point x="45.4" y="430.0" type="line"/>
      <point x="89.2" y="498.0"/>
      <point x="108.2" y="564.0"/>
      <point x="108.2" y="664.0" type="curve" smooth="yes"/>
      <point x="108.2" y="676.0"/>
      <point x="108.2" y="688.0"/>
      <point x="107.2" y="700.0" type="curve"/>
      <point x="88.8" y="700.0" type="line"/>
      <point x="89.2" y="688.0"/>
      <point x="89.2" y="676.0"/>
      <point x="89.2" y="664.0" type="curve" smooth="yes"/>
      <point x="89.2" y="564.0"/>
      <point x="68.8" y="498.0"/>
      <point x="25.6" y="430.0" type="curve"/>
    </contour>
  </outline>
</glyph>
<glyph name="dagger" format="2">
  <advance width="421.20000000000005"/>
  <unicode hex="2020"/>
  <outline>
    <contour>
      <point x="200.60000000000002" y="-210.0" type="line"/>
      <point x="220.60000000000002" y="-210.0" type="line"/>
      <point x="220.60000000000002" y="514.0" type="line"/>
      <point x="381.6" y="514.0" type="line"/>
      <point x="381.6" y="534.0" type="line"/>
      <point x="220.60000000000002" y="534.0" type="line"/>
      <point x="220.60000000000002" y="740.0" type="line"/>
      <point x="200.60000000000002" y="740.0" type="line"/>
      <point x="200.60000000000002" y="534.0" type="line"/>
      <point x="39.6" y="534.0" type="line"/>
      <point x="39.6" y="514.0" type="line"/>
      <point x="200.60000000000002" y="514.0" type="line"/>
    </contour>
  </outline>
</glyph>
<glyph name="daggerdbl" format="2">
  <advance width="421.20000000000005"/>
  <unicode hex="2021"/>
  <outline>
    <contour>
      <point x="381.6" y="0.0" type="line"/>
      <point x="381.6" y="20.0" type="line"/>
      <point x="220.60000000000002" y="20.0" type="line"/>
      <point x="220.60000000000002" y="510.0" type="line"/>
      <point x="381.6" y="510.0" type="line"/>
      <point x="381.6" y="530.0" type="line"/>
      <point x="220.60000000000002" y="530.0" type="line"/>
      <point x="220.60000000000002" y="740.0" type="line"/>
      <point x="200.60000000000002" y="740.0" type="line"/>
      <point x="200.60000000000002" y="530.0" type="line"/>
      <point x="39.6" y="530.0" type="line"/>
      <point x="39.6" y="510.0" type="line"/>
      <point x="200.60000000000002" y="510.0" type="line"/>
      <point x="200.60000000000002" y="20.0" type="line"/>
      <point x="39.6" y="20.0" type="line"/>
      <point x="39.6" y="0.0" type="line"/>
      <point x="200.60000000000002" y="0.0" type="line"/>
      <point x="200.60000000000002" y="-210.0" type="line"/>
      <point x="220.60000000000002" y="-210.0" type="line"/>
      <point x="220.60000000000002" y="0.0" type="line"/>
    </contour>
  </outline>
</glyph>
<glyph name="bullet" format="2">
  <advance width="258.4"/>
  <unicode hex="2022"/>
  <outline>
    <contour>
      <point x="129.2" y="225.2" type="curve" smooth="yes"/>
      <point x="179.4" y="225.2"/>
      <point x="220.0" y="265.8"/>
      <point x="220.0" y="316.0" type="curve" smooth="yes"/>
      <point x="220.0" y="366.2"/>
      <point x="179.4" y="406.8"/>
      <point x="129.2" y="406.8" type="curve" smooth="yes"/>
      <point x="79.0" y="406.8"/>
      <point x="38.4" y="366.2"/>
      <point x="38.4" y="316.0" type="curve" smooth="yes"/>
      <point x="38.4" y="265.8"/>
      <point x="79.0" y="225.2"/>
    </contour>
  </outline>
</glyph>
<glyph name="minute" format="2">
  <advance width="164.4"/>
  <unicode hex="2032"/>
  <outline>
    <contour>
      <point x="43.6" y="429.0" type="line"/>
      <point x="54.6" y="429.0" type="line"/>
      <point x="121.2" y="700.0" type="line"/>
      <point x="99.2" y="700.0" type="line"/>
    </contour>
  </outline>
</glyph>
<glyph name="guilsinglleft" format="2">
  <advance width="232.60000000000002"/>
  <unicode hex="2039"/>
  <outline>
    <contour>
      <point x="29.4" y="265.0" type="line"/>
      <point x="189.4" y="40.4" type="line"/>
      <point x="204.4" y="51.0" type="line"/>
      <point x="49.6" y="270.8" type="line"/>
      <point x="204.4" y="490.6" type="line"/>
      <point x="189.4" y="501.2" type="line"/>
      <point x="29.4" y="276.6" type="line"/>
    </contour>
  </outline>
</glyph>
<glyph name="guilsinglright" format="2">
  <advance width="232.60000000000002"/>
  <unicode hex="203A"/>
  <outline>
    <contour>
      <point x="203.2" y="276.6" type="line"/>
      <point x="43.2" y="501.2" type="line"/>
      <point x="28.200000000000003" y="490.6" type="line"/>
      <point x="183.0" y="270.8" type="line"/>
      <point x="28.200000000000003" y="51.0" type="line"/>
      <point x="43.2" y="40.4" type="line"/>
      <point x="203.2" y="265.0" type="line"/>
    </contour>
  </outline>
</glyph>
<glyph name="fraction" format="2">
  <advance width="110.80000000000001"/>
  <unicode hex="2044"/>
  <outline>
    <contour>
      <point x="-111.6" y="-11.8" type="line"/>
      <point x="238.8" y="732.8" type="line"/>
      <point x="222.4" y="740.4" type="line"/>
      <point x="-128.0" y="-4.199999999999999" type="line"/>
    </contour>
  </outline>
</glyph>
<glyph name="uni2052" format="2">
  <advance width="563.6"/>
  <unicode hex="2052"/>
  <outline>
    <contour>
      <point x="54.6" y="6.0" type="line"/>
      <point x="70.0" y="-2.6" type="line"/>
      <point x="509.40000000000003" y="694.0" type="line"/>
      <point x="494.0" y="702.6" type="line"/>
    </contour>
    <component base="period" xOffset="17.0" yOffset="666.0"/>
    <component base="period" xOffset="404.8"/>
  </outline>
</glyph>
<glyph name="uni2070" format="2">
  <advance width="378.0"/>
  <unicode hex="2070"/>
  <outline>
    <contour>
      <point x="38.2" y="567.4" type="curve" smooth="yes"/>
      <point x="38.2" y="406.2"/>
      <point x="102.2" y="360.6"/>
      <point x="188.60000000000002" y="360.6" type="curve" smooth="yes"/>
      <point x="275.4" y="360.6"/>
      <point x="339.8" y="406.2"/>
      <point x="339.8" y="567.4" type="curve" smooth="yes"/>
      <point x="339.8" y="728.4"/>
      <point x="276.0" y="772.8"/>
      <point x="188.60000000000002" y="772.8" type="curve" smooth="yes"/>
      <point x="102.2" y="772.8"/>
      <point x="38.2" y="728.4"/>
    </contour>
    <contour>
      <point x="57.0" y="567.4" type="curve" smooth="yes"/>
      <point x="57.0" y="715.0"/>
      <point x="114.0" y="755.2"/>
      <point x="188.60000000000002" y="755.2" type="curve" smooth="yes"/>
      <point x="263.6" y="755.2"/>
      <point x="321.0" y="715.0"/>
      <point x="321.0" y="567.4" type="curve" smooth="yes"/>
      <point x="321.0" y="419.8"/>
      <point x="263.6" y="377.8"/>
      <point x="188.60000000000002" y="377.8" type="curve" smooth="yes"/>
      <point x="114.0" y="377.8"/>
      <point x="57.0" y="419.8"/>
    </contour>
  </outline>
</glyph>
<glyph name="uni2075" format="2">
  <advance width="379.20000000000005"/>
  <unicode hex="2075"/>
  <outline>
    <contour>
      <point x="44.8" y="396.4" type="line"/>
      <point x="79.4" y="372.4"/>
      <point x="121.6" y="359.4"/>
      <point x="178.4" y="359.4" type="curve" smooth="yes"/>
      <point x="263.2" y="359.4"/>
      <point x="330.6" y="398.8"/>
      <point x="330.6" y="478.2" type="curve" smooth="yes"/>
      <point x="330.6" y="545.6"/>
      <point x="293.4" y="588.8"/>
      <point x="199.2" y="588.8" type="curve" smooth="yes"/>
      <point x="83.8" y="588.8" type="line"/>
      <point x="99.6" y="745.4" type="line"/>
      <point x="304.20000000000005" y="745.4" type="line"/>
      <point x="304.20000000000005" y="762.4" type="line"/>
      <point x="84.4" y="762.4" type="line"/>
      <point x="64.4" y="578.8" type="line"/>
      <point x="70.4" y="572.4" type="line"/>
      <point x="191.8" y="572.4" type="line" smooth="yes"/>
      <point x="278.20000000000005" y="572.4"/>
      <point x="311.20000000000005" y="536.4"/>
      <point x="311.20000000000005" y="478.6" type="curve" smooth="yes"/>
      <point x="311.20000000000005" y="413.8"/>
      <point x="260.8" y="376.0"/>
      <point x="177.8" y="376.0" type="curve" smooth="yes"/>
      <point x="122.80000000000001" y="376.0"/>
      <point x="84.6" y="390.0"/>
      <point x="53.6" y="409.4" type="curve"/>
    </contour>
  </outline>
</glyph>
<glyph name="uni2076" format="2">
  <advance width="361.20000000000005"/>
  <unicode hex="2076"/>
  <outline>
    <contour>
      <point x="192.2" y="360.0" type="curve" smooth="yes"/>
      <point x="262.4" y="360.0"/>
      <point x="332.20000000000005" y="400.0"/>
      <point x="332.20000000000005" y="486.6" type="curve" smooth="yes"/>
      <point x="332.20000000000005" y="565.6"/>
      <point x="276.4" y="603.4"/>
      <point x="203.4" y="603.4" type="curve" smooth="yes"/>
      <point x="142.6" y="603.4"/>
      <point x="76.8" y="576.6"/>
      <point x="49.6" y="542.4" type="curve"/>
      <point x="51.0" y="520.2" type="line"/>
      <point x="75.8" y="559.4"/>
      <point x="140.0" y="588.0"/>
      <point x="201.4" y="588.0" type="curve" smooth="yes"/>
      <point x="264.0" y="588.0"/>
      <point x="313.8" y="556.2"/>
      <point x="313.8" y="486.2" type="curve" smooth="yes"/>
      <point x="313.8" y="403.8"/>
      <point x="249.4" y="375.4"/>
      <point x="192.0" y="375.4" type="curve" smooth="yes"/>
      <point x="104.6" y="375.4"/>
      <point x="56.4" y="421.0"/>
      <point x="56.4" y="555.2" type="curve" smooth="yes"/>
      <point x="56.4" y="711.6"/>
      <point x="119.80000000000001" y="756.6"/>
      <point x="205.4" y="756.6" type="curve" smooth="yes"/>
      <point x="245.4" y="756.6"/>
      <point x="275.20000000000005" y="749.2"/>
      <point x="308.6" y="736.8" type="curve"/>
      <point x="314.6" y="751.4" type="line"/>
      <point x="280.4" y="765.0"/>
      <point x="248.0" y="772.4"/>
      <point x="205.60000000000002" y="772.4" type="curve" smooth="yes"/>
      <point x="118.6" y="772.4"/>
      <point x="38.2" y="730.8"/>
      <point x="38.2" y="556.8" type="curve" smooth="yes"/>
      <point x="38.2" y="400.2"/>
      <point x="103.4" y="360.0"/>
    </contour>
  </outline>
</glyph>
<glyph name="uni2077" format="2">
  <advance width="327.8"/>
  <unicode hex="2077"/>
  <outline>
    <contour>
      <point x="119.4" y="370.0" type="curve"/>
      <point x="138.4" y="370.0" type="line"/>
      <point x="138.4" y="453.0"/>
      <point x="165.4" y="512.4"/>
      <point x="215.0" y="605.8" type="curve" smooth="yes"/>
      <point x="291.6" y="748.4" type="line"/>
      <point x="291.6" y="762.4" type="line"/>
      <point x="23.2" y="762.4" type="line"/>
      <point x="23.2" y="745.8" type="line"/>
      <point x="269.8" y="745.8" type="line"/>
      <point x="204.8" y="623.6" type="line" smooth="yes"/>
      <point x="144.2" y="509.0"/>
      <point x="119.4" y="452.0"/>
    </contour>
  </outline>
</glyph>
<glyph name="uni2078" format="2">
  <advance width="373.6"/>
  <unicode hex="2078"/>
  <outline>
    <contour>
      <point x="187.4" y="360.6" type="curve" smooth="yes"/>
      <point x="283.4" y="360.6"/>
      <point x="337.6" y="397.8"/>
      <point x="337.6" y="465.0" type="curve" smooth="yes"/>
      <point x="337.6" y="621.0"/>
      <point x="72.2" y="547.6"/>
      <point x="72.2" y="677.0" type="curve" smooth="yes"/>
      <point x="72.2" y="727.6"/>
      <point x="113.8" y="757.0"/>
      <point x="187.2" y="757.0" type="curve" smooth="yes"/>
      <point x="261.6" y="757.0"/>
      <point x="301.8" y="728.2"/>
      <point x="301.8" y="675.4" type="curve" smooth="yes"/>
      <point x="301.8" y="631.8"/>
      <point x="280.4" y="600.0"/>
      <point x="226.0" y="572.8" type="curve"/>
      <point x="244.0" y="565.8" type="line"/>
      <point x="294.8" y="593.4"/>
      <point x="319.4" y="629.8"/>
      <point x="319.4" y="676.6" type="curve" smooth="yes"/>
      <point x="319.4" y="736.8"/>
      <point x="272.0" y="773.0"/>
      <point x="187.2" y="773.0" type="curve" smooth="yes"/>
      <point x="101.6" y="773.0"/>
      <point x="54.0" y="737.4"/>
      <point x="54.0" y="673.6" type="curve" smooth="yes"/>
      <point x="54.0" y="534.2"/>
      <point x="319.4" y="606.4"/>
      <point x="319.4" y="465.0" type="curve" smooth="yes"/>
      <point x="319.4" y="405.8"/>
      <point x="270.6" y="375.6"/>
      <point x="188.4" y="375.6" type="curve" smooth="yes"/>
      <point x="110.80000000000001" y="375.6"/>
      <point x="57.2" y="406.4"/>
      <point x="57.2" y="470.6" type="curve" smooth="yes"/>
      <point x="57.2" y="521.8"/>
      <point x="87.2" y="561.6"/>
      <point x="146.0" y="585.6" type="curve"/>
      <point x="126.0" y="592.8" type="line"/>
      <point x="67.2" y="565.2"/>
      <point x="38.4" y="521.0"/>
      <point x="38.4" y="469.4" type="curve" smooth="yes"/>
      <point x="38.4" y="394.6"/>
      <point x="96.4" y="360.6"/>
    </contour>
  </outline>
</glyph>
<glyph name="uni2079" format="2">
  <advance width="341"/>
  <unicode hex="2079"/>
  <outline>
    <contour>
      <point x="154" y="360" type="curve" smooth="yes"/>
      <point x="238" y="360"/>
      <point x="315" y="401"/>
      <point x="315" y="576" type="curve" smooth="yes"/>
      <point x="315" y="728"/>
      <point x="253" y="773"/>
      <point x="170" y="773" type="curve" smooth="yes"/>
      <point x="94" y="773"/>
      <point x="21" y="734"/>
      <point x="21" y="647" type="curve" smooth="yes"/>
      <point x="21" y="568"/>
      <point x="79" y="529"/>
      <point x="152" y="529" type="curve" smooth="yes"/>
      <point x="208" y="529"/>
      <point x="268" y="552"/>
      <point x="297" y="587" type="curve"/>
      <point x="297" y="419"/>
      <point x="236" y="376"/>
      <point x="154" y="376" type="curve" smooth="yes"/>
      <point x="108" y="376"/>
      <point x="53" y="389"/>
      <point x="44" y="395" type="curve"/>
      <point x="38" y="381" type="line"/>
      <point x="48" y="373"/>
      <point x="105" y="360"/>
    </contour>
    <contour>
      <point x="153" y="545" type="curve" smooth="yes"/>
      <point x="91" y="545"/>
      <point x="38" y="578"/>
      <point x="38" y="648" type="curve" smooth="yes"/>
      <point x="38" y="730"/>
      <point x="108" y="757"/>
      <point x="169" y="757" type="curve" smooth="yes"/>
      <point x="237" y="757"/>
      <point x="290" y="720"/>
      <point x="296" y="606" type="curve"/>
      <point x="268" y="569"/>
      <point x="210" y="545"/>
    </contour>
  </outline>
</glyph>
<glyph name="uni207A" format="2">
  <advance width="262.0"/>
  <unicode hex="207A"/>
  <outline>
    <contour>
      <point x="122.6" y="406.0" type="line"/>
      <point x="139.6" y="406.0" type="line"/>
      <point x="139.6" y="523.6" type="line"/>
      <point x="232.0" y="523.6" type="line"/>
      <point x="232.0" y="540.6" type="line"/>
      <point x="139.6" y="540.6" type="line"/>
      <point x="139.6" y="658.8" type="line"/>
      <point x="122.6" y="658.8" type="line"/>
      <point x="122.6" y="540.6" type="line"/>
      <point x="30.0" y="540.6" type="line"/>
      <point x="30.0" y="523.6" type="line"/>
      <point x="122.6" y="523.6" type="line"/>
    </contour>
  </outline>
</glyph>
<glyph name="uni207B" format="2">
  <advance width="262.0"/>
  <unicode hex="207B"/>
  <outline>
    <contour>
      <point x="29.400000000000002" y="523.0" type="line"/>
      <point x="232.6" y="523.0" type="line"/>
      <point x="232.6" y="540.0" type="line"/>
      <point x="29.400000000000002" y="540.0" type="line"/>
    </contour>
  </outline>
</glyph>
<glyph name="uni207C" format="2">
  <advance width="306.8"/>
  <unicode hex="207C"/>
  <outline>
    <contour>
      <point x="255.0" y="483.0" type="line"/>
      <point x="51.800000000000004" y="483.0" type="line"/>
      <point x="51.800000000000004" y="466.0" type="line"/>
      <point x="255.0" y="466.0" type="line"/>
    </contour>
    <contour>
      <point x="255.0" y="599.6" type="line"/>
      <point x="51.800000000000004" y="599.6" type="line"/>
      <point x="51.800000000000004" y="582.6" type="line"/>
      <point x="255.0" y="582.6" type="line"/>
    </contour>
  </outline>
</glyph>
<glyph name="uni207D" format="2">
  <advance width="168.4"/>
  <unicode hex="207D"/>
  <outline>
    <contour>
      <point x="52.6" y="558.2" type="curve" smooth="yes"/>
      <point x="52.6" y="409.4"/>
      <point x="88.6" y="297.0"/>
      <point x="159.2" y="278.2" type="curve"/>
      <point x="159.2" y="298.0" type="line"/>
      <point x="101.2" y="318.0"/>
      <point x="70.6" y="419.2"/>
      <point x="70.6" y="558.2" type="curve" smooth="yes"/>
      <point x="70.6" y="697.6"/>
      <point x="101.2" y="797.8"/>
      <point x="159.2" y="817.8" type="curve"/>
      <point x="159.2" y="837.6" type="line"/>
      <point x="88.6" y="818.2"/>
      <point x="52.6" y="706.2"/>
    </contour>
  </outline>
</glyph>
<glyph name="uni207E" format="2">
  <advance width="168.4"/>
  <unicode hex="207E"/>
  <outline>
    <contour>
      <point x="9.200000000000001" y="279.8" type="line"/>
      <point x="79.80000000000001" y="299.2"/>
      <point x="115.80000000000001" y="411.6"/>
      <point x="115.80000000000001" y="559.8" type="curve" smooth="yes"/>
      <point x="115.80000000000001" y="707.8"/>
      <point x="79.80000000000001" y="819.8"/>
      <point x="9.200000000000001" y="839.8" type="curve"/>
      <point x="9.200000000000001" y="819.4" type="line"/>
      <point x="67.2" y="799.4"/>
      <point x="98.80000000000001" y="699.2"/>
      <point x="98.80000000000001" y="559.8" type="curve" smooth="yes"/>
      <point x="98.80000000000001" y="420.8"/>
      <point x="67.6" y="320.2"/>
      <point x="9.200000000000001" y="297.2" type="curve"/>
    </contour>
  </outline>
</glyph>
<glyph name="n.superior" format="2">
  <advance width="331.20000000000005"/>
  <unicode hex="207F"/>
  <outline>
    <contour>
      <point x="61.2" y="370.0" type="line"/>
      <point x="80.2" y="370.0" type="line"/>
      <point x="80.2" y="626.6" type="line"/>
      <point x="116.0" y="645.8"/>
      <point x="147.8" y="659.0"/>
      <point x="185.8" y="659.0" type="curve" smooth="yes"/>
      <point x="231.0" y="659.0"/>
      <point x="252.2" y="634.0"/>
      <point x="252.2" y="592.8" type="curve" smooth="yes"/>
      <point x="252.2" y="370.0" type="line"/>
      <point x="271.2" y="370.0" type="line"/>
      <point x="271.2" y="594.6" type="line" smooth="yes"/>
      <point x="271.2" y="648.6"/>
      <point x="242.0" y="675.0"/>
      <point x="191.8" y="675.0" type="curve" smooth="yes"/>
      <point x="148.8" y="675.0"/>
      <point x="116.6" y="661.8"/>
      <point x="79.2" y="641.6" type="curve"/>
      <point x="79.2" y="670.0" type="line"/>
      <point x="61.2" y="670.0" type="line"/>
    </contour>
  </outline>
</glyph>
<glyph name="colonmonetary" format="2">
  <advance width="563.6"/>
  <unicode hex="20A1"/>
  <outline>
    <contour>
      <point x="330.0" y="-10.0" type="curve" smooth="yes"/>
      <point x="400.6" y="-10.0"/>
      <point x="476.8" y="-1.1999999999999993"/>
      <point x="535.2" y="16.8" type="curve"/>
      <point x="529.6" y="36.2" type="line"/>
      <point x="473.6" y="18.8"/>
      <point x="396.4" y="8.8"/>
      <point x="329.8" y="8.8" type="curve" smooth="yes"/>
      <point x="171.0" y="8.8"/>
      <point x="75.4" y="95.0"/>
      <point x="75.4" y="336.0" type="curve" smooth="yes"/>
      <point x="75.4" y="598.8"/>
      <point x="176.2" y="690.6"/>
      <point x="341.4" y="690.6" type="curve" smooth="yes"/>
      <point x="405.4" y="690.6"/>
      <point x="453.0" y="685.0"/>
      <point x="509.2" y="669.4" type="curve"/>
      <point x="513.6" y="688.2" type="line"/>
      <point x="455.8" y="704.4"/>
      <point x="406.0" y="710.0"/>
      <point x="340.0" y="710.0" type="curve" smooth="yes"/>
      <point x="158.2" y="710.0"/>
      <point x="55.4" y="603.6"/>
      <point x="55.4" y="336.8" type="curve" smooth="yes"/>
      <point x="55.4" y="78.0"/>
      <point x="159.4" y="-10.0"/>
    </contour>
    <contour>
      <point x="305.0" y="695.8" type="line"/>
      <point x="325.0" y="696.2" type="line"/>
      <point x="335.20000000000005" y="805.0" type="line"/>
      <point x="315.20000000000005" y="805.0" type="line"/>
    </contour>
    <contour>
      <point x="389.20000000000005" y="697.2" type="line"/>
      <point x="409.20000000000005" y="698.0" type="line"/>
      <point x="419.4" y="805.0" type="line"/>
      <point x="399.4" y="805.0" type="line"/>
    </contour>
    <contour>
      <point x="249.8" y="-105.0" type="line"/>
      <point x="269.8" y="-105.0" type="line"/>
      <point x="280.6" y="9.2" type="line"/>
      <point x="260.6" y="13.4" type="line"/>
    </contour>
    <contour>
      <point x="335.8" y="-105.0" type="line"/>
      <point x="355.8" y="-105.0" type="line"/>
      <point x="365.6" y="-1.4000000000000004" type="line"/>
      <point x="345.6" y="-1.4000000000000004" type="line"/>
    </contour>
  </outline>
</glyph>
<glyph name="franc" format="2">
  <advance width="563.6"/>
  <unicode hex="20A3"/>
  <outline>
    <contour>
      <point x="124.6" y="0.0" type="line"/>
      <point x="144.6" y="0.0" type="line"/>
      <point x="144.6" y="680.0" type="line"/>
      <point x="521.6" y="680.0" type="line"/>
      <point x="521.6" y="700.0" type="line"/>
      <point x="124.6" y="700.0" type="line"/>
    </contour>
    <contour>
      <point x="40.0" y="218.4" type="line"/>
      <point x="419.6" y="218.4" type="line"/>
      <point x="419.6" y="237.8" type="line"/>
      <point x="40.0" y="237.8" type="line"/>
    </contour>
    <contour>
      <point x="40.0" y="381.2" type="line"/>
      <point x="419.6" y="381.2" type="line"/>
      <point x="419.6" y="400.6" type="line"/>
      <point x="40.0" y="400.6" type="line"/>
    </contour>
  </outline>
</glyph>
<glyph name="lira" format="2">
  <advance width="563.6"/>
  <unicode hex="20A4"/>
  <outline>
    <contour>
      <point x="73.2" y="0.0" type="line"/>
      <point x="519.4000000000001" y="0.0" type="line"/>
      <point x="519.4000000000001" y="20.0" type="line"/>
      <point x="98.0" y="20.0" type="line"/>
      <point x="170.8" y="102.0"/>
      <point x="205.60000000000002" y="153.8"/>
      <point x="205.60000000000002" y="236.4" type="curve" smooth="yes"/>
      <point x="205.60000000000002" y="344.8"/>
      <point x="128.8" y="401.0"/>
      <point x="128.8" y="513.4" type="curve" smooth="yes"/>
      <point x="128.8" y="635.0"/>
      <point x="206.2" y="690.0"/>
      <point x="321.6" y="690.0" type="curve" smooth="yes"/>
      <point x="367.20000000000005" y="690.0"/>
      <point x="441.0" y="680.6"/>
      <point x="489.8" y="668.4" type="curve"/>
      <point x="495.0" y="686.0" type="line"/>
      <point x="455.6" y="699.2"/>
      <point x="371.20000000000005" y="710.0"/>
      <point x="321.6" y="710.0" type="curve" smooth="yes"/>
      <point x="184.8" y="710.0"/>
      <point x="108.80000000000001" y="632.2"/>
      <point x="108.80000000000001" y="513.0" type="curve" smooth="yes"/>
      <point x="108.80000000000001" y="392.6"/>
      <point x="185.60000000000002" y="336.0"/>
      <point x="185.60000000000002" y="235.6" type="curve" smooth="yes"/>
      <point x="185.60000000000002" y="157.8"/>
      <point x="154.0" y="114.6"/>
      <point x="73.2" y="20.0" type="curve"/>
    </contour>
    <contour>
      <point x="60.0" y="415.2" type="line"/>
      <point x="422.0" y="415.2" type="line"/>
      <point x="422.0" y="435.2" type="line"/>
      <point x="60.0" y="435.2" type="line"/>
    </contour>
    <contour>
      <point x="60.0" y="295.2" type="line"/>
      <point x="422.0" y="295.2" type="line"/>
      <point x="422.0" y="315.2" type="line"/>
      <point x="60.0" y="315.2" type="line"/>
    </contour>
  </outline>
</glyph>
<glyph name="uni20A6" format="2">
  <advance width="563.6"/>
  <unicode hex="20A6"/>
  <outline>
    <contour>
      <point x="91.2" y="0.0" type="line"/>
      <point x="111.2" y="0.0" type="line"/>
      <point x="111.2" y="662.8" type="line"/>
      <point x="447.6" y="0.0" type="line"/>
      <point x="472.8" y="0.0" type="line"/>
      <point x="472.8" y="700.0" type="line"/>
      <point x="452.8" y="700.0" type="line"/>
      <point x="452.8" y="43.6" type="line"/>
      <point x="116.4" y="704.0" type="line"/>
      <point x="91.2" y="704.0" type="line"/>
    </contour>
    <contour>
      <point x="22.0" y="342.0" type="line"/>
      <point x="97.6" y="342.0" type="line"/>
      <point x="97.6" y="362.0" type="line"/>
      <point x="22.0" y="362.0" type="line"/>
    </contour>
    <contour>
      <point x="466.40000000000003" y="342.0" type="line"/>
      <point x="542.0" y="342.0" type="line"/>
      <point x="542.0" y="362.0" type="line"/>
      <point x="466.40000000000003" y="362.0" type="line"/>
    </contour>
  </outline>
</glyph>
<glyph name="peseta" format="2">
  <advance width="563.6"/>
  <unicode hex="20A7"/>
  <outline>
    <contour>
      <point x="93.0" y="0.0" type="line"/>
      <point x="113.0" y="0.0" type="line"/>
      <point x="113.0" y="277.0" type="line"/>
      <point x="180.2" y="274.8"/>
      <point x="221.6" y="274.4"/>
      <point x="278.8" y="274.4" type="curve" smooth="yes"/>
      <point x="404.0" y="274.4"/>
      <point x="471.6" y="326.0"/>
      <point x="471.6" y="494.4" type="curve" smooth="yes"/>
      <point x="471.6" y="653.6"/>
      <point x="418.20000000000005" y="710.0"/>
      <point x="270.6" y="710.0" type="curve" smooth="yes"/>
      <point x="234.8" y="710.0"/>
      <point x="191.4" y="708.0"/>
      <point x="93.0" y="702.4" type="curve"/>
    </contour>
    <contour>
      <point x="16.4" y="482.4" type="line"/>
      <point x="103.80000000000001" y="482.4" type="line"/>
      <point x="103.80000000000001" y="502.4" type="line"/>
      <point x="16.4" y="502.4" type="line"/>
    </contour>
    <contour>
      <point x="279.4" y="294.4" type="curve" smooth="yes"/>
      <point x="214.60000000000002" y="294.4"/>
      <point x="178.8" y="295.6"/>
      <point x="113.0" y="297.4" type="curve"/>
      <point x="113.0" y="684.8" type="line"/>
      <point x="200.2" y="689.8"/>
      <point x="238.0" y="691.2"/>
      <point x="271.20000000000005" y="691.2" type="curve" smooth="yes"/>
      <point x="404.4" y="691.2"/>
      <point x="451.6" y="640.6"/>
      <point x="451.6" y="492.6" type="curve" smooth="yes"/>
      <point x="451.6" y="343.6"/>
      <point x="399.20000000000005" y="294.4"/>
    </contour>
    <contour>
      <point x="463.6" y="482.4" type="line"/>
      <point x="555.6" y="482.4" type="line"/>
      <point x="555.6" y="502.4" type="line"/>
      <point x="463.6" y="502.4" type="line"/>
    </contour>
  </outline>
</glyph>
